<svg class="main-svg" xmlns="http://www.w3.org/2000/svg" xmlns:xlink="http://www.w3.org/1999/xlink" width="1600" height="1600" style="" viewBox="0 0 800 800"><rect x="0" y="0" width="800" height="800" style="fill: rgb(255, 255, 255); fill-opacity: 1;"/><defs id="defs-c3967d"><g class="clips"><clipPath id="clipc3967dxyplot" class="plotclip"><rect width="601" height="620"/></clipPath><clipPath class="axesclip" id="clipc3967dx"><rect x="80" y="0" width="601" height="800"/></clipPath><clipPath class="axesclip" id="clipc3967dy"><rect x="0" y="100" width="800" height="620"/></clipPath><clipPath class="axesclip" id="clipc3967dxy"><rect x="80" y="100" width="601" height="620"/></clipPath></g><g class="gradients"/><g class="patterns"/></defs><g class="bglayer"><rect class="bg" x="80" y="100" width="601" height="620" style="fill: rgb(229, 236, 246); fill-opacity: 1; stroke-width: 0;"/></g><g class="layer-below"><g class="imagelayer"/><g class="shapelayer"/></g><g class="cartesianlayer"><g class="subplot xy"><g class="layer-subplot"><g class="shapelayer"/><g class="imagelayer"/></g><g class="minor-gridlayer"><g class="x"/><g class="y"/></g><g class="gridlayer"><g class="x"/><g class="y"><path class="ygrid crisp" transform="translate(0,689)" d="M80,0h601" style="stroke: rgb(255, 255, 255); stroke-opacity: 1; stroke-width: 1px;"/><path class="ygrid crisp" transform="translate(0,604.48)" d="M80,0h601" style="stroke: rgb(255, 255, 255); stroke-opacity: 1; stroke-width: 1px;"/><path class="ygrid crisp" transform="translate(0,519.96)" d="M80,0h601" style="stroke: rgb(255, 255, 255); stroke-opacity: 1; stroke-width: 1px;"/><path class="ygrid crisp" transform="translate(0,435.44)" d="M80,0h601" style="stroke: rgb(255, 255, 255); stroke-opacity: 1; stroke-width: 1px;"/><path class="ygrid crisp" transform="translate(0,350.91999999999996)" d="M80,0h601" style="stroke: rgb(255, 255, 255); stroke-opacity: 1; stroke-width: 1px;"/><path class="ygrid crisp" transform="translate(0,266.4)" d="M80,0h601" style="stroke: rgb(255, 255, 255); stroke-opacity: 1; stroke-width: 1px;"/><path class="ygrid crisp" transform="translate(0,181.89)" d="M80,0h601" style="stroke: rgb(255, 255, 255); stroke-opacity: 1; stroke-width: 1px;"/></g></g><g class="zerolinelayer"/><path class="xlines-below"/><path class="ylines-below"/><g class="overlines-below"/><g class="xaxislayer-below"/><g class="yaxislayer-below"/><g class="overaxes-below"/><g class="plot" transform="translate(80,100)" clip-path="url(#clipc3967dxyplot)"><g class="violinlayer mlayer"><g class="trace violins" style="opacity: 1;"><path class="violin" d="M90.34,588.63Q91.26,576.32 91.66,570.16C92.06,564 92.43,557.84 92.73,551.68C93.03,545.52 93.28,539.36 93.47,533.2C93.66,527.04 93.79,520.89 93.87,514.73C93.95,508.57 93.95,502.41 93.93,496.25C93.91,490.09 93.83,483.93 93.72,477.77C93.61,471.61 93.44,465.46 93.26,459.3C93.07,453.14 92.85,446.98 92.61,440.82C92.37,434.66 92.1,428.5 91.83,422.34C91.56,416.18 91.26,410.03 90.98,403.87C90.7,397.71 90.41,391.55 90.14,385.39C89.87,379.23 89.62,373.07 89.38,366.91C89.14,360.75 88.92,354.6 88.72,348.44C88.52,342.28 88.35,336.12 88.18,329.96C88.01,323.8 87.86,317.64 87.71,311.48C87.56,305.32 87.42,299.17 87.29,293.01C87.15,286.85 87.03,280.69 86.9,274.53C86.78,268.37 86.66,262.21 86.54,256.05C86.43,249.89 86.32,243.74 86.21,237.58C86.1,231.42 86,225.26 85.9,219.1Q85.8,212.94 85.6,200.62L81.97,200.62Q81.77,212.94 81.67,219.1C81.57,225.26 81.47,231.42 81.36,237.58C81.25,243.74 81.14,249.89 81.03,256.05C80.91,262.21 80.79,268.37 80.67,274.53C80.54,280.69 80.42,286.85 80.28,293.01C80.15,299.17 80.01,305.32 79.86,311.48C79.71,317.64 79.57,323.8 79.4,329.96C79.23,336.12 79.05,342.28 78.85,348.44C78.65,354.6 78.44,360.75 78.2,366.91C77.96,373.07 77.7,379.23 77.43,385.39C77.16,391.55 76.87,397.71 76.59,403.87C76.31,410.03 76.01,416.18 75.74,422.34C75.47,428.5 75.2,434.66 74.96,440.82C74.72,446.98 74.49,453.14 74.31,459.3C74.13,465.46 73.97,471.61 73.86,477.77C73.75,483.93 73.67,490.09 73.64,496.25C73.61,502.41 73.62,508.57 73.7,514.73C73.78,520.89 73.91,527.04 74.1,533.2C74.29,539.36 74.54,545.52 74.84,551.68C75.14,557.84 75.51,564 75.91,570.16Q76.31,576.32 77.23,588.63Z" style="vector-effect: non-scaling-stroke; stroke-width: 2px; stroke: rgb(99, 110, 250); stroke-opacity: 1; fill: rgb(99, 110, 250); fill-opacity: 0.5;"/><path class="violin" d="M228.69,500.37Q229,489.8 229.16,484.51C229.31,479.22 229.45,473.94 229.62,468.65C229.8,463.36 229.97,458.07 230.21,452.78C230.45,447.49 230.72,442.21 231.05,436.92C231.38,431.63 231.76,426.34 232.18,421.06C232.6,415.77 233.09,410.49 233.58,405.2C234.07,399.91 234.61,394.63 235.12,389.34C235.62,384.05 236.16,378.77 236.61,373.48C237.06,368.2 237.5,362.91 237.82,357.62C238.14,352.34 238.39,347.05 238.52,341.76C238.65,336.47 238.68,331.18 238.58,325.89C238.48,320.6 238.25,315.31 237.94,310.03C237.63,304.74 237.19,299.45 236.7,294.17C236.21,288.88 235.62,283.59 235.02,278.31Q234.42,273.02 233.1,262.45L215.95,262.45Q214.63,273.02 214.03,278.31C213.43,283.59 212.84,288.88 212.35,294.17C211.86,299.45 211.41,304.74 211.1,310.03C210.79,315.31 210.56,320.6 210.47,325.89C210.38,331.18 210.4,336.47 210.53,341.76C210.66,347.05 210.91,352.34 211.23,357.62C211.55,362.91 211.99,368.2 212.44,373.48C212.89,378.77 213.43,384.05 213.93,389.34C214.44,394.63 214.98,399.91 215.47,405.2C215.96,410.49 216.45,415.77 216.87,421.06C217.29,426.34 217.67,431.63 218,436.92C218.33,442.21 218.6,447.49 218.84,452.78C219.08,458.07 219.25,463.36 219.43,468.65C219.6,473.94 219.74,479.22 219.89,484.51Q220.05,489.8 220.36,500.37Z" style="vector-effect: non-scaling-stroke; stroke-width: 2px; stroke: rgb(99, 110, 250); stroke-opacity: 1; fill: rgb(99, 110, 250); fill-opacity: 0.5;"/><path class="violin" d="M378.29,589Q378.67,577.24 378.67,571.36C378.67,565.48 378.49,559.6 378.28,553.72C378.07,547.84 377.72,541.96 377.39,536.08C377.06,530.2 376.67,524.32 376.3,518.44C375.93,512.56 375.55,506.67 375.17,500.79C374.79,494.91 374.42,489.03 374.04,483.15C373.66,477.27 373.27,471.39 372.87,465.51C372.47,459.63 372.05,453.75 371.64,447.87C371.23,441.99 370.81,436.11 370.42,430.23C370.04,424.35 369.65,418.47 369.33,412.59C369.01,406.71 368.71,400.83 368.48,394.95C368.25,389.07 368.08,383.19 367.94,377.31C367.8,371.43 367.72,365.54 367.65,359.66C367.58,353.78 367.55,347.9 367.5,342.02Q367.45,336.14 367.37,324.38L363.15,324.38Q363.06,336.14 363.02,342.02C362.97,347.9 362.95,353.78 362.88,359.66C362.81,365.54 362.73,371.43 362.59,377.31C362.45,383.19 362.28,389.07 362.05,394.95C361.82,400.83 361.52,406.71 361.2,412.59C360.88,418.47 360.49,424.35 360.11,430.23C359.72,436.11 359.3,441.99 358.89,447.87C358.48,453.75 358.06,459.63 357.66,465.51C357.26,471.39 356.87,477.27 356.48,483.15C356.1,489.03 355.72,494.91 355.35,500.79C354.97,506.67 354.6,512.56 354.23,518.44C353.86,524.32 353.46,530.2 353.13,536.08C352.8,541.96 352.45,547.84 352.24,553.72C352.03,559.6 351.85,565.48 351.85,571.36Q351.85,577.24 352.24,589Z" style="vector-effect: non-scaling-stroke; stroke-width: 2px; stroke: rgb(99, 110, 250); stroke-opacity: 1; fill: rgb(99, 110, 250); fill-opacity: 0.5;"/><path class="violin" d="M510.38,517.58Q510.3,509.26 510.16,505.1C510.02,500.94 509.79,496.79 509.56,492.63C509.33,488.47 509.04,484.31 508.8,480.15C508.57,475.99 508.31,471.83 508.15,467.67C507.99,463.51 507.85,459.36 507.85,455.2C507.85,451.04 507.91,446.88 508.13,442.72C508.35,438.56 508.68,434.4 509.16,430.25C509.64,426.08 510.28,421.92 511.02,417.77C511.76,413.6 512.68,409.44 513.62,405.29C514.56,401.12 515.67,396.98 516.68,392.82C517.69,388.66 518.79,384.51 519.68,380.34C520.57,376.19 521.44,372.03 522.03,367.86C522.62,363.72 523.06,359.55 523.24,355.39C523.42,351.24 523.36,347.06 523.13,342.91C522.9,338.74 522.42,334.58 521.88,330.43C521.34,326.26 520.6,322.11 519.89,317.96C519.18,313.8 518.36,309.64 517.61,305.48C516.86,301.32 516.09,297.16 515.37,293C514.65,288.84 513.96,284.69 513.31,280.53C512.66,276.37 512.05,272.21 511.48,268.05C510.91,263.9 510.38,259.74 509.9,255.58C509.42,251.42 508.98,247.26 508.59,243.1C508.21,238.94 507.87,234.78 507.59,230.62C507.31,226.46 507.08,222.31 506.89,218.15C506.7,213.99 506.56,209.83 506.45,205.67C506.34,201.51 506.27,197.35 506.21,193.19C506.15,189.03 506.12,184.88 506.09,180.72C506.06,176.56 506.05,172.4 506.04,168.24C506.03,164.08 506.03,159.92 506.03,155.76C506.03,151.6 506.04,147.45 506.06,143.29C506.08,139.13 506.1,134.97 506.14,130.81C506.18,126.65 506.22,122.49 506.3,118.33C506.38,114.17 506.48,110.02 506.62,105.86C506.76,101.7 506.92,97.54 507.12,93.38C507.32,89.22 507.57,85.07 507.83,80.91C508.09,76.75 508.4,72.59 508.68,68.43C508.96,64.27 509.27,60.11 509.52,55.95C509.76,51.79 510.01,47.64 510.15,43.48Q510.29,39.32 510.38,31L501.63,31Q501.72,39.32 501.86,43.48C502,47.64 502.24,51.79 502.48,55.95C502.72,60.11 503.04,64.27 503.32,68.43C503.6,72.59 503.91,76.75 504.17,80.91C504.43,85.07 504.68,89.22 504.88,93.38C505.08,97.54 505.25,101.7 505.39,105.86C505.53,110.02 505.62,114.17 505.7,118.33C505.78,122.49 505.83,126.65 505.87,130.81C505.91,134.97 505.93,139.13 505.95,143.29C505.97,147.45 505.97,151.6 505.97,155.76C505.97,159.92 505.97,164.08 505.96,168.24C505.95,172.4 505.94,176.56 505.91,180.72C505.88,184.88 505.85,189.03 505.79,193.19C505.73,197.35 505.66,201.51 505.55,205.67C505.44,209.83 505.3,213.99 505.11,218.15C504.92,222.31 504.69,226.46 504.41,230.62C504.13,234.78 503.79,238.94 503.41,243.1C503.03,247.26 502.59,251.42 502.11,255.58C501.63,259.74 501.09,263.9 500.52,268.05C499.95,272.21 499.34,276.37 498.69,280.53C498.04,284.69 497.35,288.84 496.63,293C495.91,297.16 495.14,301.32 494.39,305.48C493.64,309.64 492.82,313.8 492.11,317.96C491.4,322.11 490.67,326.26 490.13,330.43C489.59,334.58 489.1,338.74 488.87,342.91C488.64,347.06 488.58,351.24 488.76,355.39C488.94,359.55 489.38,363.72 489.97,367.86C490.56,372.03 491.43,376.19 492.32,380.34C493.21,384.51 494.31,388.66 495.32,392.82C496.33,396.98 497.43,401.12 498.38,405.29C499.32,409.44 500.25,413.6 500.99,417.77C501.73,421.92 502.36,426.08 502.84,430.25C503.32,434.4 503.65,438.56 503.87,442.72C504.09,446.88 504.15,451.04 504.15,455.2C504.15,459.36 504.02,463.51 503.86,467.67C503.7,471.83 503.44,475.99 503.2,480.15C502.96,484.31 502.67,488.47 502.44,492.63C502.21,496.79 501.98,500.94 501.84,505.1Q501.7,509.26 501.62,517.58Z" style="vector-effect: non-scaling-stroke; stroke-width: 2px; stroke: rgb(99, 110, 250); stroke-opacity: 1; fill: rgb(99, 110, 250); fill-opacity: 0.5;"/><path class="box" d="M79.48,483.93H88.1M79.48,543.29H88.1V399.25H79.48ZM83.79,543.29V588.63M83.79,399.25V200.62" style="vector-effect: non-scaling-stroke; stroke-width: 2px; stroke: rgb(99, 110, 250); stroke-opacity: 1; fill: rgb(99, 110, 250); fill-opacity: 0.5;"/><path class="box" d="M220.21,344.35H228.83M220.21,401.34H228.83V307.65H220.21ZM224.52,401.34V500.37M224.52,307.65V262.45" style="vector-effect: non-scaling-stroke; stroke-width: 2px; stroke: rgb(99, 110, 250); stroke-opacity: 1; fill: rgb(99, 110, 250); fill-opacity: 0.5;"/><path class="box" d="M360.95,587.63H369.57M360.95,588.63H369.57V475.12H360.95ZM365.26,588.63V589M365.26,475.12V324.38" style="vector-effect: non-scaling-stroke; stroke-width: 2px; stroke: rgb(99, 110, 250); stroke-opacity: 1; fill: rgb(99, 110, 250); fill-opacity: 0.5;"/><path class="box" d="M501.69,352.51H510.31M501.69,369.85H510.31V298.82H501.69ZM506,369.85V373.63M506,298.82V286.79" style="vector-effect: non-scaling-stroke; stroke-width: 2px; stroke: rgb(99, 110, 250); stroke-opacity: 1; fill: rgb(99, 110, 250); fill-opacity: 0.5;"/><g class="points"><path class="point" transform="translate(60.19,588.63)" d="M3,0A3,3 0 1,1 0,-3A3,3 0 0,1 3,0Z" style="opacity: 1; stroke-width: 0px; fill: rgb(99, 110, 250); fill-opacity: 1;"/><path class="point" transform="translate(55.04,588.26)" d="M3,0A3,3 0 1,1 0,-3A3,3 0 0,1 3,0Z" style="opacity: 1; stroke-width: 0px; fill: rgb(99, 110, 250); fill-opacity: 1;"/><path class="point" transform="translate(61.69,585.85)" d="M3,0A3,3 0 1,1 0,-3A3,3 0 0,1 3,0Z" style="opacity: 1; stroke-width: 0px; fill: rgb(99, 110, 250); fill-opacity: 1;"/><path class="point" transform="translate(53.55,580.03)" d="M3,0A3,3 0 1,1 0,-3A3,3 0 0,1 3,0Z" style="opacity: 1; stroke-width: 0px; fill: rgb(99, 110, 250); fill-opacity: 1;"/><path class="point" transform="translate(56.86,555.78)" d="M3,0A3,3 0 1,1 0,-3A3,3 0 0,1 3,0Z" style="opacity: 1; stroke-width: 0px; fill: rgb(99, 110, 250); fill-opacity: 1;"/><path class="point" transform="translate(60.24,548.5)" d="M3,0A3,3 0 1,1 0,-3A3,3 0 0,1 3,0Z" style="opacity: 1; stroke-width: 0px; fill: rgb(99, 110, 250); fill-opacity: 1;"/><path class="point" transform="translate(57.77,544.17)" d="M3,0A3,3 0 1,1 0,-3A3,3 0 0,1 3,0Z" style="opacity: 1; stroke-width: 0px; fill: rgb(99, 110, 250); fill-opacity: 1;"/><path class="point" transform="translate(59.09,543.36)" d="M3,0A3,3 0 1,1 0,-3A3,3 0 0,1 3,0Z" style="opacity: 1; stroke-width: 0px; fill: rgb(99, 110, 250); fill-opacity: 1;"/><path class="point" transform="translate(56.64,543.08)" d="M3,0A3,3 0 1,1 0,-3A3,3 0 0,1 3,0Z" style="opacity: 1; stroke-width: 0px; fill: rgb(99, 110, 250); fill-opacity: 1;"/><path class="point" transform="translate(54.52,515.61)" d="M3,0A3,3 0 1,1 0,-3A3,3 0 0,1 3,0Z" style="opacity: 1; stroke-width: 0px; fill: rgb(99, 110, 250); fill-opacity: 1;"/><path class="point" transform="translate(59.22,510.45)" d="M3,0A3,3 0 1,1 0,-3A3,3 0 0,1 3,0Z" style="opacity: 1; stroke-width: 0px; fill: rgb(99, 110, 250); fill-opacity: 1;"/><path class="point" transform="translate(56.42,500.12)" d="M3,0A3,3 0 1,1 0,-3A3,3 0 0,1 3,0Z" style="opacity: 1; stroke-width: 0px; fill: rgb(99, 110, 250); fill-opacity: 1;"/><path class="point" transform="translate(60.4,492.06)" d="M3,0A3,3 0 1,1 0,-3A3,3 0 0,1 3,0Z" style="opacity: 1; stroke-width: 0px; fill: rgb(99, 110, 250); fill-opacity: 1;"/><path class="point" transform="translate(54.34,486.93)" d="M3,0A3,3 0 1,1 0,-3A3,3 0 0,1 3,0Z" style="opacity: 1; stroke-width: 0px; fill: rgb(99, 110, 250); fill-opacity: 1;"/><path class="point" transform="translate(55.48,485.14)" d="M3,0A3,3 0 1,1 0,-3A3,3 0 0,1 3,0Z" style="opacity: 1; stroke-width: 0px; fill: rgb(99, 110, 250); fill-opacity: 1;"/><path class="point" transform="translate(61.72,483.93)" d="M3,0A3,3 0 1,1 0,-3A3,3 0 0,1 3,0Z" style="opacity: 1; stroke-width: 0px; fill: rgb(99, 110, 250); fill-opacity: 1;"/><path class="point" transform="translate(56.8,471.21)" d="M3,0A3,3 0 1,1 0,-3A3,3 0 0,1 3,0Z" style="opacity: 1; stroke-width: 0px; fill: rgb(99, 110, 250); fill-opacity: 1;"/><path class="point" transform="translate(54.41,443.07)" d="M3,0A3,3 0 1,1 0,-3A3,3 0 0,1 3,0Z" style="opacity: 1; stroke-width: 0px; fill: rgb(99, 110, 250); fill-opacity: 1;"/><path class="point" transform="translate(56.55,430.86)" d="M3,0A3,3 0 1,1 0,-3A3,3 0 0,1 3,0Z" style="opacity: 1; stroke-width: 0px; fill: rgb(99, 110, 250); fill-opacity: 1;"/><path class="point" transform="translate(57.85,430.22)" d="M3,0A3,3 0 1,1 0,-3A3,3 0 0,1 3,0Z" style="opacity: 1; stroke-width: 0px; fill: rgb(99, 110, 250); fill-opacity: 1;"/><path class="point" transform="translate(59.37,427.62)" d="M3,0A3,3 0 1,1 0,-3A3,3 0 0,1 3,0Z" style="opacity: 1; stroke-width: 0px; fill: rgb(99, 110, 250); fill-opacity: 1;"/><path class="point" transform="translate(58.27,424.24)" d="M3,0A3,3 0 1,1 0,-3A3,3 0 0,1 3,0Z" style="opacity: 1; stroke-width: 0px; fill: rgb(99, 110, 250); fill-opacity: 1;"/><path class="point" transform="translate(57,401.06)" d="M3,0A3,3 0 1,1 0,-3A3,3 0 0,1 3,0Z" style="opacity: 1; stroke-width: 0px; fill: rgb(99, 110, 250); fill-opacity: 1;"/><path class="point" transform="translate(55.22,398.65)" d="M3,0A3,3 0 1,1 0,-3A3,3 0 0,1 3,0Z" style="opacity: 1; stroke-width: 0px; fill: rgb(99, 110, 250); fill-opacity: 1;"/><path class="point" transform="translate(57.92,365.62)" d="M3,0A3,3 0 1,1 0,-3A3,3 0 0,1 3,0Z" style="opacity: 1; stroke-width: 0px; fill: rgb(99, 110, 250); fill-opacity: 1;"/><path class="point" transform="translate(57.17,336.77)" d="M3,0A3,3 0 1,1 0,-3A3,3 0 0,1 3,0Z" style="opacity: 1; stroke-width: 0px; fill: rgb(99, 110, 250); fill-opacity: 1;"/><path class="point" transform="translate(59.08,308.81)" d="M3,0A3,3 0 1,1 0,-3A3,3 0 0,1 3,0Z" style="opacity: 1; stroke-width: 0px; fill: rgb(99, 110, 250); fill-opacity: 1;"/><path class="point" transform="translate(57.71,302.9)" d="M3,0A3,3 0 1,1 0,-3A3,3 0 0,1 3,0Z" style="opacity: 1; stroke-width: 0px; fill: rgb(99, 110, 250); fill-opacity: 1;"/><path class="point" transform="translate(56.41,285.43)" d="M3,0A3,3 0 1,1 0,-3A3,3 0 0,1 3,0Z" style="opacity: 1; stroke-width: 0px; fill: rgb(99, 110, 250); fill-opacity: 1;"/><path class="point" transform="translate(55.73,206.09)" d="M3,0A3,3 0 1,1 0,-3A3,3 0 0,1 3,0Z" style="opacity: 1; stroke-width: 0px; fill: rgb(99, 110, 250); fill-opacity: 1;"/><path class="point" transform="translate(59.26,200.62)" d="M3,0A3,3 0 1,1 0,-3A3,3 0 0,1 3,0Z" style="opacity: 1; stroke-width: 0px; fill: rgb(99, 110, 250); fill-opacity: 1;"/></g><g class="points"><path class="point" transform="translate(194.8,500.37)" d="M3,0A3,3 0 1,1 0,-3A3,3 0 0,1 3,0Z" style="opacity: 1; stroke-width: 0px; fill: rgb(99, 110, 250); fill-opacity: 1;"/><path class="point" transform="translate(201.35,414.08)" d="M3,0A3,3 0 1,1 0,-3A3,3 0 0,1 3,0Z" style="opacity: 1; stroke-width: 0px; fill: rgb(99, 110, 250); fill-opacity: 1;"/><path class="point" transform="translate(199.65,363.11)" d="M3,0A3,3 0 1,1 0,-3A3,3 0 0,1 3,0Z" style="opacity: 1; stroke-width: 0px; fill: rgb(99, 110, 250); fill-opacity: 1;"/><path class="point" transform="translate(197.31,344.35)" d="M3,0A3,3 0 1,1 0,-3A3,3 0 0,1 3,0Z" style="opacity: 1; stroke-width: 0px; fill: rgb(99, 110, 250); fill-opacity: 1;"/><path class="point" transform="translate(195.99,325.19)" d="M3,0A3,3 0 1,1 0,-3A3,3 0 0,1 3,0Z" style="opacity: 1; stroke-width: 0px; fill: rgb(99, 110, 250); fill-opacity: 1;"/><path class="point" transform="translate(200.7,301.81)" d="M3,0A3,3 0 1,1 0,-3A3,3 0 0,1 3,0Z" style="opacity: 1; stroke-width: 0px; fill: rgb(99, 110, 250); fill-opacity: 1;"/><path class="point" transform="translate(198.11,262.45)" d="M3,0A3,3 0 1,1 0,-3A3,3 0 0,1 3,0Z" style="opacity: 1; stroke-width: 0px; fill: rgb(99, 110, 250); fill-opacity: 1;"/></g><g class="points"><path class="point" transform="translate(342.95,589)" d="M3,0A3,3 0 1,1 0,-3A3,3 0 0,1 3,0Z" style="opacity: 1; stroke-width: 0px; fill: rgb(99, 110, 250); fill-opacity: 1;"/><path class="point" transform="translate(338.13,588.63)" d="M3,0A3,3 0 1,1 0,-3A3,3 0 0,1 3,0Z" style="opacity: 1; stroke-width: 0px; fill: rgb(99, 110, 250); fill-opacity: 1;"/><path class="point" transform="translate(340.44,588.63)" d="M3,0A3,3 0 1,1 0,-3A3,3 0 0,1 3,0Z" style="opacity: 1; stroke-width: 0px; fill: rgb(99, 110, 250); fill-opacity: 1;"/><path class="point" transform="translate(339.29,588.63)" d="M3,0A3,3 0 1,1 0,-3A3,3 0 0,1 3,0Z" style="opacity: 1; stroke-width: 0px; fill: rgb(99, 110, 250); fill-opacity: 1;"/><path class="point" transform="translate(338.84,588.63)" d="M3,0A3,3 0 1,1 0,-3A3,3 0 0,1 3,0Z" style="opacity: 1; stroke-width: 0px; fill: rgb(99, 110, 250); fill-opacity: 1;"/><path class="point" transform="translate(338.35,588.26)" d="M3,0A3,3 0 1,1 0,-3A3,3 0 0,1 3,0Z" style="opacity: 1; stroke-width: 0px; fill: rgb(99, 110, 250); fill-opacity: 1;"/><path class="point" transform="translate(339,509.15)" d="M3,0A3,3 0 1,1 0,-3A3,3 0 0,1 3,0Z" style="opacity: 1; stroke-width: 0px; fill: rgb(99, 110, 250); fill-opacity: 1;"/><path class="point" transform="translate(340.04,508.71)" d="M3,0A3,3 0 1,1 0,-3A3,3 0 0,1 3,0Z" style="opacity: 1; stroke-width: 0px; fill: rgb(99, 110, 250); fill-opacity: 1;"/><path class="point" transform="translate(339.19,463.92)" d="M3,0A3,3 0 1,1 0,-3A3,3 0 0,1 3,0Z" style="opacity: 1; stroke-width: 0px; fill: rgb(99, 110, 250); fill-opacity: 1;"/><path class="point" transform="translate(338.76,456.28)" d="M3,0A3,3 0 1,1 0,-3A3,3 0 0,1 3,0Z" style="opacity: 1; stroke-width: 0px; fill: rgb(99, 110, 250); fill-opacity: 1;"/><path class="point" transform="translate(339.77,324.38)" d="M3,0A3,3 0 1,1 0,-3A3,3 0 0,1 3,0Z" style="opacity: 1; stroke-width: 0px; fill: rgb(99, 110, 250); fill-opacity: 1;"/></g><g class="points"><path class="point" transform="translate(477.37,517.58)" d="M3,0A3,3 0 1,1 0,-3A3,3 0 0,1 3,0Z" style="opacity: 1; stroke-width: 0px; fill: rgb(99, 110, 250); fill-opacity: 1;"/><path class="point" transform="translate(480.14,373.63)" d="M3,0A3,3 0 1,1 0,-3A3,3 0 0,1 3,0Z" style="opacity: 1; stroke-width: 0px; fill: rgb(99, 110, 250); fill-opacity: 1;"/><path class="point" transform="translate(481.81,358.51)" d="M3,0A3,3 0 1,1 0,-3A3,3 0 0,1 3,0Z" style="opacity: 1; stroke-width: 0px; fill: rgb(99, 110, 250); fill-opacity: 1;"/><path class="point" transform="translate(476.35,352.51)" d="M3,0A3,3 0 1,1 0,-3A3,3 0 0,1 3,0Z" style="opacity: 1; stroke-width: 0px; fill: rgb(99, 110, 250); fill-opacity: 1;"/><path class="point" transform="translate(483.8,334.92)" d="M3,0A3,3 0 1,1 0,-3A3,3 0 0,1 3,0Z" style="opacity: 1; stroke-width: 0px; fill: rgb(99, 110, 250); fill-opacity: 1;"/><path class="point" transform="translate(481.76,286.79)" d="M3,0A3,3 0 1,1 0,-3A3,3 0 0,1 3,0Z" style="opacity: 1; stroke-width: 0px; fill: rgb(99, 110, 250); fill-opacity: 1;"/><path class="point" transform="translate(476.39,31)" d="M3,0A3,3 0 1,1 0,-3A3,3 0 0,1 3,0Z" style="opacity: 1; stroke-width: 0px; fill: rgb(99, 110, 250); fill-opacity: 1;"/></g></g><g class="trace violins" style="opacity: 1;"><path class="violin" d="M139.16,588.63Q139.85,575.27 140.13,568.58C140.41,561.9 140.64,555.21 140.82,548.52C141,541.83 141.12,535.15 141.22,528.46C141.32,521.78 141.36,515.09 141.4,508.41C141.44,501.72 141.46,495.04 141.48,488.35C141.5,481.66 141.5,474.98 141.5,468.29C141.5,461.61 141.5,454.92 141.49,448.24C141.48,441.55 141.46,434.87 141.41,428.18C141.37,421.5 141.3,414.81 141.22,408.13C141.13,401.44 141.03,394.76 140.9,388.07C140.77,381.38 140.62,374.7 140.44,368.01C140.26,361.33 140.06,354.64 139.84,347.96C139.62,341.27 139.38,334.59 139.13,327.9C138.88,321.21 138.61,314.53 138.34,307.84C138.07,301.16 137.79,294.47 137.51,287.79C137.23,281.1 136.95,274.42 136.68,267.73C136.41,261.04 136.15,254.36 135.91,247.67Q135.67,240.99 135.22,227.62L130.87,227.62Q130.42,240.99 130.18,247.67C129.94,254.36 129.68,261.04 129.41,267.73C129.14,274.42 128.86,281.1 128.58,287.79C128.3,294.47 128.02,301.16 127.75,307.84C127.48,314.53 127.21,321.21 126.96,327.9C126.71,334.59 126.47,341.27 126.25,347.96C126.03,354.64 125.83,361.33 125.65,368.01C125.47,374.7 125.32,381.38 125.19,388.07C125.06,394.76 124.95,401.44 124.86,408.13C124.78,414.81 124.72,421.5 124.68,428.18C124.64,434.87 124.61,441.55 124.6,448.24C124.59,454.92 124.59,461.61 124.59,468.29C124.59,474.98 124.6,481.66 124.61,488.35C124.62,495.04 124.64,501.72 124.68,508.41C124.72,515.09 124.77,521.78 124.87,528.46C124.97,535.15 125.09,541.83 125.27,548.52C125.45,555.21 125.67,561.9 125.95,568.58Q126.23,575.27 126.93,588.63Z" style="vector-effect: non-scaling-stroke; stroke-width: 2px; stroke: rgb(239, 85, 59); stroke-opacity: 1; fill: rgb(239, 85, 59); fill-opacity: 0.5;"/><path class="violin" d="M280.83,588.26Q282.11,578.89 282.72,574.21C283.33,569.53 283.95,564.85 284.51,560.16C285.07,555.48 285.61,550.8 286.08,546.11C286.55,541.43 286.97,536.75 287.32,532.06C287.67,527.38 287.96,522.7 288.16,518.01C288.36,513.33 288.5,508.64 288.53,503.96C288.56,499.28 288.52,494.59 288.37,489.91C288.22,485.23 287.96,480.54 287.62,475.86C287.28,471.17 286.81,466.49 286.31,461.81C285.8,457.12 285.19,452.44 284.59,447.76C283.98,443.07 283.3,438.39 282.68,433.71C282.06,429.03 281.42,424.35 280.86,419.66C280.3,414.98 279.77,410.3 279.32,405.62C278.87,400.94 278.49,396.26 278.17,391.57C277.85,386.89 277.61,382.2 277.39,377.52C277.17,372.84 277.02,368.15 276.87,363.47C276.72,358.79 276.6,354.1 276.47,349.42C276.34,344.74 276.21,340.05 276.08,335.37C275.94,330.69 275.8,326 275.66,321.32C275.52,316.64 275.37,311.95 275.24,307.27C275.11,302.59 274.98,297.9 274.89,293.22C274.8,288.54 274.72,283.85 274.68,279.17C274.64,274.49 274.64,269.8 274.67,265.12C274.7,260.44 274.76,255.75 274.84,251.07C274.92,246.39 275.03,241.7 275.14,237.02C275.25,232.34 275.38,227.65 275.48,222.97C275.58,218.29 275.69,213.6 275.75,208.92Q275.81,204.24 275.85,194.87L271.72,194.87Q271.76,204.24 271.82,208.92C271.88,213.6 271.98,218.29 272.08,222.97C272.18,227.65 272.32,232.34 272.43,237.02C272.54,241.7 272.65,246.39 272.73,251.07C272.81,255.75 272.88,260.44 272.9,265.12C272.92,269.8 272.92,274.49 272.88,279.17C272.84,283.85 272.77,288.54 272.68,293.22C272.59,297.9 272.45,302.59 272.32,307.27C272.19,311.95 272.04,316.64 271.9,321.32C271.76,326 271.62,330.69 271.48,335.37C271.35,340.05 271.22,344.74 271.09,349.42C270.96,354.1 270.85,358.79 270.7,363.47C270.55,368.15 270.4,372.84 270.18,377.52C269.96,382.2 269.72,386.89 269.4,391.57C269.08,396.26 268.7,400.94 268.25,405.62C267.8,410.3 267.27,414.98 266.71,419.66C266.15,424.35 265.51,429.03 264.89,433.71C264.27,438.39 263.59,443.07 262.98,447.76C262.37,452.44 261.76,457.12 261.25,461.81C260.75,466.49 260.29,471.17 259.95,475.86C259.61,480.54 259.35,485.23 259.2,489.91C259.05,494.59 259,499.28 259.03,503.96C259.06,508.64 259.21,513.33 259.41,518.01C259.61,522.69 259.9,527.38 260.25,532.06C260.6,536.75 261.02,541.43 261.49,546.11C261.96,550.8 262.49,555.48 263.05,560.16C263.61,564.85 264.24,569.53 264.85,574.21Q265.47,578.89 266.74,588.26Z" style="vector-effect: non-scaling-stroke; stroke-width: 2px; stroke: rgb(239, 85, 59); stroke-opacity: 1; fill: rgb(239, 85, 59); fill-opacity: 0.5;"/><path class="violin" d="M423.47,588.63Q424.42,579.27 424.83,574.59C425.24,569.91 425.6,565.23 425.93,560.55C426.26,555.87 426.55,551.19 426.82,546.51C427.09,541.83 427.34,537.15 427.54,532.47C427.75,527.79 427.93,523.1 428.05,518.42C428.17,513.74 428.26,509.06 428.25,504.38C428.24,499.7 428.16,495.02 427.99,490.34C427.82,485.66 427.55,480.98 427.2,476.3C426.85,471.62 426.4,466.94 425.91,462.26C425.42,457.58 424.83,452.9 424.28,448.22C423.72,443.54 423.12,438.85 422.58,434.17C422.04,429.49 421.51,424.81 421.06,420.13C420.61,415.45 420.22,410.77 419.9,406.09C419.58,401.41 419.33,396.73 419.13,392.05C418.93,387.37 418.81,382.69 418.7,378.01C418.59,373.33 418.54,368.64 418.47,363.96C418.41,359.28 418.37,354.6 418.31,349.92C418.25,345.24 418.19,340.56 418.1,335.88C418.01,331.2 417.91,326.52 417.79,321.84Q417.67,317.16 417.36,307.8L411.68,307.8Q411.37,317.16 411.25,321.84C411.13,326.52 411.03,331.2 410.94,335.88C410.85,340.56 410.79,345.24 410.73,349.92C410.67,354.6 410.63,359.28 410.57,363.96C410.5,368.64 410.45,373.33 410.34,378.01C410.23,382.69 410.11,387.37 409.91,392.05C409.71,396.73 409.47,401.41 409.15,406.09C408.83,410.77 408.44,415.45 407.99,420.13C407.54,424.81 407.01,429.49 406.47,434.17C405.93,438.85 405.32,443.54 404.76,448.22C404.2,452.9 403.62,457.58 403.13,462.26C402.64,466.94 402.19,471.62 401.84,476.3C401.49,480.98 401.22,485.66 401.05,490.34C400.88,495.02 400.81,499.7 400.8,504.38C400.79,509.06 400.87,513.74 400.99,518.42C401.11,523.1 401.3,527.79 401.51,532.47C401.72,537.15 401.96,541.83 402.23,546.51C402.5,551.19 402.79,555.87 403.12,560.55C403.45,565.23 403.81,569.91 404.22,574.59Q404.63,579.27 405.57,588.63Z" style="vector-effect: non-scaling-stroke; stroke-width: 2px; stroke: rgb(239, 85, 59); stroke-opacity: 1; fill: rgb(239, 85, 59); fill-opacity: 0.5;"/><path class="box" d="M128.73,446.97H137.35M128.73,532.63H137.35V358.85H128.73ZM133.04,532.63V588.63M133.04,358.85V227.62" style="vector-effect: non-scaling-stroke; stroke-width: 2px; stroke: rgb(239, 85, 59); stroke-opacity: 1; fill: rgb(239, 85, 59); fill-opacity: 0.5;"/><path class="box" d="M269.47,486.04H278.09M269.47,543.56H278.09V451.53H269.47ZM273.78,543.56V588.26M273.78,451.53V347.76" style="vector-effect: non-scaling-stroke; stroke-width: 2px; stroke: rgb(239, 85, 59); stroke-opacity: 1; fill: rgb(239, 85, 59); fill-opacity: 0.5;"/><path class="box" d="M410.21,507.16H418.83M410.21,556.34H418.83V459.33H410.21ZM414.52,556.34V588.63M414.52,459.33V348.93" style="vector-effect: non-scaling-stroke; stroke-width: 2px; stroke: rgb(239, 85, 59); stroke-opacity: 1; fill: rgb(239, 85, 59); fill-opacity: 0.5;"/><g class="points"><path class="point" transform="translate(109.67,588.63)" d="M3,0A3,3 0 1,1 0,-3A3,3 0 0,1 3,0Z" style="opacity: 1; stroke-width: 0px; fill: rgb(239, 85, 59); fill-opacity: 1;"/><path class="point" transform="translate(103.89,588.26)" d="M3,0A3,3 0 1,1 0,-3A3,3 0 0,1 3,0Z" style="opacity: 1; stroke-width: 0px; fill: rgb(239, 85, 59); fill-opacity: 1;"/><path class="point" transform="translate(110.59,586.69)" d="M3,0A3,3 0 1,1 0,-3A3,3 0 0,1 3,0Z" style="opacity: 1; stroke-width: 0px; fill: rgb(239, 85, 59); fill-opacity: 1;"/><path class="point" transform="translate(103.23,561.65)" d="M3,0A3,3 0 1,1 0,-3A3,3 0 0,1 3,0Z" style="opacity: 1; stroke-width: 0px; fill: rgb(239, 85, 59); fill-opacity: 1;"/><path class="point" transform="translate(106.06,556.81)" d="M3,0A3,3 0 1,1 0,-3A3,3 0 0,1 3,0Z" style="opacity: 1; stroke-width: 0px; fill: rgb(239, 85, 59); fill-opacity: 1;"/><path class="point" transform="translate(109.43,532.63)" d="M3,0A3,3 0 1,1 0,-3A3,3 0 0,1 3,0Z" style="opacity: 1; stroke-width: 0px; fill: rgb(239, 85, 59); fill-opacity: 1;"/><path class="point" transform="translate(107.03,530.87)" d="M3,0A3,3 0 1,1 0,-3A3,3 0 0,1 3,0Z" style="opacity: 1; stroke-width: 0px; fill: rgb(239, 85, 59); fill-opacity: 1;"/><path class="point" transform="translate(108.29,495.29)" d="M3,0A3,3 0 1,1 0,-3A3,3 0 0,1 3,0Z" style="opacity: 1; stroke-width: 0px; fill: rgb(239, 85, 59); fill-opacity: 1;"/><path class="point" transform="translate(105.87,494.49)" d="M3,0A3,3 0 1,1 0,-3A3,3 0 0,1 3,0Z" style="opacity: 1; stroke-width: 0px; fill: rgb(239, 85, 59); fill-opacity: 1;"/><path class="point" transform="translate(104.15,477.17)" d="M3,0A3,3 0 1,1 0,-3A3,3 0 0,1 3,0Z" style="opacity: 1; stroke-width: 0px; fill: rgb(239, 85, 59); fill-opacity: 1;"/><path class="point" transform="translate(108.36,448.24)" d="M3,0A3,3 0 1,1 0,-3A3,3 0 0,1 3,0Z" style="opacity: 1; stroke-width: 0px; fill: rgb(239, 85, 59); fill-opacity: 1;"/><path class="point" transform="translate(105.91,445.7)" d="M3,0A3,3 0 1,1 0,-3A3,3 0 0,1 3,0Z" style="opacity: 1; stroke-width: 0px; fill: rgb(239, 85, 59); fill-opacity: 1;"/><path class="point" transform="translate(109.81,410.24)" d="M3,0A3,3 0 1,1 0,-3A3,3 0 0,1 3,0Z" style="opacity: 1; stroke-width: 0px; fill: rgb(239, 85, 59); fill-opacity: 1;"/><path class="point" transform="translate(103.3,409.32)" d="M3,0A3,3 0 1,1 0,-3A3,3 0 0,1 3,0Z" style="opacity: 1; stroke-width: 0px; fill: rgb(239, 85, 59); fill-opacity: 1;"/><path class="point" transform="translate(104.97,406.28)" d="M3,0A3,3 0 1,1 0,-3A3,3 0 0,1 3,0Z" style="opacity: 1; stroke-width: 0px; fill: rgb(239, 85, 59); fill-opacity: 1;"/><path class="point" transform="translate(110.84,399.33)" d="M3,0A3,3 0 1,1 0,-3A3,3 0 0,1 3,0Z" style="opacity: 1; stroke-width: 0px; fill: rgb(239, 85, 59); fill-opacity: 1;"/><path class="point" transform="translate(106.32,358.85)" d="M3,0A3,3 0 1,1 0,-3A3,3 0 0,1 3,0Z" style="opacity: 1; stroke-width: 0px; fill: rgb(239, 85, 59); fill-opacity: 1;"/><path class="point" transform="translate(104.13,345.57)" d="M3,0A3,3 0 1,1 0,-3A3,3 0 0,1 3,0Z" style="opacity: 1; stroke-width: 0px; fill: rgb(239, 85, 59); fill-opacity: 1;"/><path class="point" transform="translate(106.07,333.03)" d="M3,0A3,3 0 1,1 0,-3A3,3 0 0,1 3,0Z" style="opacity: 1; stroke-width: 0px; fill: rgb(239, 85, 59); fill-opacity: 1;"/><path class="point" transform="translate(107.12,301.07)" d="M3,0A3,3 0 1,1 0,-3A3,3 0 0,1 3,0Z" style="opacity: 1; stroke-width: 0px; fill: rgb(239, 85, 59); fill-opacity: 1;"/><path class="point" transform="translate(108.53,297.66)" d="M3,0A3,3 0 1,1 0,-3A3,3 0 0,1 3,0Z" style="opacity: 1; stroke-width: 0px; fill: rgb(239, 85, 59); fill-opacity: 1;"/><path class="point" transform="translate(107.53,227.62)" d="M3,0A3,3 0 1,1 0,-3A3,3 0 0,1 3,0Z" style="opacity: 1; stroke-width: 0px; fill: rgb(239, 85, 59); fill-opacity: 1;"/></g><g class="points"><path class="point" transform="translate(246.68,588.26)" d="M3,0A3,3 0 1,1 0,-3A3,3 0 0,1 3,0Z" style="opacity: 1; stroke-width: 0px; fill: rgb(239, 85, 59); fill-opacity: 1;"/><path class="point" transform="translate(243.98,553.19)" d="M3,0A3,3 0 1,1 0,-3A3,3 0 0,1 3,0Z" style="opacity: 1; stroke-width: 0px; fill: rgb(239, 85, 59); fill-opacity: 1;"/><path class="point" transform="translate(247.91,544.98)" d="M3,0A3,3 0 1,1 0,-3A3,3 0 0,1 3,0Z" style="opacity: 1; stroke-width: 0px; fill: rgb(239, 85, 59); fill-opacity: 1;"/><path class="point" transform="translate(246.46,543.08)" d="M3,0A3,3 0 1,1 0,-3A3,3 0 0,1 3,0Z" style="opacity: 1; stroke-width: 0px; fill: rgb(239, 85, 59); fill-opacity: 1;"/><path class="point" transform="translate(250.33,520.06)" d="M3,0A3,3 0 1,1 0,-3A3,3 0 0,1 3,0Z" style="opacity: 1; stroke-width: 0px; fill: rgb(239, 85, 59); fill-opacity: 1;"/><path class="point" transform="translate(247.5,490.67)" d="M3,0A3,3 0 1,1 0,-3A3,3 0 0,1 3,0Z" style="opacity: 1; stroke-width: 0px; fill: rgb(239, 85, 59); fill-opacity: 1;"/><path class="point" transform="translate(245.11,486.04)" d="M3,0A3,3 0 1,1 0,-3A3,3 0 0,1 3,0Z" style="opacity: 1; stroke-width: 0px; fill: rgb(239, 85, 59); fill-opacity: 1;"/><path class="point" transform="translate(244.85,484.84)" d="M3,0A3,3 0 1,1 0,-3A3,3 0 0,1 3,0Z" style="opacity: 1; stroke-width: 0px; fill: rgb(239, 85, 59); fill-opacity: 1;"/><path class="point" transform="translate(249.69,466.69)" d="M3,0A3,3 0 1,1 0,-3A3,3 0 0,1 3,0Z" style="opacity: 1; stroke-width: 0px; fill: rgb(239, 85, 59); fill-opacity: 1;"/><path class="point" transform="translate(245.31,460.62)" d="M3,0A3,3 0 1,1 0,-3A3,3 0 0,1 3,0Z" style="opacity: 1; stroke-width: 0px; fill: rgb(239, 85, 59); fill-opacity: 1;"/><path class="point" transform="translate(249.7,424.24)" d="M3,0A3,3 0 1,1 0,-3A3,3 0 0,1 3,0Z" style="opacity: 1; stroke-width: 0px; fill: rgb(239, 85, 59); fill-opacity: 1;"/><path class="point" transform="translate(248.53,347.76)" d="M3,0A3,3 0 1,1 0,-3A3,3 0 0,1 3,0Z" style="opacity: 1; stroke-width: 0px; fill: rgb(239, 85, 59); fill-opacity: 1;"/><path class="point" transform="translate(247.16,194.87)" d="M3,0A3,3 0 1,1 0,-3A3,3 0 0,1 3,0Z" style="opacity: 1; stroke-width: 0px; fill: rgb(239, 85, 59); fill-opacity: 1;"/></g><g class="points"><path class="point" transform="translate(385.98,588.63)" d="M3,0A3,3 0 1,1 0,-3A3,3 0 0,1 3,0Z" style="opacity: 1; stroke-width: 0px; fill: rgb(239, 85, 59); fill-opacity: 1;"/><path class="point" transform="translate(390.81,588.63)" d="M3,0A3,3 0 1,1 0,-3A3,3 0 0,1 3,0Z" style="opacity: 1; stroke-width: 0px; fill: rgb(239, 85, 59); fill-opacity: 1;"/><path class="point" transform="translate(388.12,588.26)" d="M3,0A3,3 0 1,1 0,-3A3,3 0 0,1 3,0Z" style="opacity: 1; stroke-width: 0px; fill: rgb(239, 85, 59); fill-opacity: 1;"/><path class="point" transform="translate(392.21,571.23)" d="M3,0A3,3 0 1,1 0,-3A3,3 0 0,1 3,0Z" style="opacity: 1; stroke-width: 0px; fill: rgb(239, 85, 59); fill-opacity: 1;"/><path class="point" transform="translate(384.59,551.38)" d="M3,0A3,3 0 1,1 0,-3A3,3 0 0,1 3,0Z" style="opacity: 1; stroke-width: 0px; fill: rgb(239, 85, 59); fill-opacity: 1;"/><path class="point" transform="translate(391.76,522.1)" d="M3,0A3,3 0 1,1 0,-3A3,3 0 0,1 3,0Z" style="opacity: 1; stroke-width: 0px; fill: rgb(239, 85, 59); fill-opacity: 1;"/><path class="point" transform="translate(388.27,516.8)" d="M3,0A3,3 0 1,1 0,-3A3,3 0 0,1 3,0Z" style="opacity: 1; stroke-width: 0px; fill: rgb(239, 85, 59); fill-opacity: 1;"/><path class="point" transform="translate(386.85,513.38)" d="M3,0A3,3 0 1,1 0,-3A3,3 0 0,1 3,0Z" style="opacity: 1; stroke-width: 0px; fill: rgb(239, 85, 59); fill-opacity: 1;"/><path class="point" transform="translate(383.86,507.16)" d="M3,0A3,3 0 1,1 0,-3A3,3 0 0,1 3,0Z" style="opacity: 1; stroke-width: 0px; fill: rgb(239, 85, 59); fill-opacity: 1;"/><path class="point" transform="translate(387.05,484.23)" d="M3,0A3,3 0 1,1 0,-3A3,3 0 0,1 3,0Z" style="opacity: 1; stroke-width: 0px; fill: rgb(239, 85, 59); fill-opacity: 1;"/><path class="point" transform="translate(391.31,473.02)" d="M3,0A3,3 0 1,1 0,-3A3,3 0 0,1 3,0Z" style="opacity: 1; stroke-width: 0px; fill: rgb(239, 85, 59); fill-opacity: 1;"/><path class="point" transform="translate(387.8,468.99)" d="M3,0A3,3 0 1,1 0,-3A3,3 0 0,1 3,0Z" style="opacity: 1; stroke-width: 0px; fill: rgb(239, 85, 59); fill-opacity: 1;"/><path class="point" transform="translate(385.98,460.2)" d="M3,0A3,3 0 1,1 0,-3A3,3 0 0,1 3,0Z" style="opacity: 1; stroke-width: 0px; fill: rgb(239, 85, 59); fill-opacity: 1;"/><path class="point" transform="translate(390.26,456.72)" d="M3,0A3,3 0 1,1 0,-3A3,3 0 0,1 3,0Z" style="opacity: 1; stroke-width: 0px; fill: rgb(239, 85, 59); fill-opacity: 1;"/><path class="point" transform="translate(386.9,390.34)" d="M3,0A3,3 0 1,1 0,-3A3,3 0 0,1 3,0Z" style="opacity: 1; stroke-width: 0px; fill: rgb(239, 85, 59); fill-opacity: 1;"/><path class="point" transform="translate(388.66,348.93)" d="M3,0A3,3 0 1,1 0,-3A3,3 0 0,1 3,0Z" style="opacity: 1; stroke-width: 0px; fill: rgb(239, 85, 59); fill-opacity: 1;"/><path class="point" transform="translate(389.9,307.8)" d="M3,0A3,3 0 1,1 0,-3A3,3 0 0,1 3,0Z" style="opacity: 1; stroke-width: 0px; fill: rgb(239, 85, 59); fill-opacity: 1;"/></g></g></g></g><g class="overplot"/><path class="xlines-above crisp" d="M0,0" style="fill: none;"/><path class="ylines-above crisp" d="M0,0" style="fill: none;"/><g class="overlines-above"/><g class="xaxislayer-above"><g class="xtick"><text text-anchor="middle" x="0" y="733" transform="translate(188.42000000000002,0)" style="font-family: 'Open Sans', verdana, arial, sans-serif; font-size: 12px; fill: rgb(42, 63, 95); fill-opacity: 1; white-space: pre; opacity: 1;">Unclear</text></g><g class="xtick"><text text-anchor="middle" x="0" y="733" transform="translate(329.15,0)" style="font-family: 'Open Sans', verdana, arial, sans-serif; font-size: 12px; fill: rgb(42, 63, 95); fill-opacity: 1; white-space: pre; opacity: 1;">Hypothesis-driven</text></g><g class="xtick"><text text-anchor="middle" x="0" y="733" transform="translate(469.89,0)" style="font-family: 'Open Sans', verdana, arial, sans-serif; font-size: 12px; fill: rgb(42, 63, 95); fill-opacity: 1; white-space: pre; opacity: 1;">Docking</text></g><g class="xtick"><text text-anchor="middle" x="0" y="733" transform="translate(610.63,0)" style="font-family: 'Open Sans', verdana, arial, sans-serif; font-size: 12px; fill: rgb(42, 63, 95); fill-opacity: 1; white-space: pre; opacity: 1;">Prior SARS inhibitor</text></g></g><g class="yaxislayer-above"><g class="ytick"><text text-anchor="end" x="79" y="4.199999999999999" transform="translate(0,689)" style="font-family: 'Open Sans', verdana, arial, sans-serif; font-size: 12px; fill: rgb(42, 63, 95); fill-opacity: 1; white-space: pre; opacity: 1;">4</text></g><g class="ytick"><text text-anchor="end" x="79" y="4.199999999999999" style="font-family: 'Open Sans', verdana, arial, sans-serif; font-size: 12px; fill: rgb(42, 63, 95); fill-opacity: 1; white-space: pre; opacity: 1;" transform="translate(0,604.48)">4.5</text></g><g class="ytick"><text text-anchor="end" x="79" y="4.199999999999999" style="font-family: 'Open Sans', verdana, arial, sans-serif; font-size: 12px; fill: rgb(42, 63, 95); fill-opacity: 1; white-space: pre; opacity: 1;" transform="translate(0,519.96)">5</text></g><g class="ytick"><text text-anchor="end" x="79" y="4.199999999999999" style="font-family: 'Open Sans', verdana, arial, sans-serif; font-size: 12px; fill: rgb(42, 63, 95); fill-opacity: 1; white-space: pre; opacity: 1;" transform="translate(0,435.44)">5.5</text></g><g class="ytick"><text text-anchor="end" x="79" y="4.199999999999999" style="font-family: 'Open Sans', verdana, arial, sans-serif; font-size: 12px; fill: rgb(42, 63, 95); fill-opacity: 1; white-space: pre; opacity: 1;" transform="translate(0,350.91999999999996)">6</text></g><g class="ytick"><text text-anchor="end" x="79" y="4.199999999999999" style="font-family: 'Open Sans', verdana, arial, sans-serif; font-size: 12px; fill: rgb(42, 63, 95); fill-opacity: 1; white-space: pre; opacity: 1;" transform="translate(0,266.4)">6.5</text></g><g class="ytick"><text text-anchor="end" x="79" y="4.199999999999999" style="font-family: 'Open Sans', verdana, arial, sans-serif; font-size: 12px; fill: rgb(42, 63, 95); fill-opacity: 1; white-space: pre; opacity: 1;" transform="translate(0,181.89)">7</text></g></g><g class="overaxes-above"/></g></g><g class="polarlayer"/><g class="smithlayer"/><g class="ternarylayer"/><g class="geolayer"/><g class="funnelarealayer"/><g class="pielayer"/><g class="iciclelayer"/><g class="treemaplayer"/><g class="sunburstlayer"/><g class="glimages"/><defs id="topdefs-c3967d"><g class="clips"/><clipPath id="legendc3967d"><rect width="95" height="67" x="0" y="0"/></clipPath></defs><g class="layer-above"><g class="imagelayer"/><g class="shapelayer"/></g><g class="infolayer"><g class="legend" pointer-events="all" transform="translate(693.02,100)"><rect class="bg" shape-rendering="crispEdges" width="95" height="67" x="0" y="0" style="stroke: rgb(68, 68, 68); stroke-opacity: 1; fill: rgb(255, 255, 255); fill-opacity: 1; stroke-width: 0px;"/><g class="scrollbox" transform="" clip-path="url(#legendc3967d)"><text class="legendtitletext" text-anchor="start" x="2" y="18.2" style="font-family: 'Open Sans', verdana, arial, sans-serif; font-size: 14px; fill: rgb(42, 63, 95); fill-opacity: 1; white-space: pre;">category</text><g class="groups" transform=""><g class="traces" transform="translate(0,32.7)" style="opacity: 1;"><text class="legendtext" text-anchor="start" x="40" y="4.680000000000001" style="font-family: 'Open Sans', verdana, arial, sans-serif; font-size: 12px; fill: rgb(42, 63, 95); fill-opacity: 1; white-space: pre;">Core</text><g class="layers" style="opacity: 1;"><g class="legendfill"/><g class="legendlines"/><g class="legendsymbols"><g class="legendpoints"><path class="legendbox" d="M6,6H-6V-6H6Z" transform="translate(20,0)" style="stroke-width: 2px; fill: rgb(99, 110, 250); fill-opacity: 0.5; stroke: rgb(99, 110, 250); stroke-opacity: 1;"/></g></g></g><rect class="legendtoggle" x="0" y="-9.5" width="89.78125" height="19" style="fill: rgb(0, 0, 0); fill-opacity: 0;"/></g></g><g class="groups" transform=""><g class="traces" transform="translate(0,51.7)" style="opacity: 1;"><text class="legendtext" text-anchor="start" x="40" y="4.680000000000001" style="font-family: 'Open Sans', verdana, arial, sans-serif; font-size: 12px; fill: rgb(42, 63, 95); fill-opacity: 1; white-space: pre;">External</text><g class="layers" style="opacity: 1;"><g class="legendfill"/><g class="legendlines"/><g class="legendsymbols"><g class="legendpoints"><path class="legendbox" d="M6,6H-6V-6H6Z" transform="translate(20,0)" style="stroke-width: 2px; fill: rgb(239, 85, 59); fill-opacity: 0.5; stroke: rgb(239, 85, 59); stroke-opacity: 1;"/></g></g></g><rect class="legendtoggle" x="0" y="-9.5" width="89.78125" height="19" style="fill: rgb(0, 0, 0); fill-opacity: 0;"/></g></g></g><rect class="scrollbar" rx="20" ry="3" width="0" height="0" x="0" y="0" style="fill: rgb(128, 139, 164); fill-opacity: 1;"/></g><g class="g-gtitle"><text class="gtitle" x="40" y="50" text-anchor="start" dy="0em" style="font-family: 'Open Sans', verdana, arial, sans-serif; font-size: 17px; fill: rgb(42, 63, 95); opacity: 1; font-weight: normal; white-space: pre;">pIC50 by approach taken used (submitted prior to 01-08-2020)</text></g><g class="g-xtitle"><text class="xtitle" x="380.5" y="760.3" text-anchor="middle" style="font-family: 'Open Sans', verdana, arial, sans-serif; font-size: 14px; fill: rgb(42, 63, 95); opacity: 1; font-weight: normal; white-space: pre;">approach</text></g><g class="g-ytitle"><text class="ytitle" transform="rotate(-90,35.075,410)" x="35.075" y="410" text-anchor="middle" style="font-family: 'Open Sans', verdana, arial, sans-serif; font-size: 14px; fill: rgb(42, 63, 95); opacity: 1; font-weight: normal; white-space: pre;">pIC50</text></g></g></svg>