<svg class="main-svg" xmlns="http://www.w3.org/2000/svg" xmlns:xlink="http://www.w3.org/1999/xlink" width="400" height="300" style="" viewBox="0 0 800 600"><rect x="0" y="0" width="800" height="600" style="fill: rgb(255, 255, 255); fill-opacity: 1;"/><defs id="defs-44f846"><g class="clips"><clipPath id="clip44f846xyplot" class="plotclip"><rect width="492" height="420"/></clipPath><clipPath class="axesclip" id="clip44f846x"><rect x="80" y="0" width="492" height="600"/></clipPath><clipPath class="axesclip" id="clip44f846y"><rect x="0" y="100" width="800" height="420"/></clipPath><clipPath class="axesclip" id="clip44f846xy"><rect x="80" y="100" width="492" height="420"/></clipPath></g><g class="gradients"/><g class="patterns"/></defs><g class="bglayer"/><g class="layer-below"><g class="imagelayer"/><g class="shapelayer"/></g><g class="cartesianlayer"><g class="subplot xy"><g class="layer-subplot"><g class="shapelayer"/><g class="imagelayer"/></g><g class="minor-gridlayer"><g class="x"/><g class="y"/></g><g class="gridlayer"><g class="x"/><g class="y"><path class="ygrid crisp" transform="translate(0,499)" d="M80,0h492" style="stroke: rgb(235, 240, 248); stroke-opacity: 1; stroke-width: 1px;"/><path class="ygrid crisp" transform="translate(0,441.75)" d="M80,0h492" style="stroke: rgb(235, 240, 248); stroke-opacity: 1; stroke-width: 1px;"/><path class="ygrid crisp" transform="translate(0,384.49)" d="M80,0h492" style="stroke: rgb(235, 240, 248); stroke-opacity: 1; stroke-width: 1px;"/><path class="ygrid crisp" transform="translate(0,327.24)" d="M80,0h492" style="stroke: rgb(235, 240, 248); stroke-opacity: 1; stroke-width: 1px;"/><path class="ygrid crisp" transform="translate(0,269.98)" d="M80,0h492" style="stroke: rgb(235, 240, 248); stroke-opacity: 1; stroke-width: 1px;"/><path class="ygrid crisp" transform="translate(0,212.73000000000002)" d="M80,0h492" style="stroke: rgb(235, 240, 248); stroke-opacity: 1; stroke-width: 1px;"/><path class="ygrid crisp" transform="translate(0,155.47)" d="M80,0h492" style="stroke: rgb(235, 240, 248); stroke-opacity: 1; stroke-width: 1px;"/></g></g><g class="zerolinelayer"/><path class="xlines-below"/><path class="ylines-below"/><g class="overlines-below"/><g class="xaxislayer-below"/><g class="yaxislayer-below"/><g class="overaxes-below"/><g class="plot" transform="translate(80,100)" clip-path="url(#clip44f846xyplot)"><g class="violinlayer mlayer"><g class="trace violins" style="opacity: 1;"><path class="violin" d="M52.7,398.5Q53.61,389.46 53.96,384.93C54.31,380.41 54.61,375.89 54.78,371.36C54.95,366.84 55.02,362.31 54.99,357.79C54.96,353.27 54.8,348.74 54.6,344.22C54.4,339.7 54.09,335.17 53.79,330.65C53.49,326.13 53.12,321.6 52.81,317.08C52.5,312.55 52.18,308.03 51.93,303.5C51.68,298.98 51.48,294.45 51.33,289.93C51.18,285.41 51.09,280.88 51.03,276.36C50.97,271.84 50.97,267.31 50.94,262.79C50.92,258.27 50.92,253.74 50.88,249.22C50.84,244.7 50.81,240.17 50.72,235.65C50.63,231.13 50.51,226.6 50.36,222.08Q50.21,217.56 49.8,208.51L43.13,208.51Q42.72,217.56 42.57,222.08C42.42,226.6 42.3,231.13 42.21,235.65C42.12,240.17 42.08,244.7 42.05,249.22C42.02,253.74 42.02,258.27 42,262.79C41.97,267.31 41.97,271.84 41.9,276.36C41.83,280.88 41.75,285.41 41.6,289.93C41.45,294.45 41.25,298.98 41,303.5C40.75,308.03 40.43,312.55 40.12,317.08C39.81,321.6 39.44,326.13 39.14,330.65C38.84,335.17 38.53,339.7 38.33,344.22C38.13,348.74 37.98,353.27 37.95,357.79C37.92,362.31 37.99,366.84 38.16,371.36C38.33,375.89 38.62,380.41 38.97,384.93Q39.32,389.46 40.24,398.5Z" style="vector-effect: non-scaling-stroke; stroke-width: 2px; stroke: rgb(253, 138, 138); stroke-opacity: 1; fill: rgb(253, 138, 138); fill-opacity: 0.5;"/><path class="violin" d="M218.37,399Q218.52,391.09 218.44,387.14C218.36,383.19 218.12,379.23 217.86,375.28C217.6,371.32 217.23,367.37 216.9,363.42C216.57,359.47 216.19,355.52 215.88,351.57C215.57,347.62 215.27,343.66 215.02,339.71C214.77,335.76 214.58,331.8 214.4,327.85C214.23,323.9 214.1,319.94 213.97,315.99C213.85,312.04 213.75,308.08 213.65,304.13C213.55,300.18 213.46,296.22 213.37,292.27C213.28,288.32 213.19,284.36 213.1,280.41C213.01,276.46 212.93,272.5 212.85,268.55C212.77,264.6 212.7,260.65 212.63,256.7C212.56,252.75 212.51,248.79 212.45,244.84C212.39,240.89 212.34,236.93 212.28,232.98C212.22,229.03 212.17,225.07 212.1,221.12C212.03,217.17 211.96,213.21 211.88,209.26C211.8,205.31 211.71,201.35 211.62,197.4C211.53,193.45 211.43,189.49 211.34,185.54C211.25,181.59 211.15,177.63 211.06,173.68C210.97,169.73 210.89,165.78 210.82,161.83C210.75,157.88 210.68,153.92 210.62,149.97C210.56,146.02 210.51,142.06 210.46,138.11C210.41,134.16 210.36,130.2 210.31,126.25Q210.26,122.3 210.16,114.39L208.77,114.39Q208.67,122.3 208.62,126.25C208.57,130.2 208.52,134.16 208.47,138.11C208.42,142.06 208.37,146.02 208.31,149.97C208.25,153.92 208.18,157.88 208.11,161.83C208.04,165.78 207.96,169.73 207.87,173.68C207.78,177.63 207.68,181.59 207.59,185.54C207.5,189.49 207.4,193.45 207.31,197.4C207.22,201.35 207.13,205.31 207.05,209.26C206.97,213.21 206.9,217.17 206.83,221.12C206.76,225.07 206.71,229.03 206.65,232.98C206.59,236.93 206.55,240.89 206.49,244.84C206.43,248.79 206.37,252.75 206.3,256.7C206.23,260.65 206.17,264.6 206.09,268.55C206.01,272.5 205.92,276.46 205.83,280.41C205.74,284.36 205.65,288.32 205.56,292.27C205.47,296.22 205.38,300.18 205.28,304.13C205.18,308.08 205.08,312.04 204.96,315.99C204.83,319.94 204.7,323.9 204.53,327.85C204.35,331.8 204.15,335.76 203.91,339.71C203.66,343.66 203.37,347.62 203.06,351.57C202.75,355.52 202.37,359.47 202.04,363.42C201.71,367.37 201.34,371.32 201.08,375.28C200.82,379.23 200.58,383.19 200.49,387.14Q200.4,391.09 200.56,399Z" style="vector-effect: non-scaling-stroke; stroke-width: 2px; stroke: rgb(253, 138, 138); stroke-opacity: 1; fill: rgb(253, 138, 138); fill-opacity: 0.5;"/><path class="violin" d="M379.34,399Q379.61,390.52 379.63,386.28C379.65,382.04 379.56,377.79 379.45,373.55C379.34,369.31 379.15,365.07 378.98,360.83C378.8,356.59 378.58,352.35 378.4,348.11C378.21,343.87 378.03,339.62 377.87,335.38C377.71,331.14 377.58,326.9 377.45,322.66C377.33,318.42 377.22,314.18 377.12,309.94C377.02,305.7 376.95,301.45 376.87,297.21C376.79,292.97 376.71,288.73 376.63,284.49C376.55,280.25 376.47,276.01 376.39,271.77C376.31,267.53 376.22,263.28 376.13,259.04C376.04,254.8 375.93,250.56 375.83,246.32C375.73,242.08 375.62,237.84 375.52,233.6C375.41,229.36 375.3,225.11 375.2,220.87C375.1,216.63 375.01,212.39 374.92,208.15C374.84,203.91 374.76,199.67 374.69,195.43C374.62,191.19 374.56,186.94 374.5,182.7C374.44,178.46 374.4,174.22 374.35,169.98C374.31,165.74 374.26,161.5 374.23,157.26C374.19,153.02 374.17,148.77 374.14,144.53C374.12,140.29 374.1,136.05 374.08,131.81C374.06,127.57 374.04,123.33 374.01,119.09C373.98,114.85 373.95,110.6 373.91,106.36C373.87,102.12 373.82,97.88 373.76,93.64C373.7,89.4 373.64,85.16 373.57,80.92C373.5,76.68 373.42,72.43 373.34,68.19Q373.26,63.95 373.11,55.47L371.83,55.47Q371.68,63.95 371.6,68.19C371.52,72.43 371.44,76.68 371.37,80.92C371.3,85.16 371.23,89.4 371.17,93.64C371.11,97.88 371.06,102.12 371.02,106.36C370.98,110.6 370.95,114.85 370.92,119.09C370.89,123.33 370.88,127.57 370.86,131.81C370.84,136.05 370.82,140.29 370.79,144.53C370.76,148.77 370.73,153.02 370.7,157.26C370.67,161.5 370.63,165.74 370.59,169.98C370.54,174.22 370.49,178.46 370.43,182.7C370.37,186.94 370.31,191.19 370.24,195.43C370.17,199.67 370.09,203.91 370.01,208.15C369.92,212.39 369.83,216.63 369.73,220.87C369.63,225.11 369.53,229.36 369.42,233.6C369.32,237.84 369.2,242.08 369.1,246.32C369,250.56 368.9,254.8 368.81,259.04C368.72,263.28 368.63,267.53 368.54,271.77C368.46,276.01 368.38,280.25 368.3,284.49C368.22,288.73 368.15,292.97 368.07,297.21C367.99,301.45 367.91,305.7 367.81,309.94C367.71,314.18 367.61,318.42 367.49,322.66C367.36,326.9 367.22,331.14 367.06,335.38C366.9,339.62 366.71,343.87 366.53,348.11C366.35,352.35 366.14,356.59 365.96,360.83C365.79,365.07 365.59,369.31 365.48,373.55C365.37,377.79 365.28,382.04 365.3,386.28Q365.32,390.52 365.59,399Z" style="vector-effect: non-scaling-stroke; stroke-width: 2px; stroke: rgb(253, 138, 138); stroke-opacity: 1; fill: rgb(253, 138, 138); fill-opacity: 0.5;"/><path class="box" d="M43.14,341.7H49.79M43.14,370.1H49.79V258.83H43.14ZM46.47,370.1V398.5M46.47,258.83V208.51" style="vector-effect: non-scaling-stroke; stroke-width: 2px; stroke: rgb(253, 138, 138); stroke-opacity: 1; fill: rgb(253, 138, 138); fill-opacity: 0.5;"/><path class="box" d="M206.14,378.54H212.79M206.14,398.75H212.79V288.53H206.14ZM209.47,398.75V399M209.47,288.53V135.91" style="vector-effect: non-scaling-stroke; stroke-width: 2px; stroke: rgb(253, 138, 138); stroke-opacity: 1; fill: rgb(253, 138, 138); fill-opacity: 0.5;"/><path class="box" d="M369.14,328.74H375.79M369.14,398.75H375.79V251.05H369.14ZM372.47,398.75V399M372.47,251.05V55.47" style="vector-effect: non-scaling-stroke; stroke-width: 2px; stroke: rgb(253, 138, 138); stroke-opacity: 1; fill: rgb(253, 138, 138); fill-opacity: 0.5;"/><g class="points"><path class="point" transform="translate(28.43,398.5)" d="M3,0A3,3 0 1,1 0,-3A3,3 0 0,1 3,0Z" style="opacity: 1; stroke-width: 0px; fill: rgb(253, 138, 138); fill-opacity: 1;"/><path class="point" transform="translate(24.04,376.49)" d="M3,0A3,3 0 1,1 0,-3A3,3 0 0,1 3,0Z" style="opacity: 1; stroke-width: 0px; fill: rgb(253, 138, 138); fill-opacity: 1;"/><path class="point" transform="translate(29.6,371.57)" d="M3,0A3,3 0 1,1 0,-3A3,3 0 0,1 3,0Z" style="opacity: 1; stroke-width: 0px; fill: rgb(253, 138, 138); fill-opacity: 1;"/><path class="point" transform="translate(23.91,368.63)" d="M3,0A3,3 0 1,1 0,-3A3,3 0 0,1 3,0Z" style="opacity: 1; stroke-width: 0px; fill: rgb(253, 138, 138); fill-opacity: 1;"/><path class="point" transform="translate(25.77,368.08)" d="M3,0A3,3 0 1,1 0,-3A3,3 0 0,1 3,0Z" style="opacity: 1; stroke-width: 0px; fill: rgb(253, 138, 138); fill-opacity: 1;"/><path class="point" transform="translate(28.07,344.61)" d="M3,0A3,3 0 1,1 0,-3A3,3 0 0,1 3,0Z" style="opacity: 1; stroke-width: 0px; fill: rgb(253, 138, 138); fill-opacity: 1;"/><path class="point" transform="translate(26.39,338.79)" d="M3,0A3,3 0 1,1 0,-3A3,3 0 0,1 3,0Z" style="opacity: 1; stroke-width: 0px; fill: rgb(253, 138, 138); fill-opacity: 1;"/><path class="point" transform="translate(27.33,333.33)" d="M3,0A3,3 0 1,1 0,-3A3,3 0 0,1 3,0Z" style="opacity: 1; stroke-width: 0px; fill: rgb(253, 138, 138); fill-opacity: 1;"/><path class="point" transform="translate(25.63,271.69)" d="M3,0A3,3 0 1,1 0,-3A3,3 0 0,1 3,0Z" style="opacity: 1; stroke-width: 0px; fill: rgb(253, 138, 138); fill-opacity: 1;"/><path class="point" transform="translate(24.63,245.98)" d="M3,0A3,3 0 1,1 0,-3A3,3 0 0,1 3,0Z" style="opacity: 1; stroke-width: 0px; fill: rgb(253, 138, 138); fill-opacity: 1;"/><path class="point" transform="translate(27.18,233.27)" d="M3,0A3,3 0 1,1 0,-3A3,3 0 0,1 3,0Z" style="opacity: 1; stroke-width: 0px; fill: rgb(253, 138, 138); fill-opacity: 1;"/><path class="point" transform="translate(25.71,208.51)" d="M3,0A3,3 0 1,1 0,-3A3,3 0 0,1 3,0Z" style="opacity: 1; stroke-width: 0px; fill: rgb(253, 138, 138); fill-opacity: 1;"/></g><g class="points"><path class="point" transform="translate(192.03,399)" d="M3,0A3,3 0 1,1 0,-3A3,3 0 0,1 3,0Z" style="opacity: 1; stroke-width: 0px; fill: rgb(253, 138, 138); fill-opacity: 1;"/><path class="point" transform="translate(185.61,398.75)" d="M3,0A3,3 0 1,1 0,-3A3,3 0 0,1 3,0Z" style="opacity: 1; stroke-width: 0px; fill: rgb(253, 138, 138); fill-opacity: 1;"/><path class="point" transform="translate(187.19,398.75)" d="M3,0A3,3 0 1,1 0,-3A3,3 0 0,1 3,0Z" style="opacity: 1; stroke-width: 0px; fill: rgb(253, 138, 138); fill-opacity: 1;"/><path class="point" transform="translate(193.03,398.75)" d="M3,0A3,3 0 1,1 0,-3A3,3 0 0,1 3,0Z" style="opacity: 1; stroke-width: 0px; fill: rgb(253, 138, 138); fill-opacity: 1;"/><path class="point" transform="translate(188.5,398.75)" d="M3,0A3,3 0 1,1 0,-3A3,3 0 0,1 3,0Z" style="opacity: 1; stroke-width: 0px; fill: rgb(253, 138, 138); fill-opacity: 1;"/><path class="point" transform="translate(186.07,398.75)" d="M3,0A3,3 0 1,1 0,-3A3,3 0 0,1 3,0Z" style="opacity: 1; stroke-width: 0px; fill: rgb(253, 138, 138); fill-opacity: 1;"/><path class="point" transform="translate(188.18,398.75)" d="M3,0A3,3 0 1,1 0,-3A3,3 0 0,1 3,0Z" style="opacity: 1; stroke-width: 0px; fill: rgb(253, 138, 138); fill-opacity: 1;"/><path class="point" transform="translate(189.41,398.75)" d="M3,0A3,3 0 1,1 0,-3A3,3 0 0,1 3,0Z" style="opacity: 1; stroke-width: 0px; fill: rgb(253, 138, 138); fill-opacity: 1;"/><path class="point" transform="translate(191.3,398.75)" d="M3,0A3,3 0 1,1 0,-3A3,3 0 0,1 3,0Z" style="opacity: 1; stroke-width: 0px; fill: rgb(253, 138, 138); fill-opacity: 1;"/><path class="point" transform="translate(189.94,398.75)" d="M3,0A3,3 0 1,1 0,-3A3,3 0 0,1 3,0Z" style="opacity: 1; stroke-width: 0px; fill: rgb(253, 138, 138); fill-opacity: 1;"/><path class="point" transform="translate(188.37,398.75)" d="M3,0A3,3 0 1,1 0,-3A3,3 0 0,1 3,0Z" style="opacity: 1; stroke-width: 0px; fill: rgb(253, 138, 138); fill-opacity: 1;"/><path class="point" transform="translate(186.16,398.75)" d="M3,0A3,3 0 1,1 0,-3A3,3 0 0,1 3,0Z" style="opacity: 1; stroke-width: 0px; fill: rgb(253, 138, 138); fill-opacity: 1;"/><path class="point" transform="translate(189.49,398.75)" d="M3,0A3,3 0 1,1 0,-3A3,3 0 0,1 3,0Z" style="opacity: 1; stroke-width: 0px; fill: rgb(253, 138, 138); fill-opacity: 1;"/><path class="point" transform="translate(188.33,398.75)" d="M3,0A3,3 0 1,1 0,-3A3,3 0 0,1 3,0Z" style="opacity: 1; stroke-width: 0px; fill: rgb(253, 138, 138); fill-opacity: 1;"/><path class="point" transform="translate(191.36,398.75)" d="M3,0A3,3 0 1,1 0,-3A3,3 0 0,1 3,0Z" style="opacity: 1; stroke-width: 0px; fill: rgb(253, 138, 138); fill-opacity: 1;"/><path class="point" transform="translate(189.14,398.75)" d="M3,0A3,3 0 1,1 0,-3A3,3 0 0,1 3,0Z" style="opacity: 1; stroke-width: 0px; fill: rgb(253, 138, 138); fill-opacity: 1;"/><path class="point" transform="translate(186.89,398.75)" d="M3,0A3,3 0 1,1 0,-3A3,3 0 0,1 3,0Z" style="opacity: 1; stroke-width: 0px; fill: rgb(253, 138, 138); fill-opacity: 1;"/><path class="point" transform="translate(185.77,398.75)" d="M3,0A3,3 0 1,1 0,-3A3,3 0 0,1 3,0Z" style="opacity: 1; stroke-width: 0px; fill: rgb(253, 138, 138); fill-opacity: 1;"/><path class="point" transform="translate(191.75,398.75)" d="M3,0A3,3 0 1,1 0,-3A3,3 0 0,1 3,0Z" style="opacity: 1; stroke-width: 0px; fill: rgb(253, 138, 138); fill-opacity: 1;"/><path class="point" transform="translate(186.09,398.75)" d="M3,0A3,3 0 1,1 0,-3A3,3 0 0,1 3,0Z" style="opacity: 1; stroke-width: 0px; fill: rgb(253, 138, 138); fill-opacity: 1;"/><path class="point" transform="translate(191.87,398.75)" d="M3,0A3,3 0 1,1 0,-3A3,3 0 0,1 3,0Z" style="opacity: 1; stroke-width: 0px; fill: rgb(253, 138, 138); fill-opacity: 1;"/><path class="point" transform="translate(190.37,398.75)" d="M3,0A3,3 0 1,1 0,-3A3,3 0 0,1 3,0Z" style="opacity: 1; stroke-width: 0px; fill: rgb(253, 138, 138); fill-opacity: 1;"/><path class="point" transform="translate(188.31,398.75)" d="M3,0A3,3 0 1,1 0,-3A3,3 0 0,1 3,0Z" style="opacity: 1; stroke-width: 0px; fill: rgb(253, 138, 138); fill-opacity: 1;"/><path class="point" transform="translate(187.13,398.75)" d="M3,0A3,3 0 1,1 0,-3A3,3 0 0,1 3,0Z" style="opacity: 1; stroke-width: 0px; fill: rgb(253, 138, 138); fill-opacity: 1;"/><path class="point" transform="translate(191.3,398.75)" d="M3,0A3,3 0 1,1 0,-3A3,3 0 0,1 3,0Z" style="opacity: 1; stroke-width: 0px; fill: rgb(253, 138, 138); fill-opacity: 1;"/><path class="point" transform="translate(189.07,398.75)" d="M3,0A3,3 0 1,1 0,-3A3,3 0 0,1 3,0Z" style="opacity: 1; stroke-width: 0px; fill: rgb(253, 138, 138); fill-opacity: 1;"/><path class="point" transform="translate(192.24,398.75)" d="M3,0A3,3 0 1,1 0,-3A3,3 0 0,1 3,0Z" style="opacity: 1; stroke-width: 0px; fill: rgb(253, 138, 138); fill-opacity: 1;"/><path class="point" transform="translate(186.14,398.75)" d="M3,0A3,3 0 1,1 0,-3A3,3 0 0,1 3,0Z" style="opacity: 1; stroke-width: 0px; fill: rgb(253, 138, 138); fill-opacity: 1;"/><path class="point" transform="translate(192.05,398.75)" d="M3,0A3,3 0 1,1 0,-3A3,3 0 0,1 3,0Z" style="opacity: 1; stroke-width: 0px; fill: rgb(253, 138, 138); fill-opacity: 1;"/><path class="point" transform="translate(189.17,398.75)" d="M3,0A3,3 0 1,1 0,-3A3,3 0 0,1 3,0Z" style="opacity: 1; stroke-width: 0px; fill: rgb(253, 138, 138); fill-opacity: 1;"/><path class="point" transform="translate(187.93,398.75)" d="M3,0A3,3 0 1,1 0,-3A3,3 0 0,1 3,0Z" style="opacity: 1; stroke-width: 0px; fill: rgb(253, 138, 138); fill-opacity: 1;"/><path class="point" transform="translate(187.15,398.5)" d="M3,0A3,3 0 1,1 0,-3A3,3 0 0,1 3,0Z" style="opacity: 1; stroke-width: 0px; fill: rgb(253, 138, 138); fill-opacity: 1;"/><path class="point" transform="translate(188.57,396.87)" d="M3,0A3,3 0 1,1 0,-3A3,3 0 0,1 3,0Z" style="opacity: 1; stroke-width: 0px; fill: rgb(253, 138, 138); fill-opacity: 1;"/><path class="point" transform="translate(190.76,392.92)" d="M3,0A3,3 0 1,1 0,-3A3,3 0 0,1 3,0Z" style="opacity: 1; stroke-width: 0px; fill: rgb(253, 138, 138); fill-opacity: 1;"/><path class="point" transform="translate(189.06,390.92)" d="M3,0A3,3 0 1,1 0,-3A3,3 0 0,1 3,0Z" style="opacity: 1; stroke-width: 0px; fill: rgb(253, 138, 138); fill-opacity: 1;"/><path class="point" transform="translate(188.1,389.19)" d="M3,0A3,3 0 1,1 0,-3A3,3 0 0,1 3,0Z" style="opacity: 1; stroke-width: 0px; fill: rgb(253, 138, 138); fill-opacity: 1;"/><path class="point" transform="translate(190.33,367.89)" d="M3,0A3,3 0 1,1 0,-3A3,3 0 0,1 3,0Z" style="opacity: 1; stroke-width: 0px; fill: rgb(253, 138, 138); fill-opacity: 1;"/><path class="point" transform="translate(188.63,367.61)" d="M3,0A3,3 0 1,1 0,-3A3,3 0 0,1 3,0Z" style="opacity: 1; stroke-width: 0px; fill: rgb(253, 138, 138); fill-opacity: 1;"/><path class="point" transform="translate(189.5,349.29)" d="M3,0A3,3 0 1,1 0,-3A3,3 0 0,1 3,0Z" style="opacity: 1; stroke-width: 0px; fill: rgb(253, 138, 138); fill-opacity: 1;"/><path class="point" transform="translate(190.21,345.79)" d="M3,0A3,3 0 1,1 0,-3A3,3 0 0,1 3,0Z" style="opacity: 1; stroke-width: 0px; fill: rgb(253, 138, 138); fill-opacity: 1;"/><path class="point" transform="translate(187.88,344.91)" d="M3,0A3,3 0 1,1 0,-3A3,3 0 0,1 3,0Z" style="opacity: 1; stroke-width: 0px; fill: rgb(253, 138, 138); fill-opacity: 1;"/><path class="point" transform="translate(191.28,338.96)" d="M3,0A3,3 0 1,1 0,-3A3,3 0 0,1 3,0Z" style="opacity: 1; stroke-width: 0px; fill: rgb(253, 138, 138); fill-opacity: 1;"/><path class="point" transform="translate(190.25,329.86)" d="M3,0A3,3 0 1,1 0,-3A3,3 0 0,1 3,0Z" style="opacity: 1; stroke-width: 0px; fill: rgb(253, 138, 138); fill-opacity: 1;"/><path class="point" transform="translate(187.65,328.65)" d="M3,0A3,3 0 1,1 0,-3A3,3 0 0,1 3,0Z" style="opacity: 1; stroke-width: 0px; fill: rgb(253, 138, 138); fill-opacity: 1;"/><path class="point" transform="translate(191.18,327.82)" d="M3,0A3,3 0 1,1 0,-3A3,3 0 0,1 3,0Z" style="opacity: 1; stroke-width: 0px; fill: rgb(253, 138, 138); fill-opacity: 1;"/><path class="point" transform="translate(188.04,325.69)" d="M3,0A3,3 0 1,1 0,-3A3,3 0 0,1 3,0Z" style="opacity: 1; stroke-width: 0px; fill: rgb(253, 138, 138); fill-opacity: 1;"/><path class="point" transform="translate(189.27,319.21)" d="M3,0A3,3 0 1,1 0,-3A3,3 0 0,1 3,0Z" style="opacity: 1; stroke-width: 0px; fill: rgb(253, 138, 138); fill-opacity: 1;"/><path class="point" transform="translate(189.77,314.27)" d="M3,0A3,3 0 1,1 0,-3A3,3 0 0,1 3,0Z" style="opacity: 1; stroke-width: 0px; fill: rgb(253, 138, 138); fill-opacity: 1;"/><path class="point" transform="translate(188.62,309.09)" d="M3,0A3,3 0 1,1 0,-3A3,3 0 0,1 3,0Z" style="opacity: 1; stroke-width: 0px; fill: rgb(253, 138, 138); fill-opacity: 1;"/><path class="point" transform="translate(190.83,306.92)" d="M3,0A3,3 0 1,1 0,-3A3,3 0 0,1 3,0Z" style="opacity: 1; stroke-width: 0px; fill: rgb(253, 138, 138); fill-opacity: 1;"/><path class="point" transform="translate(188.27,300.15)" d="M3,0A3,3 0 1,1 0,-3A3,3 0 0,1 3,0Z" style="opacity: 1; stroke-width: 0px; fill: rgb(253, 138, 138); fill-opacity: 1;"/><path class="point" transform="translate(190.22,291.87)" d="M3,0A3,3 0 1,1 0,-3A3,3 0 0,1 3,0Z" style="opacity: 1; stroke-width: 0px; fill: rgb(253, 138, 138); fill-opacity: 1;"/><path class="point" transform="translate(190.84,291.44)" d="M3,0A3,3 0 1,1 0,-3A3,3 0 0,1 3,0Z" style="opacity: 1; stroke-width: 0px; fill: rgb(253, 138, 138); fill-opacity: 1;"/><path class="point" transform="translate(187.91,289.68)" d="M3,0A3,3 0 1,1 0,-3A3,3 0 0,1 3,0Z" style="opacity: 1; stroke-width: 0px; fill: rgb(253, 138, 138); fill-opacity: 1;"/><path class="point" transform="translate(188.57,287.39)" d="M3,0A3,3 0 1,1 0,-3A3,3 0 0,1 3,0Z" style="opacity: 1; stroke-width: 0px; fill: rgb(253, 138, 138); fill-opacity: 1;"/><path class="point" transform="translate(190.41,280.51)" d="M3,0A3,3 0 1,1 0,-3A3,3 0 0,1 3,0Z" style="opacity: 1; stroke-width: 0px; fill: rgb(253, 138, 138); fill-opacity: 1;"/><path class="point" transform="translate(189.07,270.05)" d="M3,0A3,3 0 1,1 0,-3A3,3 0 0,1 3,0Z" style="opacity: 1; stroke-width: 0px; fill: rgb(253, 138, 138); fill-opacity: 1;"/><path class="point" transform="translate(189.63,262.22)" d="M3,0A3,3 0 1,1 0,-3A3,3 0 0,1 3,0Z" style="opacity: 1; stroke-width: 0px; fill: rgb(253, 138, 138); fill-opacity: 1;"/><path class="point" transform="translate(190.85,247.68)" d="M3,0A3,3 0 1,1 0,-3A3,3 0 0,1 3,0Z" style="opacity: 1; stroke-width: 0px; fill: rgb(253, 138, 138); fill-opacity: 1;"/><path class="point" transform="translate(188.34,245.44)" d="M3,0A3,3 0 1,1 0,-3A3,3 0 0,1 3,0Z" style="opacity: 1; stroke-width: 0px; fill: rgb(253, 138, 138); fill-opacity: 1;"/><path class="point" transform="translate(191.02,239.79)" d="M3,0A3,3 0 1,1 0,-3A3,3 0 0,1 3,0Z" style="opacity: 1; stroke-width: 0px; fill: rgb(253, 138, 138); fill-opacity: 1;"/><path class="point" transform="translate(188.28,228.14)" d="M3,0A3,3 0 1,1 0,-3A3,3 0 0,1 3,0Z" style="opacity: 1; stroke-width: 0px; fill: rgb(253, 138, 138); fill-opacity: 1;"/><path class="point" transform="translate(191.08,220.29)" d="M3,0A3,3 0 1,1 0,-3A3,3 0 0,1 3,0Z" style="opacity: 1; stroke-width: 0px; fill: rgb(253, 138, 138); fill-opacity: 1;"/><path class="point" transform="translate(188.73,219.74)" d="M3,0A3,3 0 1,1 0,-3A3,3 0 0,1 3,0Z" style="opacity: 1; stroke-width: 0px; fill: rgb(253, 138, 138); fill-opacity: 1;"/><path class="point" transform="translate(190.47,209.19)" d="M3,0A3,3 0 1,1 0,-3A3,3 0 0,1 3,0Z" style="opacity: 1; stroke-width: 0px; fill: rgb(253, 138, 138); fill-opacity: 1;"/><path class="point" transform="translate(189.87,205.19)" d="M3,0A3,3 0 1,1 0,-3A3,3 0 0,1 3,0Z" style="opacity: 1; stroke-width: 0px; fill: rgb(253, 138, 138); fill-opacity: 1;"/><path class="point" transform="translate(189.33,204.45)" d="M3,0A3,3 0 1,1 0,-3A3,3 0 0,1 3,0Z" style="opacity: 1; stroke-width: 0px; fill: rgb(253, 138, 138); fill-opacity: 1;"/><path class="point" transform="translate(188.35,193.35)" d="M3,0A3,3 0 1,1 0,-3A3,3 0 0,1 3,0Z" style="opacity: 1; stroke-width: 0px; fill: rgb(253, 138, 138); fill-opacity: 1;"/><path class="point" transform="translate(189.31,177.79)" d="M3,0A3,3 0 1,1 0,-3A3,3 0 0,1 3,0Z" style="opacity: 1; stroke-width: 0px; fill: rgb(253, 138, 138); fill-opacity: 1;"/><path class="point" transform="translate(188.55,139.61)" d="M3,0A3,3 0 1,1 0,-3A3,3 0 0,1 3,0Z" style="opacity: 1; stroke-width: 0px; fill: rgb(253, 138, 138); fill-opacity: 1;"/><path class="point" transform="translate(188.91,135.91)" d="M3,0A3,3 0 1,1 0,-3A3,3 0 0,1 3,0Z" style="opacity: 1; stroke-width: 0px; fill: rgb(253, 138, 138); fill-opacity: 1;"/><path class="point" transform="translate(188.73,114.39)" d="M3,0A3,3 0 1,1 0,-3A3,3 0 0,1 3,0Z" style="opacity: 1; stroke-width: 0px; fill: rgb(253, 138, 138); fill-opacity: 1;"/></g><g class="points"><path class="point" transform="translate(348.54,399)" d="M3,0A3,3 0 1,1 0,-3A3,3 0 0,1 3,0Z" style="opacity: 1; stroke-width: 0px; fill: rgb(253, 138, 138); fill-opacity: 1;"/><path class="point" transform="translate(350.38,398.75)" d="M3,0A3,3 0 1,1 0,-3A3,3 0 0,1 3,0Z" style="opacity: 1; stroke-width: 0px; fill: rgb(253, 138, 138); fill-opacity: 1;"/><path class="point" transform="translate(353.84,398.75)" d="M3,0A3,3 0 1,1 0,-3A3,3 0 0,1 3,0Z" style="opacity: 1; stroke-width: 0px; fill: rgb(253, 138, 138); fill-opacity: 1;"/><path class="point" transform="translate(349.06,398.75)" d="M3,0A3,3 0 1,1 0,-3A3,3 0 0,1 3,0Z" style="opacity: 1; stroke-width: 0px; fill: rgb(253, 138, 138); fill-opacity: 1;"/><path class="point" transform="translate(353.4,398.75)" d="M3,0A3,3 0 1,1 0,-3A3,3 0 0,1 3,0Z" style="opacity: 1; stroke-width: 0px; fill: rgb(253, 138, 138); fill-opacity: 1;"/><path class="point" transform="translate(354.44,398.75)" d="M3,0A3,3 0 1,1 0,-3A3,3 0 0,1 3,0Z" style="opacity: 1; stroke-width: 0px; fill: rgb(253, 138, 138); fill-opacity: 1;"/><path class="point" transform="translate(352.98,398.75)" d="M3,0A3,3 0 1,1 0,-3A3,3 0 0,1 3,0Z" style="opacity: 1; stroke-width: 0px; fill: rgb(253, 138, 138); fill-opacity: 1;"/><path class="point" transform="translate(350.16,398.75)" d="M3,0A3,3 0 1,1 0,-3A3,3 0 0,1 3,0Z" style="opacity: 1; stroke-width: 0px; fill: rgb(253, 138, 138); fill-opacity: 1;"/><path class="point" transform="translate(351.14,398.75)" d="M3,0A3,3 0 1,1 0,-3A3,3 0 0,1 3,0Z" style="opacity: 1; stroke-width: 0px; fill: rgb(253, 138, 138); fill-opacity: 1;"/><path class="point" transform="translate(356.36,398.75)" d="M3,0A3,3 0 1,1 0,-3A3,3 0 0,1 3,0Z" style="opacity: 1; stroke-width: 0px; fill: rgb(253, 138, 138); fill-opacity: 1;"/><path class="point" transform="translate(350.41,398.75)" d="M3,0A3,3 0 1,1 0,-3A3,3 0 0,1 3,0Z" style="opacity: 1; stroke-width: 0px; fill: rgb(253, 138, 138); fill-opacity: 1;"/><path class="point" transform="translate(352.95,398.75)" d="M3,0A3,3 0 1,1 0,-3A3,3 0 0,1 3,0Z" style="opacity: 1; stroke-width: 0px; fill: rgb(253, 138, 138); fill-opacity: 1;"/><path class="point" transform="translate(354.99,398.75)" d="M3,0A3,3 0 1,1 0,-3A3,3 0 0,1 3,0Z" style="opacity: 1; stroke-width: 0px; fill: rgb(253, 138, 138); fill-opacity: 1;"/><path class="point" transform="translate(349.18,398.75)" d="M3,0A3,3 0 1,1 0,-3A3,3 0 0,1 3,0Z" style="opacity: 1; stroke-width: 0px; fill: rgb(253, 138, 138); fill-opacity: 1;"/><path class="point" transform="translate(351.96,398.75)" d="M3,0A3,3 0 1,1 0,-3A3,3 0 0,1 3,0Z" style="opacity: 1; stroke-width: 0px; fill: rgb(253, 138, 138); fill-opacity: 1;"/><path class="point" transform="translate(356.04,398.75)" d="M3,0A3,3 0 1,1 0,-3A3,3 0 0,1 3,0Z" style="opacity: 1; stroke-width: 0px; fill: rgb(253, 138, 138); fill-opacity: 1;"/><path class="point" transform="translate(348.94,398.75)" d="M3,0A3,3 0 1,1 0,-3A3,3 0 0,1 3,0Z" style="opacity: 1; stroke-width: 0px; fill: rgb(253, 138, 138); fill-opacity: 1;"/><path class="point" transform="translate(351.69,398.75)" d="M3,0A3,3 0 1,1 0,-3A3,3 0 0,1 3,0Z" style="opacity: 1; stroke-width: 0px; fill: rgb(253, 138, 138); fill-opacity: 1;"/><path class="point" transform="translate(354.46,398.75)" d="M3,0A3,3 0 1,1 0,-3A3,3 0 0,1 3,0Z" style="opacity: 1; stroke-width: 0px; fill: rgb(253, 138, 138); fill-opacity: 1;"/><path class="point" transform="translate(355.48,398.75)" d="M3,0A3,3 0 1,1 0,-3A3,3 0 0,1 3,0Z" style="opacity: 1; stroke-width: 0px; fill: rgb(253, 138, 138); fill-opacity: 1;"/><path class="point" transform="translate(356.3,398.75)" d="M3,0A3,3 0 1,1 0,-3A3,3 0 0,1 3,0Z" style="opacity: 1; stroke-width: 0px; fill: rgb(253, 138, 138); fill-opacity: 1;"/><path class="point" transform="translate(348.98,398.75)" d="M3,0A3,3 0 1,1 0,-3A3,3 0 0,1 3,0Z" style="opacity: 1; stroke-width: 0px; fill: rgb(253, 138, 138); fill-opacity: 1;"/><path class="point" transform="translate(353.43,398.75)" d="M3,0A3,3 0 1,1 0,-3A3,3 0 0,1 3,0Z" style="opacity: 1; stroke-width: 0px; fill: rgb(253, 138, 138); fill-opacity: 1;"/><path class="point" transform="translate(348.67,398.75)" d="M3,0A3,3 0 1,1 0,-3A3,3 0 0,1 3,0Z" style="opacity: 1; stroke-width: 0px; fill: rgb(253, 138, 138); fill-opacity: 1;"/><path class="point" transform="translate(356.13,398.75)" d="M3,0A3,3 0 1,1 0,-3A3,3 0 0,1 3,0Z" style="opacity: 1; stroke-width: 0px; fill: rgb(253, 138, 138); fill-opacity: 1;"/><path class="point" transform="translate(353.18,398.75)" d="M3,0A3,3 0 1,1 0,-3A3,3 0 0,1 3,0Z" style="opacity: 1; stroke-width: 0px; fill: rgb(253, 138, 138); fill-opacity: 1;"/><path class="point" transform="translate(351.38,398.75)" d="M3,0A3,3 0 1,1 0,-3A3,3 0 0,1 3,0Z" style="opacity: 1; stroke-width: 0px; fill: rgb(253, 138, 138); fill-opacity: 1;"/><path class="point" transform="translate(356.14,398.75)" d="M3,0A3,3 0 1,1 0,-3A3,3 0 0,1 3,0Z" style="opacity: 1; stroke-width: 0px; fill: rgb(253, 138, 138); fill-opacity: 1;"/><path class="point" transform="translate(349.92,398.75)" d="M3,0A3,3 0 1,1 0,-3A3,3 0 0,1 3,0Z" style="opacity: 1; stroke-width: 0px; fill: rgb(253, 138, 138); fill-opacity: 1;"/><path class="point" transform="translate(350.9,398.75)" d="M3,0A3,3 0 1,1 0,-3A3,3 0 0,1 3,0Z" style="opacity: 1; stroke-width: 0px; fill: rgb(253, 138, 138); fill-opacity: 1;"/><path class="point" transform="translate(351.97,398.75)" d="M3,0A3,3 0 1,1 0,-3A3,3 0 0,1 3,0Z" style="opacity: 1; stroke-width: 0px; fill: rgb(253, 138, 138); fill-opacity: 1;"/><path class="point" transform="translate(354.31,398.75)" d="M3,0A3,3 0 1,1 0,-3A3,3 0 0,1 3,0Z" style="opacity: 1; stroke-width: 0px; fill: rgb(253, 138, 138); fill-opacity: 1;"/><path class="point" transform="translate(350.74,398.75)" d="M3,0A3,3 0 1,1 0,-3A3,3 0 0,1 3,0Z" style="opacity: 1; stroke-width: 0px; fill: rgb(253, 138, 138); fill-opacity: 1;"/><path class="point" transform="translate(352.17,398.75)" d="M3,0A3,3 0 1,1 0,-3A3,3 0 0,1 3,0Z" style="opacity: 1; stroke-width: 0px; fill: rgb(253, 138, 138); fill-opacity: 1;"/><path class="point" transform="translate(350.88,398.75)" d="M3,0A3,3 0 1,1 0,-3A3,3 0 0,1 3,0Z" style="opacity: 1; stroke-width: 0px; fill: rgb(253, 138, 138); fill-opacity: 1;"/><path class="point" transform="translate(355.5,398.75)" d="M3,0A3,3 0 1,1 0,-3A3,3 0 0,1 3,0Z" style="opacity: 1; stroke-width: 0px; fill: rgb(253, 138, 138); fill-opacity: 1;"/><path class="point" transform="translate(351.74,398.75)" d="M3,0A3,3 0 1,1 0,-3A3,3 0 0,1 3,0Z" style="opacity: 1; stroke-width: 0px; fill: rgb(253, 138, 138); fill-opacity: 1;"/><path class="point" transform="translate(354.79,398.75)" d="M3,0A3,3 0 1,1 0,-3A3,3 0 0,1 3,0Z" style="opacity: 1; stroke-width: 0px; fill: rgb(253, 138, 138); fill-opacity: 1;"/><path class="point" transform="translate(352.64,398.75)" d="M3,0A3,3 0 1,1 0,-3A3,3 0 0,1 3,0Z" style="opacity: 1; stroke-width: 0px; fill: rgb(253, 138, 138); fill-opacity: 1;"/><path class="point" transform="translate(354.9,398.75)" d="M3,0A3,3 0 1,1 0,-3A3,3 0 0,1 3,0Z" style="opacity: 1; stroke-width: 0px; fill: rgb(253, 138, 138); fill-opacity: 1;"/><path class="point" transform="translate(349.93,398.75)" d="M3,0A3,3 0 1,1 0,-3A3,3 0 0,1 3,0Z" style="opacity: 1; stroke-width: 0px; fill: rgb(253, 138, 138); fill-opacity: 1;"/><path class="point" transform="translate(353.01,398.75)" d="M3,0A3,3 0 1,1 0,-3A3,3 0 0,1 3,0Z" style="opacity: 1; stroke-width: 0px; fill: rgb(253, 138, 138); fill-opacity: 1;"/><path class="point" transform="translate(354.62,398.75)" d="M3,0A3,3 0 1,1 0,-3A3,3 0 0,1 3,0Z" style="opacity: 1; stroke-width: 0px; fill: rgb(253, 138, 138); fill-opacity: 1;"/><path class="point" transform="translate(352.76,397.23)" d="M3,0A3,3 0 1,1 0,-3A3,3 0 0,1 3,0Z" style="opacity: 1; stroke-width: 0px; fill: rgb(253, 138, 138); fill-opacity: 1;"/><path class="point" transform="translate(353.59,391.44)" d="M3,0A3,3 0 1,1 0,-3A3,3 0 0,1 3,0Z" style="opacity: 1; stroke-width: 0px; fill: rgb(253, 138, 138); fill-opacity: 1;"/><path class="point" transform="translate(354.61,389.91)" d="M3,0A3,3 0 1,1 0,-3A3,3 0 0,1 3,0Z" style="opacity: 1; stroke-width: 0px; fill: rgb(253, 138, 138); fill-opacity: 1;"/><path class="point" transform="translate(351.37,385.09)" d="M3,0A3,3 0 1,1 0,-3A3,3 0 0,1 3,0Z" style="opacity: 1; stroke-width: 0px; fill: rgb(253, 138, 138); fill-opacity: 1;"/><path class="point" transform="translate(353.96,384.89)" d="M3,0A3,3 0 1,1 0,-3A3,3 0 0,1 3,0Z" style="opacity: 1; stroke-width: 0px; fill: rgb(253, 138, 138); fill-opacity: 1;"/><path class="point" transform="translate(353.17,382.73)" d="M3,0A3,3 0 1,1 0,-3A3,3 0 0,1 3,0Z" style="opacity: 1; stroke-width: 0px; fill: rgb(253, 138, 138); fill-opacity: 1;"/><path class="point" transform="translate(354.14,371.65)" d="M3,0A3,3 0 1,1 0,-3A3,3 0 0,1 3,0Z" style="opacity: 1; stroke-width: 0px; fill: rgb(253, 138, 138); fill-opacity: 1;"/><path class="point" transform="translate(351.08,365.42)" d="M3,0A3,3 0 1,1 0,-3A3,3 0 0,1 3,0Z" style="opacity: 1; stroke-width: 0px; fill: rgb(253, 138, 138); fill-opacity: 1;"/><path class="point" transform="translate(355.02,364.33)" d="M3,0A3,3 0 1,1 0,-3A3,3 0 0,1 3,0Z" style="opacity: 1; stroke-width: 0px; fill: rgb(253, 138, 138); fill-opacity: 1;"/><path class="point" transform="translate(351.59,358.96)" d="M3,0A3,3 0 1,1 0,-3A3,3 0 0,1 3,0Z" style="opacity: 1; stroke-width: 0px; fill: rgb(253, 138, 138); fill-opacity: 1;"/><path class="point" transform="translate(352.52,357.83)" d="M3,0A3,3 0 1,1 0,-3A3,3 0 0,1 3,0Z" style="opacity: 1; stroke-width: 0px; fill: rgb(253, 138, 138); fill-opacity: 1;"/><path class="point" transform="translate(350.68,354.54)" d="M3,0A3,3 0 1,1 0,-3A3,3 0 0,1 3,0Z" style="opacity: 1; stroke-width: 0px; fill: rgb(253, 138, 138); fill-opacity: 1;"/><path class="point" transform="translate(351.98,354.29)" d="M3,0A3,3 0 1,1 0,-3A3,3 0 0,1 3,0Z" style="opacity: 1; stroke-width: 0px; fill: rgb(253, 138, 138); fill-opacity: 1;"/><path class="point" transform="translate(353.97,352.68)" d="M3,0A3,3 0 1,1 0,-3A3,3 0 0,1 3,0Z" style="opacity: 1; stroke-width: 0px; fill: rgb(253, 138, 138); fill-opacity: 1;"/><path class="point" transform="translate(354.48,351.92)" d="M3,0A3,3 0 1,1 0,-3A3,3 0 0,1 3,0Z" style="opacity: 1; stroke-width: 0px; fill: rgb(253, 138, 138); fill-opacity: 1;"/><path class="point" transform="translate(349.75,348.88)" d="M3,0A3,3 0 1,1 0,-3A3,3 0 0,1 3,0Z" style="opacity: 1; stroke-width: 0px; fill: rgb(253, 138, 138); fill-opacity: 1;"/><path class="point" transform="translate(353.7,345.93)" d="M3,0A3,3 0 1,1 0,-3A3,3 0 0,1 3,0Z" style="opacity: 1; stroke-width: 0px; fill: rgb(253, 138, 138); fill-opacity: 1;"/><path class="point" transform="translate(355.09,342.18)" d="M3,0A3,3 0 1,1 0,-3A3,3 0 0,1 3,0Z" style="opacity: 1; stroke-width: 0px; fill: rgb(253, 138, 138); fill-opacity: 1;"/><path class="point" transform="translate(350.64,341.71)" d="M3,0A3,3 0 1,1 0,-3A3,3 0 0,1 3,0Z" style="opacity: 1; stroke-width: 0px; fill: rgb(253, 138, 138); fill-opacity: 1;"/><path class="point" transform="translate(353.59,330.65)" d="M3,0A3,3 0 1,1 0,-3A3,3 0 0,1 3,0Z" style="opacity: 1; stroke-width: 0px; fill: rgb(253, 138, 138); fill-opacity: 1;"/><path class="point" transform="translate(352.48,329.66)" d="M3,0A3,3 0 1,1 0,-3A3,3 0 0,1 3,0Z" style="opacity: 1; stroke-width: 0px; fill: rgb(253, 138, 138); fill-opacity: 1;"/><path class="point" transform="translate(350.09,327.82)" d="M3,0A3,3 0 1,1 0,-3A3,3 0 0,1 3,0Z" style="opacity: 1; stroke-width: 0px; fill: rgb(253, 138, 138); fill-opacity: 1;"/><path class="point" transform="translate(354.5,325.91)" d="M3,0A3,3 0 1,1 0,-3A3,3 0 0,1 3,0Z" style="opacity: 1; stroke-width: 0px; fill: rgb(253, 138, 138); fill-opacity: 1;"/><path class="point" transform="translate(353.54,325.48)" d="M3,0A3,3 0 1,1 0,-3A3,3 0 0,1 3,0Z" style="opacity: 1; stroke-width: 0px; fill: rgb(253, 138, 138); fill-opacity: 1;"/><path class="point" transform="translate(351.79,323.02)" d="M3,0A3,3 0 1,1 0,-3A3,3 0 0,1 3,0Z" style="opacity: 1; stroke-width: 0px; fill: rgb(253, 138, 138); fill-opacity: 1;"/><path class="point" transform="translate(351.02,320.91)" d="M3,0A3,3 0 1,1 0,-3A3,3 0 0,1 3,0Z" style="opacity: 1; stroke-width: 0px; fill: rgb(253, 138, 138); fill-opacity: 1;"/><path class="point" transform="translate(356.29,320.43)" d="M3,0A3,3 0 1,1 0,-3A3,3 0 0,1 3,0Z" style="opacity: 1; stroke-width: 0px; fill: rgb(253, 138, 138); fill-opacity: 1;"/><path class="point" transform="translate(352.94,319.21)" d="M3,0A3,3 0 1,1 0,-3A3,3 0 0,1 3,0Z" style="opacity: 1; stroke-width: 0px; fill: rgb(253, 138, 138); fill-opacity: 1;"/><path class="point" transform="translate(354.79,318.46)" d="M3,0A3,3 0 1,1 0,-3A3,3 0 0,1 3,0Z" style="opacity: 1; stroke-width: 0px; fill: rgb(253, 138, 138); fill-opacity: 1;"/><path class="point" transform="translate(349.88,318.21)" d="M3,0A3,3 0 1,1 0,-3A3,3 0 0,1 3,0Z" style="opacity: 1; stroke-width: 0px; fill: rgb(253, 138, 138); fill-opacity: 1;"/><path class="point" transform="translate(353.62,317.7)" d="M3,0A3,3 0 1,1 0,-3A3,3 0 0,1 3,0Z" style="opacity: 1; stroke-width: 0px; fill: rgb(253, 138, 138); fill-opacity: 1;"/><path class="point" transform="translate(354.99,317.19)" d="M3,0A3,3 0 1,1 0,-3A3,3 0 0,1 3,0Z" style="opacity: 1; stroke-width: 0px; fill: rgb(253, 138, 138); fill-opacity: 1;"/><path class="point" transform="translate(352.65,307.24)" d="M3,0A3,3 0 1,1 0,-3A3,3 0 0,1 3,0Z" style="opacity: 1; stroke-width: 0px; fill: rgb(253, 138, 138); fill-opacity: 1;"/><path class="point" transform="translate(354.69,306.6)" d="M3,0A3,3 0 1,1 0,-3A3,3 0 0,1 3,0Z" style="opacity: 1; stroke-width: 0px; fill: rgb(253, 138, 138); fill-opacity: 1;"/><path class="point" transform="translate(352.04,303.65)" d="M3,0A3,3 0 1,1 0,-3A3,3 0 0,1 3,0Z" style="opacity: 1; stroke-width: 0px; fill: rgb(253, 138, 138); fill-opacity: 1;"/><path class="point" transform="translate(354.87,303.65)" d="M3,0A3,3 0 1,1 0,-3A3,3 0 0,1 3,0Z" style="opacity: 1; stroke-width: 0px; fill: rgb(253, 138, 138); fill-opacity: 1;"/><path class="point" transform="translate(352.94,298.67)" d="M3,0A3,3 0 1,1 0,-3A3,3 0 0,1 3,0Z" style="opacity: 1; stroke-width: 0px; fill: rgb(253, 138, 138); fill-opacity: 1;"/><path class="point" transform="translate(351.22,298.3)" d="M3,0A3,3 0 1,1 0,-3A3,3 0 0,1 3,0Z" style="opacity: 1; stroke-width: 0px; fill: rgb(253, 138, 138); fill-opacity: 1;"/><path class="point" transform="translate(353.7,293.56)" d="M3,0A3,3 0 1,1 0,-3A3,3 0 0,1 3,0Z" style="opacity: 1; stroke-width: 0px; fill: rgb(253, 138, 138); fill-opacity: 1;"/><path class="point" transform="translate(351.45,291.87)" d="M3,0A3,3 0 1,1 0,-3A3,3 0 0,1 3,0Z" style="opacity: 1; stroke-width: 0px; fill: rgb(253, 138, 138); fill-opacity: 1;"/><path class="point" transform="translate(350.25,290.13)" d="M3,0A3,3 0 1,1 0,-3A3,3 0 0,1 3,0Z" style="opacity: 1; stroke-width: 0px; fill: rgb(253, 138, 138); fill-opacity: 1;"/><path class="point" transform="translate(354.63,278.97)" d="M3,0A3,3 0 1,1 0,-3A3,3 0 0,1 3,0Z" style="opacity: 1; stroke-width: 0px; fill: rgb(253, 138, 138); fill-opacity: 1;"/><path class="point" transform="translate(351.62,276.06)" d="M3,0A3,3 0 1,1 0,-3A3,3 0 0,1 3,0Z" style="opacity: 1; stroke-width: 0px; fill: rgb(253, 138, 138); fill-opacity: 1;"/><path class="point" transform="translate(353.5,273.95)" d="M3,0A3,3 0 1,1 0,-3A3,3 0 0,1 3,0Z" style="opacity: 1; stroke-width: 0px; fill: rgb(253, 138, 138); fill-opacity: 1;"/><path class="point" transform="translate(350.81,273.02)" d="M3,0A3,3 0 1,1 0,-3A3,3 0 0,1 3,0Z" style="opacity: 1; stroke-width: 0px; fill: rgb(253, 138, 138); fill-opacity: 1;"/><path class="point" transform="translate(352.2,267.95)" d="M3,0A3,3 0 1,1 0,-3A3,3 0 0,1 3,0Z" style="opacity: 1; stroke-width: 0px; fill: rgb(253, 138, 138); fill-opacity: 1;"/><path class="point" transform="translate(353.47,266.89)" d="M3,0A3,3 0 1,1 0,-3A3,3 0 0,1 3,0Z" style="opacity: 1; stroke-width: 0px; fill: rgb(253, 138, 138); fill-opacity: 1;"/><path class="point" transform="translate(351.91,263.52)" d="M3,0A3,3 0 1,1 0,-3A3,3 0 0,1 3,0Z" style="opacity: 1; stroke-width: 0px; fill: rgb(253, 138, 138); fill-opacity: 1;"/><path class="point" transform="translate(349.64,257.66)" d="M3,0A3,3 0 1,1 0,-3A3,3 0 0,1 3,0Z" style="opacity: 1; stroke-width: 0px; fill: rgb(253, 138, 138); fill-opacity: 1;"/><path class="point" transform="translate(354.52,257.4)" d="M3,0A3,3 0 1,1 0,-3A3,3 0 0,1 3,0Z" style="opacity: 1; stroke-width: 0px; fill: rgb(253, 138, 138); fill-opacity: 1;"/><path class="point" transform="translate(350.13,254.31)" d="M3,0A3,3 0 1,1 0,-3A3,3 0 0,1 3,0Z" style="opacity: 1; stroke-width: 0px; fill: rgb(253, 138, 138); fill-opacity: 1;"/><path class="point" transform="translate(354.18,253.29)" d="M3,0A3,3 0 1,1 0,-3A3,3 0 0,1 3,0Z" style="opacity: 1; stroke-width: 0px; fill: rgb(253, 138, 138); fill-opacity: 1;"/><path class="point" transform="translate(350.69,251.59)" d="M3,0A3,3 0 1,1 0,-3A3,3 0 0,1 3,0Z" style="opacity: 1; stroke-width: 0px; fill: rgb(253, 138, 138); fill-opacity: 1;"/><path class="point" transform="translate(351.53,250.51)" d="M3,0A3,3 0 1,1 0,-3A3,3 0 0,1 3,0Z" style="opacity: 1; stroke-width: 0px; fill: rgb(253, 138, 138); fill-opacity: 1;"/><path class="point" transform="translate(349.84,249.52)" d="M3,0A3,3 0 1,1 0,-3A3,3 0 0,1 3,0Z" style="opacity: 1; stroke-width: 0px; fill: rgb(253, 138, 138); fill-opacity: 1;"/><path class="point" transform="translate(355.76,247.57)" d="M3,0A3,3 0 1,1 0,-3A3,3 0 0,1 3,0Z" style="opacity: 1; stroke-width: 0px; fill: rgb(253, 138, 138); fill-opacity: 1;"/><path class="point" transform="translate(352.47,245.55)" d="M3,0A3,3 0 1,1 0,-3A3,3 0 0,1 3,0Z" style="opacity: 1; stroke-width: 0px; fill: rgb(253, 138, 138); fill-opacity: 1;"/><path class="point" transform="translate(354.74,242.17)" d="M3,0A3,3 0 1,1 0,-3A3,3 0 0,1 3,0Z" style="opacity: 1; stroke-width: 0px; fill: rgb(253, 138, 138); fill-opacity: 1;"/><path class="point" transform="translate(350.79,235.05)" d="M3,0A3,3 0 1,1 0,-3A3,3 0 0,1 3,0Z" style="opacity: 1; stroke-width: 0px; fill: rgb(253, 138, 138); fill-opacity: 1;"/><path class="point" transform="translate(353.29,234.37)" d="M3,0A3,3 0 1,1 0,-3A3,3 0 0,1 3,0Z" style="opacity: 1; stroke-width: 0px; fill: rgb(253, 138, 138); fill-opacity: 1;"/><path class="point" transform="translate(352.2,233.54)" d="M3,0A3,3 0 1,1 0,-3A3,3 0 0,1 3,0Z" style="opacity: 1; stroke-width: 0px; fill: rgb(253, 138, 138); fill-opacity: 1;"/><path class="point" transform="translate(353.64,228.44)" d="M3,0A3,3 0 1,1 0,-3A3,3 0 0,1 3,0Z" style="opacity: 1; stroke-width: 0px; fill: rgb(253, 138, 138); fill-opacity: 1;"/><path class="point" transform="translate(351.11,212.05)" d="M3,0A3,3 0 1,1 0,-3A3,3 0 0,1 3,0Z" style="opacity: 1; stroke-width: 0px; fill: rgb(253, 138, 138); fill-opacity: 1;"/><path class="point" transform="translate(351.68,203.95)" d="M3,0A3,3 0 1,1 0,-3A3,3 0 0,1 3,0Z" style="opacity: 1; stroke-width: 0px; fill: rgb(253, 138, 138); fill-opacity: 1;"/><path class="point" transform="translate(352.87,193.35)" d="M3,0A3,3 0 1,1 0,-3A3,3 0 0,1 3,0Z" style="opacity: 1; stroke-width: 0px; fill: rgb(253, 138, 138); fill-opacity: 1;"/><path class="point" transform="translate(352.03,190.14)" d="M3,0A3,3 0 1,1 0,-3A3,3 0 0,1 3,0Z" style="opacity: 1; stroke-width: 0px; fill: rgb(253, 138, 138); fill-opacity: 1;"/><path class="point" transform="translate(350.67,187.42)" d="M3,0A3,3 0 1,1 0,-3A3,3 0 0,1 3,0Z" style="opacity: 1; stroke-width: 0px; fill: rgb(253, 138, 138); fill-opacity: 1;"/><path class="point" transform="translate(351.3,182.64)" d="M3,0A3,3 0 1,1 0,-3A3,3 0 0,1 3,0Z" style="opacity: 1; stroke-width: 0px; fill: rgb(253, 138, 138); fill-opacity: 1;"/><path class="point" transform="translate(352.04,179.05)" d="M3,0A3,3 0 1,1 0,-3A3,3 0 0,1 3,0Z" style="opacity: 1; stroke-width: 0px; fill: rgb(253, 138, 138); fill-opacity: 1;"/><path class="point" transform="translate(353.08,176.5)" d="M3,0A3,3 0 1,1 0,-3A3,3 0 0,1 3,0Z" style="opacity: 1; stroke-width: 0px; fill: rgb(253, 138, 138); fill-opacity: 1;"/><path class="point" transform="translate(354.04,175.62)" d="M3,0A3,3 0 1,1 0,-3A3,3 0 0,1 3,0Z" style="opacity: 1; stroke-width: 0px; fill: rgb(253, 138, 138); fill-opacity: 1;"/><path class="point" transform="translate(352.66,164.63)" d="M3,0A3,3 0 1,1 0,-3A3,3 0 0,1 3,0Z" style="opacity: 1; stroke-width: 0px; fill: rgb(253, 138, 138); fill-opacity: 1;"/><path class="point" transform="translate(353.68,161.96)" d="M3,0A3,3 0 1,1 0,-3A3,3 0 0,1 3,0Z" style="opacity: 1; stroke-width: 0px; fill: rgb(253, 138, 138); fill-opacity: 1;"/><path class="point" transform="translate(351.03,156.59)" d="M3,0A3,3 0 1,1 0,-3A3,3 0 0,1 3,0Z" style="opacity: 1; stroke-width: 0px; fill: rgb(253, 138, 138); fill-opacity: 1;"/><path class="point" transform="translate(352.75,135.21)" d="M3,0A3,3 0 1,1 0,-3A3,3 0 0,1 3,0Z" style="opacity: 1; stroke-width: 0px; fill: rgb(253, 138, 138); fill-opacity: 1;"/><path class="point" transform="translate(351.04,113.93)" d="M3,0A3,3 0 1,1 0,-3A3,3 0 0,1 3,0Z" style="opacity: 1; stroke-width: 0px; fill: rgb(253, 138, 138); fill-opacity: 1;"/><path class="point" transform="translate(351.98,112.53)" d="M3,0A3,3 0 1,1 0,-3A3,3 0 0,1 3,0Z" style="opacity: 1; stroke-width: 0px; fill: rgb(253, 138, 138); fill-opacity: 1;"/><path class="point" transform="translate(351.6,108.76)" d="M3,0A3,3 0 1,1 0,-3A3,3 0 0,1 3,0Z" style="opacity: 1; stroke-width: 0px; fill: rgb(253, 138, 138); fill-opacity: 1;"/><path class="point" transform="translate(353.09,107.38)" d="M3,0A3,3 0 1,1 0,-3A3,3 0 0,1 3,0Z" style="opacity: 1; stroke-width: 0px; fill: rgb(253, 138, 138); fill-opacity: 1;"/><path class="point" transform="translate(351.18,103.18)" d="M3,0A3,3 0 1,1 0,-3A3,3 0 0,1 3,0Z" style="opacity: 1; stroke-width: 0px; fill: rgb(253, 138, 138); fill-opacity: 1;"/><path class="point" transform="translate(352.68,102.8)" d="M3,0A3,3 0 1,1 0,-3A3,3 0 0,1 3,0Z" style="opacity: 1; stroke-width: 0px; fill: rgb(253, 138, 138); fill-opacity: 1;"/><path class="point" transform="translate(353.9,97.11)" d="M3,0A3,3 0 1,1 0,-3A3,3 0 0,1 3,0Z" style="opacity: 1; stroke-width: 0px; fill: rgb(253, 138, 138); fill-opacity: 1;"/><path class="point" transform="translate(352.42,92.84)" d="M3,0A3,3 0 1,1 0,-3A3,3 0 0,1 3,0Z" style="opacity: 1; stroke-width: 0px; fill: rgb(253, 138, 138); fill-opacity: 1;"/><path class="point" transform="translate(354.02,92.13)" d="M3,0A3,3 0 1,1 0,-3A3,3 0 0,1 3,0Z" style="opacity: 1; stroke-width: 0px; fill: rgb(253, 138, 138); fill-opacity: 1;"/><path class="point" transform="translate(352.02,55.47)" d="M3,0A3,3 0 1,1 0,-3A3,3 0 0,1 3,0Z" style="opacity: 1; stroke-width: 0px; fill: rgb(253, 138, 138); fill-opacity: 1;"/></g></g><g class="trace violins" style="opacity: 1;"><path class="violin" d="M92.53,398.5Q93.39,394.13 93.75,391.94C94.11,389.76 94.41,387.57 94.7,385.38C94.98,383.19 95.22,381 95.46,378.81C95.69,376.62 95.9,374.44 96.11,372.25C96.32,370.06 96.54,367.88 96.74,365.69C96.94,363.5 97.15,361.32 97.32,359.13C97.49,356.94 97.66,354.76 97.74,352.57C97.82,350.38 97.87,348.19 97.81,346C97.75,343.81 97.61,341.62 97.35,339.44C97.09,337.25 96.71,335.06 96.27,332.88C95.82,330.68 95.25,328.5 94.67,326.32C94.09,324.13 93.41,321.95 92.78,319.76C92.15,317.57 91.48,315.38 90.9,313.19C90.32,311.01 89.75,308.82 89.28,306.63C88.81,304.45 88.41,302.26 88.06,300.07C87.72,297.89 87.45,295.7 87.21,293.51C86.97,291.33 86.8,289.14 86.63,286.95C86.46,284.76 86.34,282.57 86.21,280.38C86.09,278.19 85.98,276.01 85.88,273.82C85.78,271.63 85.69,269.45 85.63,267.26C85.57,265.07 85.52,262.89 85.5,260.7C85.48,258.51 85.49,256.32 85.54,254.13C85.59,251.94 85.66,249.76 85.77,247.57C85.88,245.38 86.02,243.2 86.18,241.01C86.34,238.82 86.53,236.64 86.71,234.45C86.9,232.26 87.11,230.08 87.29,227.89C87.47,225.7 87.66,223.51 87.81,221.32C87.96,219.13 88.09,216.95 88.17,214.76C88.25,212.57 88.28,210.39 88.27,208.2Q88.26,206.01 88.09,201.64L80.91,201.64Q80.74,206.01 80.73,208.2C80.72,210.39 80.75,212.57 80.83,214.76C80.91,216.95 81.04,219.13 81.19,221.32C81.34,223.51 81.53,225.7 81.71,227.89C81.89,230.08 82.1,232.26 82.29,234.45C82.47,236.64 82.66,238.82 82.82,241.01C82.98,243.2 83.12,245.38 83.23,247.57C83.34,249.76 83.41,251.94 83.46,254.13C83.51,256.32 83.52,258.51 83.5,260.7C83.48,262.89 83.43,265.07 83.37,267.26C83.31,269.45 83.22,271.63 83.12,273.82C83.02,276.01 82.91,278.19 82.79,280.38C82.66,282.57 82.54,284.76 82.37,286.95C82.2,289.14 82.03,291.33 81.79,293.51C81.55,295.7 81.28,297.89 80.94,300.07C80.59,302.26 80.19,304.45 79.72,306.63C79.25,308.82 78.68,311.01 78.1,313.19C77.52,315.38 76.85,317.57 76.22,319.76C75.59,321.95 74.91,324.13 74.33,326.32C73.75,328.5 73.18,330.68 72.73,332.88C72.29,335.06 71.91,337.25 71.65,339.44C71.39,341.62 71.25,343.81 71.19,346C71.13,348.19 71.18,350.38 71.26,352.57C71.34,354.76 71.51,356.94 71.68,359.13C71.85,361.32 72.06,363.5 72.26,365.69C72.46,367.88 72.68,370.06 72.89,372.25C73.1,374.44 73.31,376.62 73.54,378.81C73.78,381 74.02,383.19 74.3,385.38C74.59,387.57 74.89,389.76 75.25,391.94Q75.61,394.13 76.47,398.5Z" style="vector-effect: non-scaling-stroke; stroke-width: 2px; stroke: rgb(168, 209, 209); stroke-opacity: 1; fill: rgb(168, 209, 209); fill-opacity: 0.5;"/><path class="violin" d="M254.56,398.75Q254.89,391.02 254.94,387.15C254.99,383.29 254.94,379.42 254.88,375.56C254.82,371.69 254.68,367.83 254.56,363.96C254.44,360.09 254.27,356.23 254.15,352.36C254.03,348.49 253.92,344.63 253.83,340.76C253.74,336.9 253.68,333.03 253.63,329.17C253.58,325.3 253.57,321.44 253.54,317.57C253.51,313.7 253.49,309.84 253.45,305.97C253.41,302.1 253.36,298.24 253.29,294.37C253.22,290.51 253.12,286.64 253.01,282.78C252.89,278.91 252.75,275.05 252.6,271.18C252.44,267.31 252.27,263.45 252.08,259.58C251.89,255.71 251.69,251.85 251.48,247.98C251.27,244.12 251.05,240.25 250.84,236.39C250.63,232.52 250.42,228.66 250.23,224.79C250.04,220.92 249.86,217.06 249.7,213.19C249.54,209.32 249.4,205.46 249.29,201.59C249.18,197.73 249.09,193.86 249.03,190C248.96,186.13 248.93,182.27 248.9,178.4C248.87,174.53 248.87,170.67 248.85,166.8C248.84,162.93 248.83,159.07 248.81,155.2C248.79,151.34 248.76,147.47 248.72,143.61Q248.68,139.74 248.58,132.01L246.42,132.01Q246.32,139.74 246.28,143.61C246.24,147.47 246.21,151.34 246.19,155.2C246.17,159.07 246.16,162.93 246.15,166.8C246.13,170.67 246.13,174.53 246.1,178.4C246.07,182.27 246.04,186.13 245.97,190C245.91,193.86 245.82,197.73 245.71,201.59C245.6,205.46 245.46,209.32 245.3,213.19C245.14,217.06 244.96,220.92 244.77,224.79C244.58,228.66 244.37,232.52 244.16,236.39C243.95,240.25 243.73,244.12 243.52,247.98C243.31,251.85 243.11,255.71 242.92,259.58C242.73,263.45 242.56,267.31 242.4,271.18C242.25,275.05 242.11,278.91 241.99,282.78C241.88,286.64 241.78,290.51 241.71,294.37C241.64,298.24 241.59,302.1 241.55,305.97C241.51,309.84 241.49,313.7 241.46,317.57C241.43,321.44 241.42,325.3 241.37,329.17C241.32,333.03 241.26,336.9 241.17,340.76C241.08,344.63 240.97,348.49 240.85,352.36C240.73,356.23 240.56,360.09 240.44,363.96C240.32,367.83 240.18,371.69 240.12,375.56C240.06,379.42 240.01,383.29 240.06,387.15Q240.11,391.02 240.44,398.75Z" style="vector-effect: non-scaling-stroke; stroke-width: 2px; stroke: rgb(168, 209, 209); stroke-opacity: 1; fill: rgb(168, 209, 209); fill-opacity: 0.5;"/><path class="violin" d="M418.45,399Q418.69,390.55 418.67,386.33C418.65,382.11 418.49,377.88 418.31,373.66C418.12,369.44 417.83,365.21 417.56,360.99C417.29,356.76 416.96,352.54 416.68,348.31C416.4,344.09 416.11,339.86 415.87,335.64C415.63,331.42 415.42,327.19 415.24,322.97C415.07,318.75 414.94,314.52 414.82,310.3C414.71,306.08 414.62,301.85 414.55,297.63C414.48,293.41 414.43,289.18 414.39,284.96C414.34,280.73 414.32,276.51 414.28,272.28C414.24,268.06 414.21,263.83 414.16,259.61C414.11,255.39 414.06,251.16 413.99,246.94C413.92,242.72 413.84,238.49 413.75,234.27C413.66,230.05 413.55,225.82 413.45,221.6C413.34,217.38 413.23,213.15 413.12,208.93C413.01,204.71 412.89,200.48 412.78,196.26C412.67,192.03 412.57,187.81 412.47,183.58C412.37,179.36 412.29,175.13 412.2,170.91C412.12,166.69 412.04,162.46 411.96,158.24C411.89,154.02 411.82,149.79 411.75,145.57C411.69,141.35 411.63,137.12 411.57,132.9C411.51,128.68 411.46,124.45 411.4,120.23Q411.34,116.01 411.23,107.56L409.77,107.56Q409.66,116.01 409.6,120.23C409.54,124.45 409.49,128.68 409.43,132.9C409.37,137.12 409.31,141.35 409.25,145.57C409.18,149.79 409.11,154.02 409.04,158.24C408.96,162.46 408.88,166.69 408.8,170.91C408.71,175.13 408.63,179.36 408.53,183.58C408.43,187.81 408.33,192.03 408.22,196.26C408.11,200.48 407.99,204.71 407.88,208.93C407.77,213.15 407.66,217.38 407.55,221.6C407.45,225.82 407.34,230.05 407.25,234.27C407.16,238.49 407.08,242.72 407.01,246.94C406.94,251.16 406.89,255.39 406.84,259.61C406.79,263.83 406.76,268.06 406.72,272.28C406.68,276.51 406.66,280.73 406.61,284.96C406.57,289.18 406.52,293.41 406.45,297.63C406.38,301.85 406.29,306.08 406.18,310.3C406.06,314.52 405.93,318.75 405.76,322.97C405.58,327.19 405.37,331.42 405.13,335.64C404.89,339.86 404.6,344.09 404.32,348.31C404.04,352.54 403.71,356.76 403.44,360.99C403.17,365.21 402.88,369.44 402.69,373.66C402.51,377.88 402.35,382.11 402.33,386.33Q402.31,390.55 402.55,399Z" style="vector-effect: non-scaling-stroke; stroke-width: 2px; stroke: rgb(168, 209, 209); stroke-opacity: 1; fill: rgb(168, 209, 209); fill-opacity: 0.5;"/><path class="box" d="M81.17,348.93H87.83M81.17,375.97H87.83V328.85H81.17ZM84.5,375.97V398.5M84.5,328.85V287.39" style="vector-effect: non-scaling-stroke; stroke-width: 2px; stroke: rgb(168, 209, 209); stroke-opacity: 1; fill: rgb(168, 209, 209); fill-opacity: 0.5;"/><path class="box" d="M244.17,323.25H250.83M244.17,398.75H250.83V275.74H244.17ZM247.5,398.75V398.75M247.5,275.74V132.01" style="vector-effect: non-scaling-stroke; stroke-width: 2px; stroke: rgb(168, 209, 209); stroke-opacity: 1; fill: rgb(168, 209, 209); fill-opacity: 0.5;"/><path class="box" d="M407.17,355.02H413.83M407.17,398.75H413.83V259.5H407.17ZM410.5,398.75V399M410.5,259.5V107.56" style="vector-effect: non-scaling-stroke; stroke-width: 2px; stroke: rgb(168, 209, 209); stroke-opacity: 1; fill: rgb(168, 209, 209); fill-opacity: 0.5;"/><g class="points"><path class="point" transform="translate(66.58,398.5)" d="M3,0A3,3 0 1,1 0,-3A3,3 0 0,1 3,0Z" style="opacity: 1; stroke-width: 0px; fill: rgb(168, 209, 209); fill-opacity: 1;"/><path class="point" transform="translate(62.05,398.5)" d="M3,0A3,3 0 1,1 0,-3A3,3 0 0,1 3,0Z" style="opacity: 1; stroke-width: 0px; fill: rgb(168, 209, 209); fill-opacity: 1;"/><path class="point" transform="translate(67.17,398.5)" d="M3,0A3,3 0 1,1 0,-3A3,3 0 0,1 3,0Z" style="opacity: 1; stroke-width: 0px; fill: rgb(168, 209, 209); fill-opacity: 1;"/><path class="point" transform="translate(61.51,386.96)" d="M3,0A3,3 0 1,1 0,-3A3,3 0 0,1 3,0Z" style="opacity: 1; stroke-width: 0px; fill: rgb(168, 209, 209); fill-opacity: 1;"/><path class="point" transform="translate(63.62,377.19)" d="M3,0A3,3 0 1,1 0,-3A3,3 0 0,1 3,0Z" style="opacity: 1; stroke-width: 0px; fill: rgb(168, 209, 209); fill-opacity: 1;"/><path class="point" transform="translate(66.54,374.74)" d="M3,0A3,3 0 1,1 0,-3A3,3 0 0,1 3,0Z" style="opacity: 1; stroke-width: 0px; fill: rgb(168, 209, 209); fill-opacity: 1;"/><path class="point" transform="translate(64.41,369.18)" d="M3,0A3,3 0 1,1 0,-3A3,3 0 0,1 3,0Z" style="opacity: 1; stroke-width: 0px; fill: rgb(168, 209, 209); fill-opacity: 1;"/><path class="point" transform="translate(65.52,353.68)" d="M3,0A3,3 0 1,1 0,-3A3,3 0 0,1 3,0Z" style="opacity: 1; stroke-width: 0px; fill: rgb(168, 209, 209); fill-opacity: 1;"/><path class="point" transform="translate(63.36,352.3)" d="M3,0A3,3 0 1,1 0,-3A3,3 0 0,1 3,0Z" style="opacity: 1; stroke-width: 0px; fill: rgb(168, 209, 209); fill-opacity: 1;"/><path class="point" transform="translate(61.66,350.09)" d="M3,0A3,3 0 1,1 0,-3A3,3 0 0,1 3,0Z" style="opacity: 1; stroke-width: 0px; fill: rgb(168, 209, 209); fill-opacity: 1;"/><path class="point" transform="translate(65.6,347.78)" d="M3,0A3,3 0 1,1 0,-3A3,3 0 0,1 3,0Z" style="opacity: 1; stroke-width: 0px; fill: rgb(168, 209, 209); fill-opacity: 1;"/><path class="point" transform="translate(63.54,335.52)" d="M3,0A3,3 0 1,1 0,-3A3,3 0 0,1 3,0Z" style="opacity: 1; stroke-width: 0px; fill: rgb(168, 209, 209); fill-opacity: 1;"/><path class="point" transform="translate(66.05,334.98)" d="M3,0A3,3 0 1,1 0,-3A3,3 0 0,1 3,0Z" style="opacity: 1; stroke-width: 0px; fill: rgb(168, 209, 209); fill-opacity: 1;"/><path class="point" transform="translate(62.36,332.39)" d="M3,0A3,3 0 1,1 0,-3A3,3 0 0,1 3,0Z" style="opacity: 1; stroke-width: 0px; fill: rgb(168, 209, 209); fill-opacity: 1;"/><path class="point" transform="translate(63.24,329.26)" d="M3,0A3,3 0 1,1 0,-3A3,3 0 0,1 3,0Z" style="opacity: 1; stroke-width: 0px; fill: rgb(168, 209, 209); fill-opacity: 1;"/><path class="point" transform="translate(66.42,328.44)" d="M3,0A3,3 0 1,1 0,-3A3,3 0 0,1 3,0Z" style="opacity: 1; stroke-width: 0px; fill: rgb(168, 209, 209); fill-opacity: 1;"/><path class="point" transform="translate(64.01,287.39)" d="M3,0A3,3 0 1,1 0,-3A3,3 0 0,1 3,0Z" style="opacity: 1; stroke-width: 0px; fill: rgb(168, 209, 209); fill-opacity: 1;"/><path class="point" transform="translate(62.84,225.6)" d="M3,0A3,3 0 1,1 0,-3A3,3 0 0,1 3,0Z" style="opacity: 1; stroke-width: 0px; fill: rgb(168, 209, 209); fill-opacity: 1;"/><path class="point" transform="translate(63.92,203.95)" d="M3,0A3,3 0 1,1 0,-3A3,3 0 0,1 3,0Z" style="opacity: 1; stroke-width: 0px; fill: rgb(168, 209, 209); fill-opacity: 1;"/><path class="point" transform="translate(64.5,201.64)" d="M3,0A3,3 0 1,1 0,-3A3,3 0 0,1 3,0Z" style="opacity: 1; stroke-width: 0px; fill: rgb(168, 209, 209); fill-opacity: 1;"/></g><g class="points"><path class="point" transform="translate(229.33,398.75)" d="M3,0A3,3 0 1,1 0,-3A3,3 0 0,1 3,0Z" style="opacity: 1; stroke-width: 0px; fill: rgb(168, 209, 209); fill-opacity: 1;"/><path class="point" transform="translate(227.98,398.75)" d="M3,0A3,3 0 1,1 0,-3A3,3 0 0,1 3,0Z" style="opacity: 1; stroke-width: 0px; fill: rgb(168, 209, 209); fill-opacity: 1;"/><path class="point" transform="translate(226.41,398.75)" d="M3,0A3,3 0 1,1 0,-3A3,3 0 0,1 3,0Z" style="opacity: 1; stroke-width: 0px; fill: rgb(168, 209, 209); fill-opacity: 1;"/><path class="point" transform="translate(224.19,398.75)" d="M3,0A3,3 0 1,1 0,-3A3,3 0 0,1 3,0Z" style="opacity: 1; stroke-width: 0px; fill: rgb(168, 209, 209); fill-opacity: 1;"/><path class="point" transform="translate(227.52,398.75)" d="M3,0A3,3 0 1,1 0,-3A3,3 0 0,1 3,0Z" style="opacity: 1; stroke-width: 0px; fill: rgb(168, 209, 209); fill-opacity: 1;"/><path class="point" transform="translate(226.37,398.75)" d="M3,0A3,3 0 1,1 0,-3A3,3 0 0,1 3,0Z" style="opacity: 1; stroke-width: 0px; fill: rgb(168, 209, 209); fill-opacity: 1;"/><path class="point" transform="translate(229.39,398.75)" d="M3,0A3,3 0 1,1 0,-3A3,3 0 0,1 3,0Z" style="opacity: 1; stroke-width: 0px; fill: rgb(168, 209, 209); fill-opacity: 1;"/><path class="point" transform="translate(227.18,398.75)" d="M3,0A3,3 0 1,1 0,-3A3,3 0 0,1 3,0Z" style="opacity: 1; stroke-width: 0px; fill: rgb(168, 209, 209); fill-opacity: 1;"/><path class="point" transform="translate(224.92,398.75)" d="M3,0A3,3 0 1,1 0,-3A3,3 0 0,1 3,0Z" style="opacity: 1; stroke-width: 0px; fill: rgb(168, 209, 209); fill-opacity: 1;"/><path class="point" transform="translate(223.81,398.75)" d="M3,0A3,3 0 1,1 0,-3A3,3 0 0,1 3,0Z" style="opacity: 1; stroke-width: 0px; fill: rgb(168, 209, 209); fill-opacity: 1;"/><path class="point" transform="translate(229.78,398.75)" d="M3,0A3,3 0 1,1 0,-3A3,3 0 0,1 3,0Z" style="opacity: 1; stroke-width: 0px; fill: rgb(168, 209, 209); fill-opacity: 1;"/><path class="point" transform="translate(224.12,398.75)" d="M3,0A3,3 0 1,1 0,-3A3,3 0 0,1 3,0Z" style="opacity: 1; stroke-width: 0px; fill: rgb(168, 209, 209); fill-opacity: 1;"/><path class="point" transform="translate(229.48,398.75)" d="M3,0A3,3 0 1,1 0,-3A3,3 0 0,1 3,0Z" style="opacity: 1; stroke-width: 0px; fill: rgb(168, 209, 209); fill-opacity: 1;"/><path class="point" transform="translate(228.14,398.75)" d="M3,0A3,3 0 1,1 0,-3A3,3 0 0,1 3,0Z" style="opacity: 1; stroke-width: 0px; fill: rgb(168, 209, 209); fill-opacity: 1;"/><path class="point" transform="translate(226.72,397.43)" d="M3,0A3,3 0 1,1 0,-3A3,3 0 0,1 3,0Z" style="opacity: 1; stroke-width: 0px; fill: rgb(168, 209, 209); fill-opacity: 1;"/><path class="point" transform="translate(226.04,395.87)" d="M3,0A3,3 0 1,1 0,-3A3,3 0 0,1 3,0Z" style="opacity: 1; stroke-width: 0px; fill: rgb(168, 209, 209); fill-opacity: 1;"/><path class="point" transform="translate(228.56,388.95)" d="M3,0A3,3 0 1,1 0,-3A3,3 0 0,1 3,0Z" style="opacity: 1; stroke-width: 0px; fill: rgb(168, 209, 209); fill-opacity: 1;"/><path class="point" transform="translate(227.29,380.47)" d="M3,0A3,3 0 1,1 0,-3A3,3 0 0,1 3,0Z" style="opacity: 1; stroke-width: 0px; fill: rgb(168, 209, 209); fill-opacity: 1;"/><path class="point" transform="translate(228.83,373.51)" d="M3,0A3,3 0 1,1 0,-3A3,3 0 0,1 3,0Z" style="opacity: 1; stroke-width: 0px; fill: rgb(168, 209, 209); fill-opacity: 1;"/><path class="point" transform="translate(226.12,372.34)" d="M3,0A3,3 0 1,1 0,-3A3,3 0 0,1 3,0Z" style="opacity: 1; stroke-width: 0px; fill: rgb(168, 209, 209); fill-opacity: 1;"/><path class="point" transform="translate(228.58,367.89)" d="M3,0A3,3 0 1,1 0,-3A3,3 0 0,1 3,0Z" style="opacity: 1; stroke-width: 0px; fill: rgb(168, 209, 209); fill-opacity: 1;"/><path class="point" transform="translate(227.39,360.81)" d="M3,0A3,3 0 1,1 0,-3A3,3 0 0,1 3,0Z" style="opacity: 1; stroke-width: 0px; fill: rgb(168, 209, 209); fill-opacity: 1;"/><path class="point" transform="translate(226.84,359.62)" d="M3,0A3,3 0 1,1 0,-3A3,3 0 0,1 3,0Z" style="opacity: 1; stroke-width: 0px; fill: rgb(168, 209, 209); fill-opacity: 1;"/><path class="point" transform="translate(225.71,343.56)" d="M3,0A3,3 0 1,1 0,-3A3,3 0 0,1 3,0Z" style="opacity: 1; stroke-width: 0px; fill: rgb(168, 209, 209); fill-opacity: 1;"/><path class="point" transform="translate(226.83,328.03)" d="M3,0A3,3 0 1,1 0,-3A3,3 0 0,1 3,0Z" style="opacity: 1; stroke-width: 0px; fill: rgb(168, 209, 209); fill-opacity: 1;"/><path class="point" transform="translate(228.78,323.25)" d="M3,0A3,3 0 1,1 0,-3A3,3 0 0,1 3,0Z" style="opacity: 1; stroke-width: 0px; fill: rgb(168, 209, 209); fill-opacity: 1;"/><path class="point" transform="translate(227.07,320.43)" d="M3,0A3,3 0 1,1 0,-3A3,3 0 0,1 3,0Z" style="opacity: 1; stroke-width: 0px; fill: rgb(168, 209, 209); fill-opacity: 1;"/><path class="point" transform="translate(226.02,317.7)" d="M3,0A3,3 0 1,1 0,-3A3,3 0 0,1 3,0Z" style="opacity: 1; stroke-width: 0px; fill: rgb(168, 209, 209); fill-opacity: 1;"/><path class="point" transform="translate(228.6,316.15)" d="M3,0A3,3 0 1,1 0,-3A3,3 0 0,1 3,0Z" style="opacity: 1; stroke-width: 0px; fill: rgb(168, 209, 209); fill-opacity: 1;"/><path class="point" transform="translate(226.06,312.04)" d="M3,0A3,3 0 1,1 0,-3A3,3 0 0,1 3,0Z" style="opacity: 1; stroke-width: 0px; fill: rgb(168, 209, 209); fill-opacity: 1;"/><path class="point" transform="translate(227.53,311.75)" d="M3,0A3,3 0 1,1 0,-3A3,3 0 0,1 3,0Z" style="opacity: 1; stroke-width: 0px; fill: rgb(168, 209, 209); fill-opacity: 1;"/><path class="point" transform="translate(228.45,309.39)" d="M3,0A3,3 0 1,1 0,-3A3,3 0 0,1 3,0Z" style="opacity: 1; stroke-width: 0px; fill: rgb(168, 209, 209); fill-opacity: 1;"/><path class="point" transform="translate(225.39,308.17)" d="M3,0A3,3 0 1,1 0,-3A3,3 0 0,1 3,0Z" style="opacity: 1; stroke-width: 0px; fill: rgb(168, 209, 209); fill-opacity: 1;"/><path class="point" transform="translate(229.58,303.65)" d="M3,0A3,3 0 1,1 0,-3A3,3 0 0,1 3,0Z" style="opacity: 1; stroke-width: 0px; fill: rgb(168, 209, 209); fill-opacity: 1;"/><path class="point" transform="translate(228.47,301.93)" d="M3,0A3,3 0 1,1 0,-3A3,3 0 0,1 3,0Z" style="opacity: 1; stroke-width: 0px; fill: rgb(168, 209, 209); fill-opacity: 1;"/><path class="point" transform="translate(225.6,281.31)" d="M3,0A3,3 0 1,1 0,-3A3,3 0 0,1 3,0Z" style="opacity: 1; stroke-width: 0px; fill: rgb(168, 209, 209); fill-opacity: 1;"/><path class="point" transform="translate(229.19,277.91)" d="M3,0A3,3 0 1,1 0,-3A3,3 0 0,1 3,0Z" style="opacity: 1; stroke-width: 0px; fill: rgb(168, 209, 209); fill-opacity: 1;"/><path class="point" transform="translate(226.26,277.28)" d="M3,0A3,3 0 1,1 0,-3A3,3 0 0,1 3,0Z" style="opacity: 1; stroke-width: 0px; fill: rgb(168, 209, 209); fill-opacity: 1;"/><path class="point" transform="translate(227.32,275.22)" d="M3,0A3,3 0 1,1 0,-3A3,3 0 0,1 3,0Z" style="opacity: 1; stroke-width: 0px; fill: rgb(168, 209, 209); fill-opacity: 1;"/><path class="point" transform="translate(227.75,273.58)" d="M3,0A3,3 0 1,1 0,-3A3,3 0 0,1 3,0Z" style="opacity: 1; stroke-width: 0px; fill: rgb(168, 209, 209); fill-opacity: 1;"/><path class="point" transform="translate(226.67,270.51)" d="M3,0A3,3 0 1,1 0,-3A3,3 0 0,1 3,0Z" style="opacity: 1; stroke-width: 0px; fill: rgb(168, 209, 209); fill-opacity: 1;"/><path class="point" transform="translate(228.88,264.43)" d="M3,0A3,3 0 1,1 0,-3A3,3 0 0,1 3,0Z" style="opacity: 1; stroke-width: 0px; fill: rgb(168, 209, 209); fill-opacity: 1;"/><path class="point" transform="translate(226.69,243.09)" d="M3,0A3,3 0 1,1 0,-3A3,3 0 0,1 3,0Z" style="opacity: 1; stroke-width: 0px; fill: rgb(168, 209, 209); fill-opacity: 1;"/><path class="point" transform="translate(228.01,241.58)" d="M3,0A3,3 0 1,1 0,-3A3,3 0 0,1 3,0Z" style="opacity: 1; stroke-width: 0px; fill: rgb(168, 209, 209); fill-opacity: 1;"/><path class="point" transform="translate(228.45,236.37)" d="M3,0A3,3 0 1,1 0,-3A3,3 0 0,1 3,0Z" style="opacity: 1; stroke-width: 0px; fill: rgb(168, 209, 209); fill-opacity: 1;"/><path class="point" transform="translate(226.41,235.58)" d="M3,0A3,3 0 1,1 0,-3A3,3 0 0,1 3,0Z" style="opacity: 1; stroke-width: 0px; fill: rgb(168, 209, 209); fill-opacity: 1;"/><path class="point" transform="translate(226.9,234.1)" d="M3,0A3,3 0 1,1 0,-3A3,3 0 0,1 3,0Z" style="opacity: 1; stroke-width: 0px; fill: rgb(168, 209, 209); fill-opacity: 1;"/><path class="point" transform="translate(228.17,168.72)" d="M3,0A3,3 0 1,1 0,-3A3,3 0 0,1 3,0Z" style="opacity: 1; stroke-width: 0px; fill: rgb(168, 209, 209); fill-opacity: 1;"/><path class="point" transform="translate(227.24,154.19)" d="M3,0A3,3 0 1,1 0,-3A3,3 0 0,1 3,0Z" style="opacity: 1; stroke-width: 0px; fill: rgb(168, 209, 209); fill-opacity: 1;"/><path class="point" transform="translate(227.62,147.63)" d="M3,0A3,3 0 1,1 0,-3A3,3 0 0,1 3,0Z" style="opacity: 1; stroke-width: 0px; fill: rgb(168, 209, 209); fill-opacity: 1;"/><path class="point" transform="translate(228.36,132.01)" d="M3,0A3,3 0 1,1 0,-3A3,3 0 0,1 3,0Z" style="opacity: 1; stroke-width: 0px; fill: rgb(168, 209, 209); fill-opacity: 1;"/></g><g class="points"><path class="point" transform="translate(387.44,399)" d="M3,0A3,3 0 1,1 0,-3A3,3 0 0,1 3,0Z" style="opacity: 1; stroke-width: 0px; fill: rgb(168, 209, 209); fill-opacity: 1;"/><path class="point" transform="translate(394.51,399)" d="M3,0A3,3 0 1,1 0,-3A3,3 0 0,1 3,0Z" style="opacity: 1; stroke-width: 0px; fill: rgb(168, 209, 209); fill-opacity: 1;"/><path class="point" transform="translate(387.56,399)" d="M3,0A3,3 0 1,1 0,-3A3,3 0 0,1 3,0Z" style="opacity: 1; stroke-width: 0px; fill: rgb(168, 209, 209); fill-opacity: 1;"/><path class="point" transform="translate(394.47,399)" d="M3,0A3,3 0 1,1 0,-3A3,3 0 0,1 3,0Z" style="opacity: 1; stroke-width: 0px; fill: rgb(168, 209, 209); fill-opacity: 1;"/><path class="point" transform="translate(388.6,398.75)" d="M3,0A3,3 0 1,1 0,-3A3,3 0 0,1 3,0Z" style="opacity: 1; stroke-width: 0px; fill: rgb(168, 209, 209); fill-opacity: 1;"/><path class="point" transform="translate(393.54,398.75)" d="M3,0A3,3 0 1,1 0,-3A3,3 0 0,1 3,0Z" style="opacity: 1; stroke-width: 0px; fill: rgb(168, 209, 209); fill-opacity: 1;"/><path class="point" transform="translate(391.66,398.75)" d="M3,0A3,3 0 1,1 0,-3A3,3 0 0,1 3,0Z" style="opacity: 1; stroke-width: 0px; fill: rgb(168, 209, 209); fill-opacity: 1;"/><path class="point" transform="translate(390,398.75)" d="M3,0A3,3 0 1,1 0,-3A3,3 0 0,1 3,0Z" style="opacity: 1; stroke-width: 0px; fill: rgb(168, 209, 209); fill-opacity: 1;"/><path class="point" transform="translate(386.77,398.75)" d="M3,0A3,3 0 1,1 0,-3A3,3 0 0,1 3,0Z" style="opacity: 1; stroke-width: 0px; fill: rgb(168, 209, 209); fill-opacity: 1;"/><path class="point" transform="translate(389.87,398.75)" d="M3,0A3,3 0 1,1 0,-3A3,3 0 0,1 3,0Z" style="opacity: 1; stroke-width: 0px; fill: rgb(168, 209, 209); fill-opacity: 1;"/><path class="point" transform="translate(387.2,398.75)" d="M3,0A3,3 0 1,1 0,-3A3,3 0 0,1 3,0Z" style="opacity: 1; stroke-width: 0px; fill: rgb(168, 209, 209); fill-opacity: 1;"/><path class="point" transform="translate(388.34,398.75)" d="M3,0A3,3 0 1,1 0,-3A3,3 0 0,1 3,0Z" style="opacity: 1; stroke-width: 0px; fill: rgb(168, 209, 209); fill-opacity: 1;"/><path class="point" transform="translate(387.41,398.75)" d="M3,0A3,3 0 1,1 0,-3A3,3 0 0,1 3,0Z" style="opacity: 1; stroke-width: 0px; fill: rgb(168, 209, 209); fill-opacity: 1;"/><path class="point" transform="translate(386.57,398.75)" d="M3,0A3,3 0 1,1 0,-3A3,3 0 0,1 3,0Z" style="opacity: 1; stroke-width: 0px; fill: rgb(168, 209, 209); fill-opacity: 1;"/><path class="point" transform="translate(388.41,398.75)" d="M3,0A3,3 0 1,1 0,-3A3,3 0 0,1 3,0Z" style="opacity: 1; stroke-width: 0px; fill: rgb(168, 209, 209); fill-opacity: 1;"/><path class="point" transform="translate(391.87,398.75)" d="M3,0A3,3 0 1,1 0,-3A3,3 0 0,1 3,0Z" style="opacity: 1; stroke-width: 0px; fill: rgb(168, 209, 209); fill-opacity: 1;"/><path class="point" transform="translate(387.09,398.75)" d="M3,0A3,3 0 1,1 0,-3A3,3 0 0,1 3,0Z" style="opacity: 1; stroke-width: 0px; fill: rgb(168, 209, 209); fill-opacity: 1;"/><path class="point" transform="translate(391.43,398.75)" d="M3,0A3,3 0 1,1 0,-3A3,3 0 0,1 3,0Z" style="opacity: 1; stroke-width: 0px; fill: rgb(168, 209, 209); fill-opacity: 1;"/><path class="point" transform="translate(392.47,398.75)" d="M3,0A3,3 0 1,1 0,-3A3,3 0 0,1 3,0Z" style="opacity: 1; stroke-width: 0px; fill: rgb(168, 209, 209); fill-opacity: 1;"/><path class="point" transform="translate(391.01,398.75)" d="M3,0A3,3 0 1,1 0,-3A3,3 0 0,1 3,0Z" style="opacity: 1; stroke-width: 0px; fill: rgb(168, 209, 209); fill-opacity: 1;"/><path class="point" transform="translate(388.19,398.75)" d="M3,0A3,3 0 1,1 0,-3A3,3 0 0,1 3,0Z" style="opacity: 1; stroke-width: 0px; fill: rgb(168, 209, 209); fill-opacity: 1;"/><path class="point" transform="translate(389.18,398.75)" d="M3,0A3,3 0 1,1 0,-3A3,3 0 0,1 3,0Z" style="opacity: 1; stroke-width: 0px; fill: rgb(168, 209, 209); fill-opacity: 1;"/><path class="point" transform="translate(393.79,398.75)" d="M3,0A3,3 0 1,1 0,-3A3,3 0 0,1 3,0Z" style="opacity: 1; stroke-width: 0px; fill: rgb(168, 209, 209); fill-opacity: 1;"/><path class="point" transform="translate(388.94,398.75)" d="M3,0A3,3 0 1,1 0,-3A3,3 0 0,1 3,0Z" style="opacity: 1; stroke-width: 0px; fill: rgb(168, 209, 209); fill-opacity: 1;"/><path class="point" transform="translate(390.84,398.75)" d="M3,0A3,3 0 1,1 0,-3A3,3 0 0,1 3,0Z" style="opacity: 1; stroke-width: 0px; fill: rgb(168, 209, 209); fill-opacity: 1;"/><path class="point" transform="translate(392.16,398.75)" d="M3,0A3,3 0 1,1 0,-3A3,3 0 0,1 3,0Z" style="opacity: 1; stroke-width: 0px; fill: rgb(168, 209, 209); fill-opacity: 1;"/><path class="point" transform="translate(388.66,386.07)" d="M3,0A3,3 0 1,1 0,-3A3,3 0 0,1 3,0Z" style="opacity: 1; stroke-width: 0px; fill: rgb(168, 209, 209); fill-opacity: 1;"/><path class="point" transform="translate(390.24,379.16)" d="M3,0A3,3 0 1,1 0,-3A3,3 0 0,1 3,0Z" style="opacity: 1; stroke-width: 0px; fill: rgb(168, 209, 209); fill-opacity: 1;"/><path class="point" transform="translate(392.41,374.82)" d="M3,0A3,3 0 1,1 0,-3A3,3 0 0,1 3,0Z" style="opacity: 1; stroke-width: 0px; fill: rgb(168, 209, 209); fill-opacity: 1;"/><path class="point" transform="translate(388.71,368.91)" d="M3,0A3,3 0 1,1 0,-3A3,3 0 0,1 3,0Z" style="opacity: 1; stroke-width: 0px; fill: rgb(168, 209, 209); fill-opacity: 1;"/><path class="point" transform="translate(390.15,366.29)" d="M3,0A3,3 0 1,1 0,-3A3,3 0 0,1 3,0Z" style="opacity: 1; stroke-width: 0px; fill: rgb(168, 209, 209); fill-opacity: 1;"/><path class="point" transform="translate(391.53,355.02)" d="M3,0A3,3 0 1,1 0,-3A3,3 0 0,1 3,0Z" style="opacity: 1; stroke-width: 0px; fill: rgb(168, 209, 209); fill-opacity: 1;"/><path class="point" transform="translate(392.02,351.4)" d="M3,0A3,3 0 1,1 0,-3A3,3 0 0,1 3,0Z" style="opacity: 1; stroke-width: 0px; fill: rgb(168, 209, 209); fill-opacity: 1;"/><path class="point" transform="translate(392.39,349.55)" d="M3,0A3,3 0 1,1 0,-3A3,3 0 0,1 3,0Z" style="opacity: 1; stroke-width: 0px; fill: rgb(168, 209, 209); fill-opacity: 1;"/><path class="point" transform="translate(388.83,345.64)" d="M3,0A3,3 0 1,1 0,-3A3,3 0 0,1 3,0Z" style="opacity: 1; stroke-width: 0px; fill: rgb(168, 209, 209); fill-opacity: 1;"/><path class="point" transform="translate(390.99,334.44)" d="M3,0A3,3 0 1,1 0,-3A3,3 0 0,1 3,0Z" style="opacity: 1; stroke-width: 0px; fill: rgb(168, 209, 209); fill-opacity: 1;"/><path class="point" transform="translate(388.46,332.01)" d="M3,0A3,3 0 1,1 0,-3A3,3 0 0,1 3,0Z" style="opacity: 1; stroke-width: 0px; fill: rgb(168, 209, 209); fill-opacity: 1;"/><path class="point" transform="translate(392.49,323.25)" d="M3,0A3,3 0 1,1 0,-3A3,3 0 0,1 3,0Z" style="opacity: 1; stroke-width: 0px; fill: rgb(168, 209, 209); fill-opacity: 1;"/><path class="point" transform="translate(390.87,316.67)" d="M3,0A3,3 0 1,1 0,-3A3,3 0 0,1 3,0Z" style="opacity: 1; stroke-width: 0px; fill: rgb(168, 209, 209); fill-opacity: 1;"/><path class="point" transform="translate(389.97,309.69)" d="M3,0A3,3 0 1,1 0,-3A3,3 0 0,1 3,0Z" style="opacity: 1; stroke-width: 0px; fill: rgb(168, 209, 209); fill-opacity: 1;"/><path class="point" transform="translate(392.14,307.86)" d="M3,0A3,3 0 1,1 0,-3A3,3 0 0,1 3,0Z" style="opacity: 1; stroke-width: 0px; fill: rgb(168, 209, 209); fill-opacity: 1;"/><path class="point" transform="translate(389.4,307.55)" d="M3,0A3,3 0 1,1 0,-3A3,3 0 0,1 3,0Z" style="opacity: 1; stroke-width: 0px; fill: rgb(168, 209, 209); fill-opacity: 1;"/><path class="point" transform="translate(389.78,303.31)" d="M3,0A3,3 0 1,1 0,-3A3,3 0 0,1 3,0Z" style="opacity: 1; stroke-width: 0px; fill: rgb(168, 209, 209); fill-opacity: 1;"/><path class="point" transform="translate(390.27,291.87)" d="M3,0A3,3 0 1,1 0,-3A3,3 0 0,1 3,0Z" style="opacity: 1; stroke-width: 0px; fill: rgb(168, 209, 209); fill-opacity: 1;"/><path class="point" transform="translate(391.47,290.57)" d="M3,0A3,3 0 1,1 0,-3A3,3 0 0,1 3,0Z" style="opacity: 1; stroke-width: 0px; fill: rgb(168, 209, 209); fill-opacity: 1;"/><path class="point" transform="translate(389.66,262.84)" d="M3,0A3,3 0 1,1 0,-3A3,3 0 0,1 3,0Z" style="opacity: 1; stroke-width: 0px; fill: rgb(168, 209, 209); fill-opacity: 1;"/><path class="point" transform="translate(390.38,259.5)" d="M3,0A3,3 0 1,1 0,-3A3,3 0 0,1 3,0Z" style="opacity: 1; stroke-width: 0px; fill: rgb(168, 209, 209); fill-opacity: 1;"/><path class="point" transform="translate(389.8,259.5)" d="M3,0A3,3 0 1,1 0,-3A3,3 0 0,1 3,0Z" style="opacity: 1; stroke-width: 0px; fill: rgb(168, 209, 209); fill-opacity: 1;"/><path class="point" transform="translate(391.97,258.25)" d="M3,0A3,3 0 1,1 0,-3A3,3 0 0,1 3,0Z" style="opacity: 1; stroke-width: 0px; fill: rgb(168, 209, 209); fill-opacity: 1;"/><path class="point" transform="translate(390.17,257.66)" d="M3,0A3,3 0 1,1 0,-3A3,3 0 0,1 3,0Z" style="opacity: 1; stroke-width: 0px; fill: rgb(168, 209, 209); fill-opacity: 1;"/><path class="point" transform="translate(391.86,250.42)" d="M3,0A3,3 0 1,1 0,-3A3,3 0 0,1 3,0Z" style="opacity: 1; stroke-width: 0px; fill: rgb(168, 209, 209); fill-opacity: 1;"/><path class="point" transform="translate(390.61,245.55)" d="M3,0A3,3 0 1,1 0,-3A3,3 0 0,1 3,0Z" style="opacity: 1; stroke-width: 0px; fill: rgb(168, 209, 209); fill-opacity: 1;"/><path class="point" transform="translate(391.55,236.37)" d="M3,0A3,3 0 1,1 0,-3A3,3 0 0,1 3,0Z" style="opacity: 1; stroke-width: 0px; fill: rgb(168, 209, 209); fill-opacity: 1;"/><path class="point" transform="translate(389.44,230.84)" d="M3,0A3,3 0 1,1 0,-3A3,3 0 0,1 3,0Z" style="opacity: 1; stroke-width: 0px; fill: rgb(168, 209, 209); fill-opacity: 1;"/><path class="point" transform="translate(390.74,228.29)" d="M3,0A3,3 0 1,1 0,-3A3,3 0 0,1 3,0Z" style="opacity: 1; stroke-width: 0px; fill: rgb(168, 209, 209); fill-opacity: 1;"/><path class="point" transform="translate(391.34,221.54)" d="M3,0A3,3 0 1,1 0,-3A3,3 0 0,1 3,0Z" style="opacity: 1; stroke-width: 0px; fill: rgb(168, 209, 209); fill-opacity: 1;"/><path class="point" transform="translate(390.62,208.28)" d="M3,0A3,3 0 1,1 0,-3A3,3 0 0,1 3,0Z" style="opacity: 1; stroke-width: 0px; fill: rgb(168, 209, 209); fill-opacity: 1;"/><path class="point" transform="translate(391.02,181.87)" d="M3,0A3,3 0 1,1 0,-3A3,3 0 0,1 3,0Z" style="opacity: 1; stroke-width: 0px; fill: rgb(168, 209, 209); fill-opacity: 1;"/><path class="point" transform="translate(391.54,181.08)" d="M3,0A3,3 0 1,1 0,-3A3,3 0 0,1 3,0Z" style="opacity: 1; stroke-width: 0px; fill: rgb(168, 209, 209); fill-opacity: 1;"/><path class="point" transform="translate(390.01,174.72)" d="M3,0A3,3 0 1,1 0,-3A3,3 0 0,1 3,0Z" style="opacity: 1; stroke-width: 0px; fill: rgb(168, 209, 209); fill-opacity: 1;"/><path class="point" transform="translate(391.23,153.57)" d="M3,0A3,3 0 1,1 0,-3A3,3 0 0,1 3,0Z" style="opacity: 1; stroke-width: 0px; fill: rgb(168, 209, 209); fill-opacity: 1;"/><path class="point" transform="translate(390.85,119.03)" d="M3,0A3,3 0 1,1 0,-3A3,3 0 0,1 3,0Z" style="opacity: 1; stroke-width: 0px; fill: rgb(168, 209, 209); fill-opacity: 1;"/><path class="point" transform="translate(391.33,107.56)" d="M3,0A3,3 0 1,1 0,-3A3,3 0 0,1 3,0Z" style="opacity: 1; stroke-width: 0px; fill: rgb(168, 209, 209); fill-opacity: 1;"/></g></g><g class="trace violins" style="opacity: 1;"><path class="violin" d="M288.8,350.62Q288.74,344.99 288.64,342.17C288.54,339.35 288.36,336.54 288.19,333.72C288.02,330.9 287.8,328.08 287.62,325.26C287.44,322.44 287.25,319.63 287.13,316.81C287.01,313.99 286.91,311.18 286.91,308.36C286.91,305.54 286.96,302.72 287.12,299.91C287.28,297.09 287.53,294.27 287.89,291.46C288.25,288.63 288.72,285.81 289.27,283C289.83,280.17 290.52,277.36 291.22,274.55C291.93,271.73 292.75,268.92 293.5,266.1C294.25,263.28 295.07,260.48 295.74,257.65C296.4,254.84 297.05,252.03 297.49,249.2C297.93,246.39 298.25,243.57 298.39,240.75C298.53,237.93 298.48,235.1 298.31,232.29C298.14,229.47 297.78,226.65 297.38,223.84C296.98,221.02 296.42,218.2 295.89,215.39C295.36,212.57 294.76,209.76 294.2,206.94C293.64,204.12 293.06,201.31 292.52,198.49C291.99,195.68 291.47,192.86 290.99,190.04C290.51,187.22 290.05,184.4 289.62,181.58C289.2,178.76 288.8,175.95 288.44,173.13C288.08,170.32 287.75,167.5 287.46,164.68C287.17,161.87 286.93,159.05 286.72,156.23C286.51,153.41 286.34,150.6 286.2,147.78C286.06,144.96 285.96,142.14 285.87,139.32C285.79,136.5 285.74,133.69 285.69,130.87C285.65,128.05 285.62,125.24 285.6,122.42C285.58,119.6 285.57,116.79 285.56,113.97C285.55,111.15 285.56,108.34 285.56,105.52C285.56,102.7 285.57,99.89 285.58,97.07C285.59,94.25 285.6,91.43 285.63,88.61C285.66,85.79 285.7,82.98 285.76,80.16C285.82,77.34 285.89,74.53 285.99,71.71C286.09,68.89 286.22,66.08 286.37,63.26C286.52,60.44 286.71,57.63 286.9,54.81C287.09,51.99 287.32,49.18 287.53,46.36C287.74,43.54 287.98,40.72 288.16,37.9C288.34,35.08 288.51,32.27 288.62,29.45Q288.73,26.63 288.8,21L282.27,21Q282.33,26.63 282.44,29.45C282.55,32.27 282.73,35.08 282.91,37.9C283.09,40.72 283.32,43.54 283.53,46.36C283.74,49.18 283.97,51.99 284.17,54.81C284.36,57.63 284.55,60.44 284.7,63.26C284.85,66.08 284.97,68.89 285.07,71.71C285.17,74.53 285.25,77.34 285.31,80.16C285.37,82.98 285.4,85.79 285.43,88.61C285.46,91.43 285.48,94.25 285.49,97.07C285.5,99.89 285.51,102.7 285.51,105.52C285.51,108.34 285.51,111.15 285.5,113.97C285.49,116.79 285.49,119.6 285.47,122.42C285.45,125.24 285.42,128.05 285.38,130.87C285.33,133.69 285.28,136.5 285.2,139.32C285.11,142.14 285.01,144.96 284.87,147.78C284.73,150.6 284.56,153.41 284.35,156.23C284.14,159.05 283.89,161.87 283.6,164.68C283.31,167.5 282.99,170.32 282.63,173.13C282.27,175.95 281.87,178.76 281.45,181.58C281.02,184.4 280.56,187.22 280.08,190.04C279.59,192.86 279.07,195.68 278.54,198.49C278,201.31 277.43,204.12 276.87,206.94C276.31,209.76 275.7,212.57 275.17,215.39C274.64,218.2 274.09,221.02 273.69,223.84C273.29,226.65 272.92,229.47 272.75,232.29C272.58,235.1 272.53,237.93 272.67,240.75C272.81,243.57 273.13,246.39 273.57,249.2C274.01,252.03 274.67,254.84 275.33,257.65C276,260.48 276.82,263.28 277.57,266.1C278.32,268.92 279.15,271.73 279.85,274.55C280.55,277.36 281.23,280.17 281.79,283C282.34,285.81 282.82,288.63 283.18,291.46C283.54,294.27 283.78,297.09 283.94,299.91C284.1,302.72 284.15,305.54 284.15,308.36C284.15,311.18 284.05,313.99 283.93,316.81C283.81,319.63 283.61,322.44 283.44,325.26C283.26,328.08 283.05,330.9 282.88,333.72C282.71,336.54 282.53,339.35 282.43,342.17Q282.33,344.99 282.27,350.62Z" style="vector-effect: non-scaling-stroke; stroke-width: 2px; stroke: rgb(241, 247, 181); stroke-opacity: 1; fill: rgb(241, 247, 181); fill-opacity: 0.5;"/><path class="box" d="M282.21,238.8H288.86M282.21,250.54H288.86V202.43H282.21ZM285.53,250.54V253.1M285.53,202.43V194.28" style="vector-effect: non-scaling-stroke; stroke-width: 2px; stroke: rgb(241, 247, 181); stroke-opacity: 1; fill: rgb(241, 247, 181); fill-opacity: 0.5;"/><g class="points"><path class="point" transform="translate(267.64,350.62)" d="M3,0A3,3 0 1,1 0,-3A3,3 0 0,1 3,0Z" style="opacity: 1; stroke-width: 0px; fill: rgb(241, 247, 181); fill-opacity: 1;"/><path class="point" transform="translate(263.65,253.1)" d="M3,0A3,3 0 1,1 0,-3A3,3 0 0,1 3,0Z" style="opacity: 1; stroke-width: 0px; fill: rgb(241, 247, 181); fill-opacity: 1;"/><path class="point" transform="translate(267.9,242.86)" d="M3,0A3,3 0 1,1 0,-3A3,3 0 0,1 3,0Z" style="opacity: 1; stroke-width: 0px; fill: rgb(241, 247, 181); fill-opacity: 1;"/><path class="point" transform="translate(263.02,238.8)" d="M3,0A3,3 0 1,1 0,-3A3,3 0 0,1 3,0Z" style="opacity: 1; stroke-width: 0px; fill: rgb(241, 247, 181); fill-opacity: 1;"/><path class="point" transform="translate(264.82,226.88)" d="M3,0A3,3 0 1,1 0,-3A3,3 0 0,1 3,0Z" style="opacity: 1; stroke-width: 0px; fill: rgb(241, 247, 181); fill-opacity: 1;"/><path class="point" transform="translate(267.15,194.28)" d="M3,0A3,3 0 1,1 0,-3A3,3 0 0,1 3,0Z" style="opacity: 1; stroke-width: 0px; fill: rgb(241, 247, 181); fill-opacity: 1;"/><path class="point" transform="translate(265.44,21)" d="M3,0A3,3 0 1,1 0,-3A3,3 0 0,1 3,0Z" style="opacity: 1; stroke-width: 0px; fill: rgb(241, 247, 181); fill-opacity: 1;"/></g></g></g></g><g class="overplot"/><path class="xlines-above crisp" d="M0,0" style="fill: none;"/><path class="ylines-above crisp" d="M0,0" style="fill: none;"/><g class="overlines-above"/><g class="xaxislayer-above"><g class="xtick"><text text-anchor="middle" x="0" y="539" transform="translate(164.5,0)" style="font-family: Helvetica; font-size: 18px; fill: rgb(42, 63, 95); fill-opacity: 1; white-space: pre; opacity: 1;">2</text></g><g class="xtick"><text text-anchor="middle" x="0" y="539" style="font-family: Helvetica; font-size: 18px; fill: rgb(42, 63, 95); fill-opacity: 1; white-space: pre; opacity: 1;" transform="translate(327.5,0)">3</text></g><g class="xtick"><text text-anchor="middle" x="0" y="539" style="font-family: Helvetica; font-size: 18px; fill: rgb(42, 63, 95); fill-opacity: 1; white-space: pre; opacity: 1;" transform="translate(490.5,0)">4</text></g></g><g class="yaxislayer-above"><g class="ytick"><text text-anchor="end" x="79" y="6.3" transform="translate(0,499)" style="font-family: Helvetica; font-size: 18px; fill: rgb(42, 63, 95); fill-opacity: 1; white-space: pre; opacity: 1;">4</text></g><g class="ytick"><text text-anchor="end" x="79" y="6.3" style="font-family: Helvetica; font-size: 18px; fill: rgb(42, 63, 95); fill-opacity: 1; white-space: pre; opacity: 1;" transform="translate(0,441.75)">4.5</text></g><g class="ytick"><text text-anchor="end" x="79" y="6.3" style="font-family: Helvetica; font-size: 18px; fill: rgb(42, 63, 95); fill-opacity: 1; white-space: pre; opacity: 1;" transform="translate(0,384.49)">5</text></g><g class="ytick"><text text-anchor="end" x="79" y="6.3" style="font-family: Helvetica; font-size: 18px; fill: rgb(42, 63, 95); fill-opacity: 1; white-space: pre; opacity: 1;" transform="translate(0,327.24)">5.5</text></g><g class="ytick"><text text-anchor="end" x="79" y="6.3" style="font-family: Helvetica; font-size: 18px; fill: rgb(42, 63, 95); fill-opacity: 1; white-space: pre; opacity: 1;" transform="translate(0,269.98)">6</text></g><g class="ytick"><text text-anchor="end" x="79" y="6.3" style="font-family: Helvetica; font-size: 18px; fill: rgb(42, 63, 95); fill-opacity: 1; white-space: pre; opacity: 1;" transform="translate(0,212.73000000000002)">6.5</text></g><g class="ytick"><text text-anchor="end" x="79" y="6.3" style="font-family: Helvetica; font-size: 18px; fill: rgb(42, 63, 95); fill-opacity: 1; white-space: pre; opacity: 1;" transform="translate(0,155.47)">7</text></g></g><g class="overaxes-above"/></g></g><g class="polarlayer"/><g class="smithlayer"/><g class="ternarylayer"/><g class="geolayer"/><g class="funnelarealayer"/><g class="pielayer"/><g class="iciclelayer"/><g class="treemaplayer"/><g class="sunburstlayer"/><g class="glimages"/><defs id="topdefs-44f846"><g class="clips"/><clipPath id="legend44f846"><rect width="206" height="118" x="0" y="0"/></clipPath></defs><g class="layer-above"><g class="imagelayer"/><g class="shapelayer"/></g><g class="infolayer"><g class="legend" pointer-events="all" transform="translate(581.84,100)"><rect class="bg" shape-rendering="crispEdges" style="stroke: rgb(68, 68, 68); stroke-opacity: 1; fill: rgb(255, 255, 255); fill-opacity: 1; stroke-width: 0px;" width="206" height="118" x="0" y="0"/><g class="scrollbox" transform="" clip-path="url(#legend44f846)"><text class="legendtitletext" text-anchor="start" x="2" y="28.6" style="font-family: Helvetica; font-size: 22px; fill: rgb(42, 63, 95); fill-opacity: 1; white-space: pre;">category</text><g class="groups" transform=""><g class="traces" transform="translate(0,46.800000000000004)" style="opacity: 1;"><text class="legendtext" text-anchor="start" x="40" y="7.0200000000000005" style="font-family: Helvetica; font-size: 18px; fill: rgb(42, 63, 95); fill-opacity: 1; white-space: pre;">Core</text><g class="layers" style="opacity: 1;"><g class="legendfill"/><g class="legendlines"/><g class="legendsymbols"><g class="legendpoints"><path class="legendbox" d="M6,6H-6V-6H6Z" transform="translate(20,0)" style="stroke-width: 2px; fill: rgb(253, 138, 138); fill-opacity: 0.5; stroke: rgb(253, 138, 138); stroke-opacity: 1;"/></g></g></g><rect class="legendtoggle" x="0" y="-13.200000000000001" width="200.0625" height="26.400000000000002" style="fill: rgb(0, 0, 0); fill-opacity: 0;"/></g></g><g class="groups" transform=""><g class="traces" transform="translate(0,73.2)" style="opacity: 1;"><text class="legendtext" text-anchor="start" x="40" y="7.0200000000000005" style="font-family: Helvetica; font-size: 18px; fill: rgb(42, 63, 95); fill-opacity: 1; white-space: pre;">Community</text><g class="layers" style="opacity: 1;"><g class="legendfill"/><g class="legendlines"/><g class="legendsymbols"><g class="legendpoints"><path class="legendbox" d="M6,6H-6V-6H6Z" transform="translate(20,0)" style="stroke-width: 2px; fill: rgb(168, 209, 209); fill-opacity: 0.5; stroke: rgb(168, 209, 209); stroke-opacity: 1;"/></g></g></g><rect class="legendtoggle" x="0" y="-13.200000000000001" width="200.0625" height="26.400000000000002" style="fill: rgb(0, 0, 0); fill-opacity: 0;"/></g></g><g class="groups" transform=""><g class="traces" transform="translate(0,99.60000000000001)" style="opacity: 1;"><text class="legendtext" text-anchor="start" x="40" y="7.0200000000000005" style="font-family: Helvetica; font-size: 18px; fill: rgb(42, 63, 95); fill-opacity: 1; white-space: pre;">Prior SARS inhibitor</text><g class="layers" style="opacity: 1;"><g class="legendfill"/><g class="legendlines"/><g class="legendsymbols"><g class="legendpoints"><path class="legendbox" d="M6,6H-6V-6H6Z" transform="translate(20,0)" style="stroke-width: 2px; fill: rgb(241, 247, 181); fill-opacity: 0.5; stroke: rgb(241, 247, 181); stroke-opacity: 1;"/></g></g></g><rect class="legendtoggle" x="0" y="-13.200000000000001" width="200.0625" height="26.400000000000002" style="fill: rgb(0, 0, 0); fill-opacity: 0;"/></g></g></g><rect class="scrollbar" rx="20" ry="3" width="0" height="0" style="fill: rgb(128, 139, 164); fill-opacity: 1;" x="0" y="0"/></g><g class="g-gtitle"><text class="gtitle" x="40" y="50" text-anchor="start" dy="0em" style="font-family: Helvetica; font-size: 25px; fill: rgb(42, 63, 95); opacity: 1; font-weight: normal; white-space: pre;">Distribution of potency of compounds in 2020</text></g><g class="g-xtitle"><text class="xtitle" x="326" y="572.9" text-anchor="middle" style="font-family: Helvetica; font-size: 22px; fill: rgb(42, 63, 95); opacity: 1; font-weight: normal; white-space: pre;">quarter (shipment)</text></g><g class="g-ytitle"><text class="ytitle" transform="rotate(-90,24.06875,310)" x="24.06875" y="310" text-anchor="middle" style="font-family: Helvetica; font-size: 22px; fill: rgb(42, 63, 95); opacity: 1; font-weight: normal; white-space: pre;">pIC50</text></g></g></svg>