<svg class="main-svg" xmlns="http://www.w3.org/2000/svg" xmlns:xlink="http://www.w3.org/1999/xlink" width="400" height="300" style="" viewBox="0 0 800 600"><rect x="0" y="0" width="800" height="600" style="fill: rgb(255, 255, 255); fill-opacity: 1;"/><defs id="defs-97a2cf"><g class="clips"><clipPath id="clip97a2cfxyplot" class="plotclip"><rect width="492" height="420"/></clipPath><clipPath class="axesclip" id="clip97a2cfx"><rect x="80" y="0" width="492" height="600"/></clipPath><clipPath class="axesclip" id="clip97a2cfy"><rect x="0" y="100" width="800" height="420"/></clipPath><clipPath class="axesclip" id="clip97a2cfxy"><rect x="80" y="100" width="492" height="420"/></clipPath></g><g class="gradients"/><g class="patterns"/></defs><g class="bglayer"/><g class="layer-below"><g class="imagelayer"/><g class="shapelayer"/></g><g class="cartesianlayer"><g class="subplot xy"><g class="layer-subplot"><g class="shapelayer"/><g class="imagelayer"/></g><g class="minor-gridlayer"><g class="x"/><g class="y"/></g><g class="gridlayer"><g class="x"/><g class="y"><path class="ygrid crisp" transform="translate(0,499)" d="M80,0h492" style="stroke: rgb(235, 240, 248); stroke-opacity: 1; stroke-width: 1px;"/><path class="ygrid crisp" transform="translate(0,441.75)" d="M80,0h492" style="stroke: rgb(235, 240, 248); stroke-opacity: 1; stroke-width: 1px;"/><path class="ygrid crisp" transform="translate(0,384.49)" d="M80,0h492" style="stroke: rgb(235, 240, 248); stroke-opacity: 1; stroke-width: 1px;"/><path class="ygrid crisp" transform="translate(0,327.24)" d="M80,0h492" style="stroke: rgb(235, 240, 248); stroke-opacity: 1; stroke-width: 1px;"/><path class="ygrid crisp" transform="translate(0,269.98)" d="M80,0h492" style="stroke: rgb(235, 240, 248); stroke-opacity: 1; stroke-width: 1px;"/><path class="ygrid crisp" transform="translate(0,212.73000000000002)" d="M80,0h492" style="stroke: rgb(235, 240, 248); stroke-opacity: 1; stroke-width: 1px;"/><path class="ygrid crisp" transform="translate(0,155.47)" d="M80,0h492" style="stroke: rgb(235, 240, 248); stroke-opacity: 1; stroke-width: 1px;"/></g></g><g class="zerolinelayer"/><path class="xlines-below"/><path class="ylines-below"/><g class="overlines-below"/><g class="xaxislayer-below"/><g class="yaxislayer-below"/><g class="overaxes-below"/><g class="plot" transform="translate(80,100)" clip-path="url(#clip97a2cfxyplot)"><g class="violinlayer mlayer"><g class="trace violins" style="opacity: 1;"><path class="violin" d="M53.72,398.5Q54.84,390.64 55.29,386.7C55.74,382.77 56.15,378.84 56.42,374.9C56.69,370.97 56.85,367.03 56.89,363.09C56.93,359.16 56.84,355.22 56.66,351.29C56.48,347.35 56.16,343.42 55.81,339.49C55.46,335.55 55,331.62 54.58,327.69C54.16,323.75 53.69,319.82 53.3,315.88C52.91,311.95 52.52,308.02 52.22,304.08C51.92,300.15 51.67,296.21 51.49,292.28C51.31,288.35 51.21,284.41 51.13,280.48C51.05,276.54 51.04,272.61 51.01,268.67C50.98,264.74 50.98,260.8 50.93,256.87C50.88,252.94 50.83,249 50.73,245.07Q50.63,241.14 50.32,233.27L42.62,233.27Q42.3,241.14 42.2,245.07C42.1,249 42.05,252.94 42,256.87C41.96,260.8 41.96,264.74 41.93,268.67C41.9,272.61 41.88,276.54 41.8,280.48C41.72,284.41 41.62,288.35 41.44,292.28C41.26,296.21 41.02,300.15 40.72,304.08C40.42,308.02 40.03,311.95 39.64,315.88C39.24,319.82 38.77,323.75 38.35,327.69C37.93,331.62 37.48,335.55 37.13,339.49C36.79,343.42 36.46,347.35 36.28,351.29C36.1,355.22 36,359.16 36.04,363.09C36.08,367.03 36.25,370.97 36.52,374.9C36.79,378.84 37.19,382.77 37.64,386.7Q38.09,390.64 39.21,398.5Z" style="vector-effect: non-scaling-stroke; stroke-width: 2px; stroke: rgb(253, 138, 138); stroke-opacity: 1; fill: rgb(253, 138, 138); fill-opacity: 0.5;"/><path class="violin" d="M218.69,399Q218.84,391.09 218.75,387.14C218.66,383.19 218.41,379.23 218.15,375.28C217.88,371.32 217.5,367.37 217.16,363.42C216.82,359.47 216.42,355.52 216.1,351.57C215.78,347.62 215.48,343.66 215.22,339.71C214.97,335.76 214.75,331.8 214.57,327.85C214.39,323.9 214.26,319.94 214.13,315.99C214,312.04 213.9,308.08 213.8,304.13C213.7,300.18 213.61,296.22 213.51,292.27C213.42,288.32 213.32,284.36 213.23,280.41C213.14,276.46 213.05,272.5 212.97,268.55C212.89,264.6 212.81,260.65 212.74,256.7C212.67,252.75 212.61,248.79 212.55,244.84C212.49,240.89 212.44,236.93 212.38,232.98C212.32,229.03 212.26,225.07 212.19,221.12C212.12,217.17 212.05,213.21 211.97,209.26C211.89,205.31 211.79,201.35 211.7,197.4C211.6,193.45 211.5,189.49 211.4,185.54C211.3,181.59 211.21,177.63 211.12,173.68C211.03,169.73 210.95,165.78 210.87,161.83C210.79,157.88 210.72,153.92 210.66,149.97C210.6,146.02 210.54,142.06 210.49,138.11C210.44,134.16 210.39,130.2 210.34,126.25Q210.29,122.3 210.19,114.39L208.75,114.39Q208.64,122.3 208.59,126.25C208.54,130.2 208.49,134.16 208.44,138.11C208.39,142.06 208.33,146.02 208.27,149.97C208.21,153.92 208.15,157.88 208.07,161.83C208,165.78 207.91,169.73 207.82,173.68C207.73,177.63 207.63,181.59 207.53,185.54C207.43,189.49 207.33,193.45 207.23,197.4C207.14,201.35 207.04,205.31 206.96,209.26C206.88,213.21 206.81,217.17 206.74,221.12C206.67,225.07 206.61,229.03 206.55,232.98C206.49,236.93 206.44,240.89 206.38,244.84C206.32,248.79 206.26,252.75 206.19,256.7C206.12,260.65 206.05,264.6 205.97,268.55C205.89,272.5 205.8,276.46 205.71,280.41C205.62,284.36 205.52,288.32 205.42,292.27C205.32,296.22 205.23,300.18 205.13,304.13C205.03,308.08 204.93,312.04 204.8,315.99C204.67,319.94 204.54,323.9 204.36,327.85C204.18,331.8 203.97,335.76 203.72,339.71C203.46,343.66 203.15,347.62 202.83,351.57C202.51,355.52 202.12,359.47 201.78,363.42C201.44,367.37 201.05,371.32 200.78,375.28C200.51,379.23 200.27,383.19 200.18,387.14Q200.09,391.09 200.25,399Z" style="vector-effect: non-scaling-stroke; stroke-width: 2px; stroke: rgb(253, 138, 138); stroke-opacity: 1; fill: rgb(253, 138, 138); fill-opacity: 0.5;"/><path class="violin" d="M379.58,399Q379.86,390.52 379.88,386.28C379.9,382.04 379.81,377.79 379.7,373.55C379.59,369.31 379.38,365.07 379.2,360.83C379.02,356.59 378.8,352.35 378.61,348.11C378.42,343.87 378.23,339.62 378.06,335.38C377.9,331.14 377.75,326.9 377.62,322.66C377.49,318.42 377.39,314.18 377.29,309.94C377.19,305.7 377.11,301.45 377.02,297.21C376.94,292.97 376.86,288.73 376.78,284.49C376.7,280.25 376.62,276.01 376.53,271.77C376.44,267.53 376.36,263.28 376.26,259.04C376.16,254.8 376.06,250.56 375.95,246.32C375.84,242.08 375.73,237.84 375.62,233.6C375.51,229.36 375.4,225.11 375.3,220.87C375.2,216.63 375.1,212.39 375.01,208.15C374.92,203.91 374.84,199.67 374.77,195.43C374.7,191.19 374.63,186.94 374.57,182.7C374.51,178.46 374.46,174.22 374.41,169.98C374.36,165.74 374.32,161.5 374.29,157.26C374.25,153.02 374.23,148.77 374.2,144.53C374.17,140.29 374.15,136.05 374.13,131.81C374.11,127.57 374.09,123.33 374.06,119.09C374.03,114.85 374,110.6 373.96,106.36C373.92,102.12 373.87,97.88 373.81,93.64C373.75,89.4 373.67,85.16 373.6,80.92C373.53,76.68 373.45,72.43 373.37,68.19Q373.29,63.95 373.13,55.47L371.8,55.47Q371.65,63.95 371.57,68.19C371.49,72.43 371.41,76.68 371.33,80.92C371.26,85.16 371.18,89.4 371.12,93.64C371.06,97.88 371.01,102.12 370.97,106.36C370.93,110.6 370.9,114.85 370.87,119.09C370.84,123.33 370.82,127.57 370.8,131.81C370.78,136.05 370.76,140.29 370.73,144.53C370.7,148.77 370.68,153.02 370.64,157.26C370.61,161.5 370.57,165.74 370.52,169.98C370.47,174.22 370.42,178.46 370.36,182.7C370.3,186.94 370.24,191.19 370.17,195.43C370.1,199.67 370.01,203.91 369.92,208.15C369.83,212.39 369.73,216.63 369.63,220.87C369.53,225.11 369.42,229.36 369.31,233.6C369.2,237.84 369.09,242.08 368.98,246.32C368.88,250.56 368.78,254.8 368.68,259.04C368.58,263.28 368.49,267.53 368.4,271.77C368.31,276.01 368.24,280.25 368.16,284.49C368.08,288.73 367.99,292.97 367.91,297.21C367.82,301.45 367.75,305.7 367.65,309.94C367.55,314.18 367.44,318.42 367.31,322.66C367.18,326.9 367.04,331.14 366.88,335.38C366.72,339.62 366.52,343.87 366.33,348.11C366.14,352.35 365.91,356.59 365.73,360.83C365.55,365.07 365.35,369.31 365.24,373.55C365.13,377.79 365.03,382.04 365.05,386.28Q365.07,390.52 365.35,399Z" style="vector-effect: non-scaling-stroke; stroke-width: 2px; stroke: rgb(253, 138, 138); stroke-opacity: 1; fill: rgb(253, 138, 138); fill-opacity: 0.5;"/><path class="box" d="M43.14,344.61H49.79M43.14,370.83H49.79V287.1H43.14ZM46.47,370.83V398.5M46.47,287.1V233.27" style="vector-effect: non-scaling-stroke; stroke-width: 2px; stroke: rgb(253, 138, 138); stroke-opacity: 1; fill: rgb(253, 138, 138); fill-opacity: 0.5;"/><path class="box" d="M206.14,378.54H212.79M206.14,398.75H212.79V288.53H206.14ZM209.47,398.75V399M209.47,288.53V135.91" style="vector-effect: non-scaling-stroke; stroke-width: 2px; stroke: rgb(253, 138, 138); stroke-opacity: 1; fill: rgb(253, 138, 138); fill-opacity: 0.5;"/><path class="box" d="M369.14,328.74H375.79M369.14,398.75H375.79V251.05H369.14ZM372.47,398.75V399M372.47,251.05V55.47" style="vector-effect: non-scaling-stroke; stroke-width: 2px; stroke: rgb(253, 138, 138); stroke-opacity: 1; fill: rgb(253, 138, 138); fill-opacity: 0.5;"/><g class="points"><path class="point" transform="translate(28.43,398.5)" d="M3,0A3,3 0 1,1 0,-3A3,3 0 0,1 3,0Z" style="opacity: 1; stroke-width: 0px; fill: rgb(253, 138, 138); fill-opacity: 1;"/><path class="point" transform="translate(24.04,376.49)" d="M3,0A3,3 0 1,1 0,-3A3,3 0 0,1 3,0Z" style="opacity: 1; stroke-width: 0px; fill: rgb(253, 138, 138); fill-opacity: 1;"/><path class="point" transform="translate(29.6,371.57)" d="M3,0A3,3 0 1,1 0,-3A3,3 0 0,1 3,0Z" style="opacity: 1; stroke-width: 0px; fill: rgb(253, 138, 138); fill-opacity: 1;"/><path class="point" transform="translate(23.91,368.63)" d="M3,0A3,3 0 1,1 0,-3A3,3 0 0,1 3,0Z" style="opacity: 1; stroke-width: 0px; fill: rgb(253, 138, 138); fill-opacity: 1;"/><path class="point" transform="translate(25.77,368.08)" d="M3,0A3,3 0 1,1 0,-3A3,3 0 0,1 3,0Z" style="opacity: 1; stroke-width: 0px; fill: rgb(253, 138, 138); fill-opacity: 1;"/><path class="point" transform="translate(28.07,344.61)" d="M3,0A3,3 0 1,1 0,-3A3,3 0 0,1 3,0Z" style="opacity: 1; stroke-width: 0px; fill: rgb(253, 138, 138); fill-opacity: 1;"/><path class="point" transform="translate(26.39,338.79)" d="M3,0A3,3 0 1,1 0,-3A3,3 0 0,1 3,0Z" style="opacity: 1; stroke-width: 0px; fill: rgb(253, 138, 138); fill-opacity: 1;"/><path class="point" transform="translate(27.35,333.33)" d="M3,0A3,3 0 1,1 0,-3A3,3 0 0,1 3,0Z" style="opacity: 1; stroke-width: 0px; fill: rgb(253, 138, 138); fill-opacity: 1;"/><path class="point" transform="translate(25.62,271.69)" d="M3,0A3,3 0 1,1 0,-3A3,3 0 0,1 3,0Z" style="opacity: 1; stroke-width: 0px; fill: rgb(253, 138, 138); fill-opacity: 1;"/><path class="point" transform="translate(24.61,245.98)" d="M3,0A3,3 0 1,1 0,-3A3,3 0 0,1 3,0Z" style="opacity: 1; stroke-width: 0px; fill: rgb(253, 138, 138); fill-opacity: 1;"/><path class="point" transform="translate(27.19,233.27)" d="M3,0A3,3 0 1,1 0,-3A3,3 0 0,1 3,0Z" style="opacity: 1; stroke-width: 0px; fill: rgb(253, 138, 138); fill-opacity: 1;"/></g><g class="points"><path class="point" transform="translate(188.18,399)" d="M3,0A3,3 0 1,1 0,-3A3,3 0 0,1 3,0Z" style="opacity: 1; stroke-width: 0px; fill: rgb(253, 138, 138); fill-opacity: 1;"/><path class="point" transform="translate(192.03,398.75)" d="M3,0A3,3 0 1,1 0,-3A3,3 0 0,1 3,0Z" style="opacity: 1; stroke-width: 0px; fill: rgb(253, 138, 138); fill-opacity: 1;"/><path class="point" transform="translate(185.61,398.75)" d="M3,0A3,3 0 1,1 0,-3A3,3 0 0,1 3,0Z" style="opacity: 1; stroke-width: 0px; fill: rgb(253, 138, 138); fill-opacity: 1;"/><path class="point" transform="translate(187.19,398.75)" d="M3,0A3,3 0 1,1 0,-3A3,3 0 0,1 3,0Z" style="opacity: 1; stroke-width: 0px; fill: rgb(253, 138, 138); fill-opacity: 1;"/><path class="point" transform="translate(193.03,398.75)" d="M3,0A3,3 0 1,1 0,-3A3,3 0 0,1 3,0Z" style="opacity: 1; stroke-width: 0px; fill: rgb(253, 138, 138); fill-opacity: 1;"/><path class="point" transform="translate(188.5,398.75)" d="M3,0A3,3 0 1,1 0,-3A3,3 0 0,1 3,0Z" style="opacity: 1; stroke-width: 0px; fill: rgb(253, 138, 138); fill-opacity: 1;"/><path class="point" transform="translate(186.07,398.75)" d="M3,0A3,3 0 1,1 0,-3A3,3 0 0,1 3,0Z" style="opacity: 1; stroke-width: 0px; fill: rgb(253, 138, 138); fill-opacity: 1;"/><path class="point" transform="translate(188.18,398.75)" d="M3,0A3,3 0 1,1 0,-3A3,3 0 0,1 3,0Z" style="opacity: 1; stroke-width: 0px; fill: rgb(253, 138, 138); fill-opacity: 1;"/><path class="point" transform="translate(189.41,398.75)" d="M3,0A3,3 0 1,1 0,-3A3,3 0 0,1 3,0Z" style="opacity: 1; stroke-width: 0px; fill: rgb(253, 138, 138); fill-opacity: 1;"/><path class="point" transform="translate(191.3,398.75)" d="M3,0A3,3 0 1,1 0,-3A3,3 0 0,1 3,0Z" style="opacity: 1; stroke-width: 0px; fill: rgb(253, 138, 138); fill-opacity: 1;"/><path class="point" transform="translate(189.94,398.75)" d="M3,0A3,3 0 1,1 0,-3A3,3 0 0,1 3,0Z" style="opacity: 1; stroke-width: 0px; fill: rgb(253, 138, 138); fill-opacity: 1;"/><path class="point" transform="translate(188.37,398.75)" d="M3,0A3,3 0 1,1 0,-3A3,3 0 0,1 3,0Z" style="opacity: 1; stroke-width: 0px; fill: rgb(253, 138, 138); fill-opacity: 1;"/><path class="point" transform="translate(186.16,398.75)" d="M3,0A3,3 0 1,1 0,-3A3,3 0 0,1 3,0Z" style="opacity: 1; stroke-width: 0px; fill: rgb(253, 138, 138); fill-opacity: 1;"/><path class="point" transform="translate(189.49,398.75)" d="M3,0A3,3 0 1,1 0,-3A3,3 0 0,1 3,0Z" style="opacity: 1; stroke-width: 0px; fill: rgb(253, 138, 138); fill-opacity: 1;"/><path class="point" transform="translate(188.33,398.75)" d="M3,0A3,3 0 1,1 0,-3A3,3 0 0,1 3,0Z" style="opacity: 1; stroke-width: 0px; fill: rgb(253, 138, 138); fill-opacity: 1;"/><path class="point" transform="translate(191.36,398.75)" d="M3,0A3,3 0 1,1 0,-3A3,3 0 0,1 3,0Z" style="opacity: 1; stroke-width: 0px; fill: rgb(253, 138, 138); fill-opacity: 1;"/><path class="point" transform="translate(189.14,398.75)" d="M3,0A3,3 0 1,1 0,-3A3,3 0 0,1 3,0Z" style="opacity: 1; stroke-width: 0px; fill: rgb(253, 138, 138); fill-opacity: 1;"/><path class="point" transform="translate(186.89,398.75)" d="M3,0A3,3 0 1,1 0,-3A3,3 0 0,1 3,0Z" style="opacity: 1; stroke-width: 0px; fill: rgb(253, 138, 138); fill-opacity: 1;"/><path class="point" transform="translate(185.77,398.75)" d="M3,0A3,3 0 1,1 0,-3A3,3 0 0,1 3,0Z" style="opacity: 1; stroke-width: 0px; fill: rgb(253, 138, 138); fill-opacity: 1;"/><path class="point" transform="translate(191.75,398.75)" d="M3,0A3,3 0 1,1 0,-3A3,3 0 0,1 3,0Z" style="opacity: 1; stroke-width: 0px; fill: rgb(253, 138, 138); fill-opacity: 1;"/><path class="point" transform="translate(186.09,398.75)" d="M3,0A3,3 0 1,1 0,-3A3,3 0 0,1 3,0Z" style="opacity: 1; stroke-width: 0px; fill: rgb(253, 138, 138); fill-opacity: 1;"/><path class="point" transform="translate(191.87,398.75)" d="M3,0A3,3 0 1,1 0,-3A3,3 0 0,1 3,0Z" style="opacity: 1; stroke-width: 0px; fill: rgb(253, 138, 138); fill-opacity: 1;"/><path class="point" transform="translate(190.37,398.75)" d="M3,0A3,3 0 1,1 0,-3A3,3 0 0,1 3,0Z" style="opacity: 1; stroke-width: 0px; fill: rgb(253, 138, 138); fill-opacity: 1;"/><path class="point" transform="translate(188.31,398.75)" d="M3,0A3,3 0 1,1 0,-3A3,3 0 0,1 3,0Z" style="opacity: 1; stroke-width: 0px; fill: rgb(253, 138, 138); fill-opacity: 1;"/><path class="point" transform="translate(187.13,398.75)" d="M3,0A3,3 0 1,1 0,-3A3,3 0 0,1 3,0Z" style="opacity: 1; stroke-width: 0px; fill: rgb(253, 138, 138); fill-opacity: 1;"/><path class="point" transform="translate(191.3,398.75)" d="M3,0A3,3 0 1,1 0,-3A3,3 0 0,1 3,0Z" style="opacity: 1; stroke-width: 0px; fill: rgb(253, 138, 138); fill-opacity: 1;"/><path class="point" transform="translate(189.07,398.75)" d="M3,0A3,3 0 1,1 0,-3A3,3 0 0,1 3,0Z" style="opacity: 1; stroke-width: 0px; fill: rgb(253, 138, 138); fill-opacity: 1;"/><path class="point" transform="translate(192.24,398.75)" d="M3,0A3,3 0 1,1 0,-3A3,3 0 0,1 3,0Z" style="opacity: 1; stroke-width: 0px; fill: rgb(253, 138, 138); fill-opacity: 1;"/><path class="point" transform="translate(186.14,398.75)" d="M3,0A3,3 0 1,1 0,-3A3,3 0 0,1 3,0Z" style="opacity: 1; stroke-width: 0px; fill: rgb(253, 138, 138); fill-opacity: 1;"/><path class="point" transform="translate(192.05,398.75)" d="M3,0A3,3 0 1,1 0,-3A3,3 0 0,1 3,0Z" style="opacity: 1; stroke-width: 0px; fill: rgb(253, 138, 138); fill-opacity: 1;"/><path class="point" transform="translate(189.17,398.75)" d="M3,0A3,3 0 1,1 0,-3A3,3 0 0,1 3,0Z" style="opacity: 1; stroke-width: 0px; fill: rgb(253, 138, 138); fill-opacity: 1;"/><path class="point" transform="translate(188.56,398.5)" d="M3,0A3,3 0 1,1 0,-3A3,3 0 0,1 3,0Z" style="opacity: 1; stroke-width: 0px; fill: rgb(253, 138, 138); fill-opacity: 1;"/><path class="point" transform="translate(187.16,396.87)" d="M3,0A3,3 0 1,1 0,-3A3,3 0 0,1 3,0Z" style="opacity: 1; stroke-width: 0px; fill: rgb(253, 138, 138); fill-opacity: 1;"/><path class="point" transform="translate(188.76,392.92)" d="M3,0A3,3 0 1,1 0,-3A3,3 0 0,1 3,0Z" style="opacity: 1; stroke-width: 0px; fill: rgb(253, 138, 138); fill-opacity: 1;"/><path class="point" transform="translate(190.72,390.92)" d="M3,0A3,3 0 1,1 0,-3A3,3 0 0,1 3,0Z" style="opacity: 1; stroke-width: 0px; fill: rgb(253, 138, 138); fill-opacity: 1;"/><path class="point" transform="translate(189.07,389.19)" d="M3,0A3,3 0 1,1 0,-3A3,3 0 0,1 3,0Z" style="opacity: 1; stroke-width: 0px; fill: rgb(253, 138, 138); fill-opacity: 1;"/><path class="point" transform="translate(188.16,367.89)" d="M3,0A3,3 0 1,1 0,-3A3,3 0 0,1 3,0Z" style="opacity: 1; stroke-width: 0px; fill: rgb(253, 138, 138); fill-opacity: 1;"/><path class="point" transform="translate(190.28,367.61)" d="M3,0A3,3 0 1,1 0,-3A3,3 0 0,1 3,0Z" style="opacity: 1; stroke-width: 0px; fill: rgb(253, 138, 138); fill-opacity: 1;"/><path class="point" transform="translate(188.61,349.29)" d="M3,0A3,3 0 1,1 0,-3A3,3 0 0,1 3,0Z" style="opacity: 1; stroke-width: 0px; fill: rgb(253, 138, 138); fill-opacity: 1;"/><path class="point" transform="translate(189.5,345.79)" d="M3,0A3,3 0 1,1 0,-3A3,3 0 0,1 3,0Z" style="opacity: 1; stroke-width: 0px; fill: rgb(253, 138, 138); fill-opacity: 1;"/><path class="point" transform="translate(190.21,344.91)" d="M3,0A3,3 0 1,1 0,-3A3,3 0 0,1 3,0Z" style="opacity: 1; stroke-width: 0px; fill: rgb(253, 138, 138); fill-opacity: 1;"/><path class="point" transform="translate(187.65,338.96)" d="M3,0A3,3 0 1,1 0,-3A3,3 0 0,1 3,0Z" style="opacity: 1; stroke-width: 0px; fill: rgb(253, 138, 138); fill-opacity: 1;"/><path class="point" transform="translate(191.2,329.86)" d="M3,0A3,3 0 1,1 0,-3A3,3 0 0,1 3,0Z" style="opacity: 1; stroke-width: 0px; fill: rgb(253, 138, 138); fill-opacity: 1;"/><path class="point" transform="translate(190.37,328.65)" d="M3,0A3,3 0 1,1 0,-3A3,3 0 0,1 3,0Z" style="opacity: 1; stroke-width: 0px; fill: rgb(253, 138, 138); fill-opacity: 1;"/><path class="point" transform="translate(187.62,327.82)" d="M3,0A3,3 0 1,1 0,-3A3,3 0 0,1 3,0Z" style="opacity: 1; stroke-width: 0px; fill: rgb(253, 138, 138); fill-opacity: 1;"/><path class="point" transform="translate(191.07,325.69)" d="M3,0A3,3 0 1,1 0,-3A3,3 0 0,1 3,0Z" style="opacity: 1; stroke-width: 0px; fill: rgb(253, 138, 138); fill-opacity: 1;"/><path class="point" transform="translate(188.08,319.21)" d="M3,0A3,3 0 1,1 0,-3A3,3 0 0,1 3,0Z" style="opacity: 1; stroke-width: 0px; fill: rgb(253, 138, 138); fill-opacity: 1;"/><path class="point" transform="translate(189.24,314.27)" d="M3,0A3,3 0 1,1 0,-3A3,3 0 0,1 3,0Z" style="opacity: 1; stroke-width: 0px; fill: rgb(253, 138, 138); fill-opacity: 1;"/><path class="point" transform="translate(189.76,309.09)" d="M3,0A3,3 0 1,1 0,-3A3,3 0 0,1 3,0Z" style="opacity: 1; stroke-width: 0px; fill: rgb(253, 138, 138); fill-opacity: 1;"/><path class="point" transform="translate(188.63,306.92)" d="M3,0A3,3 0 1,1 0,-3A3,3 0 0,1 3,0Z" style="opacity: 1; stroke-width: 0px; fill: rgb(253, 138, 138); fill-opacity: 1;"/><path class="point" transform="translate(190.76,300.15)" d="M3,0A3,3 0 1,1 0,-3A3,3 0 0,1 3,0Z" style="opacity: 1; stroke-width: 0px; fill: rgb(253, 138, 138); fill-opacity: 1;"/><path class="point" transform="translate(188.32,291.87)" d="M3,0A3,3 0 1,1 0,-3A3,3 0 0,1 3,0Z" style="opacity: 1; stroke-width: 0px; fill: rgb(253, 138, 138); fill-opacity: 1;"/><path class="point" transform="translate(190.19,291.44)" d="M3,0A3,3 0 1,1 0,-3A3,3 0 0,1 3,0Z" style="opacity: 1; stroke-width: 0px; fill: rgb(253, 138, 138); fill-opacity: 1;"/><path class="point" transform="translate(190.74,289.68)" d="M3,0A3,3 0 1,1 0,-3A3,3 0 0,1 3,0Z" style="opacity: 1; stroke-width: 0px; fill: rgb(253, 138, 138); fill-opacity: 1;"/><path class="point" transform="translate(187.91,287.39)" d="M3,0A3,3 0 1,1 0,-3A3,3 0 0,1 3,0Z" style="opacity: 1; stroke-width: 0px; fill: rgb(253, 138, 138); fill-opacity: 1;"/><path class="point" transform="translate(188.56,280.51)" d="M3,0A3,3 0 1,1 0,-3A3,3 0 0,1 3,0Z" style="opacity: 1; stroke-width: 0px; fill: rgb(253, 138, 138); fill-opacity: 1;"/><path class="point" transform="translate(190.39,270.05)" d="M3,0A3,3 0 1,1 0,-3A3,3 0 0,1 3,0Z" style="opacity: 1; stroke-width: 0px; fill: rgb(253, 138, 138); fill-opacity: 1;"/><path class="point" transform="translate(189.09,262.22)" d="M3,0A3,3 0 1,1 0,-3A3,3 0 0,1 3,0Z" style="opacity: 1; stroke-width: 0px; fill: rgb(253, 138, 138); fill-opacity: 1;"/><path class="point" transform="translate(189.63,247.68)" d="M3,0A3,3 0 1,1 0,-3A3,3 0 0,1 3,0Z" style="opacity: 1; stroke-width: 0px; fill: rgb(253, 138, 138); fill-opacity: 1;"/><path class="point" transform="translate(190.77,245.44)" d="M3,0A3,3 0 1,1 0,-3A3,3 0 0,1 3,0Z" style="opacity: 1; stroke-width: 0px; fill: rgb(253, 138, 138); fill-opacity: 1;"/><path class="point" transform="translate(188.32,239.79)" d="M3,0A3,3 0 1,1 0,-3A3,3 0 0,1 3,0Z" style="opacity: 1; stroke-width: 0px; fill: rgb(253, 138, 138); fill-opacity: 1;"/><path class="point" transform="translate(191.13,228.14)" d="M3,0A3,3 0 1,1 0,-3A3,3 0 0,1 3,0Z" style="opacity: 1; stroke-width: 0px; fill: rgb(253, 138, 138); fill-opacity: 1;"/><path class="point" transform="translate(188.31,220.29)" d="M3,0A3,3 0 1,1 0,-3A3,3 0 0,1 3,0Z" style="opacity: 1; stroke-width: 0px; fill: rgb(253, 138, 138); fill-opacity: 1;"/><path class="point" transform="translate(191.06,219.74)" d="M3,0A3,3 0 1,1 0,-3A3,3 0 0,1 3,0Z" style="opacity: 1; stroke-width: 0px; fill: rgb(253, 138, 138); fill-opacity: 1;"/><path class="point" transform="translate(188.87,209.19)" d="M3,0A3,3 0 1,1 0,-3A3,3 0 0,1 3,0Z" style="opacity: 1; stroke-width: 0px; fill: rgb(253, 138, 138); fill-opacity: 1;"/><path class="point" transform="translate(190.48,205.19)" d="M3,0A3,3 0 1,1 0,-3A3,3 0 0,1 3,0Z" style="opacity: 1; stroke-width: 0px; fill: rgb(253, 138, 138); fill-opacity: 1;"/><path class="point" transform="translate(189.85,204.45)" d="M3,0A3,3 0 1,1 0,-3A3,3 0 0,1 3,0Z" style="opacity: 1; stroke-width: 0px; fill: rgb(253, 138, 138); fill-opacity: 1;"/><path class="point" transform="translate(189.34,193.35)" d="M3,0A3,3 0 1,1 0,-3A3,3 0 0,1 3,0Z" style="opacity: 1; stroke-width: 0px; fill: rgb(253, 138, 138); fill-opacity: 1;"/><path class="point" transform="translate(188.41,177.79)" d="M3,0A3,3 0 1,1 0,-3A3,3 0 0,1 3,0Z" style="opacity: 1; stroke-width: 0px; fill: rgb(253, 138, 138); fill-opacity: 1;"/><path class="point" transform="translate(189.31,139.61)" d="M3,0A3,3 0 1,1 0,-3A3,3 0 0,1 3,0Z" style="opacity: 1; stroke-width: 0px; fill: rgb(253, 138, 138); fill-opacity: 1;"/><path class="point" transform="translate(188.6,135.91)" d="M3,0A3,3 0 1,1 0,-3A3,3 0 0,1 3,0Z" style="opacity: 1; stroke-width: 0px; fill: rgb(253, 138, 138); fill-opacity: 1;"/><path class="point" transform="translate(188.96,114.39)" d="M3,0A3,3 0 1,1 0,-3A3,3 0 0,1 3,0Z" style="opacity: 1; stroke-width: 0px; fill: rgb(253, 138, 138); fill-opacity: 1;"/></g><g class="points"><path class="point" transform="translate(349.37,399)" d="M3,0A3,3 0 1,1 0,-3A3,3 0 0,1 3,0Z" style="opacity: 1; stroke-width: 0px; fill: rgb(253, 138, 138); fill-opacity: 1;"/><path class="point" transform="translate(348.54,398.75)" d="M3,0A3,3 0 1,1 0,-3A3,3 0 0,1 3,0Z" style="opacity: 1; stroke-width: 0px; fill: rgb(253, 138, 138); fill-opacity: 1;"/><path class="point" transform="translate(350.38,398.75)" d="M3,0A3,3 0 1,1 0,-3A3,3 0 0,1 3,0Z" style="opacity: 1; stroke-width: 0px; fill: rgb(253, 138, 138); fill-opacity: 1;"/><path class="point" transform="translate(353.84,398.75)" d="M3,0A3,3 0 1,1 0,-3A3,3 0 0,1 3,0Z" style="opacity: 1; stroke-width: 0px; fill: rgb(253, 138, 138); fill-opacity: 1;"/><path class="point" transform="translate(349.06,398.75)" d="M3,0A3,3 0 1,1 0,-3A3,3 0 0,1 3,0Z" style="opacity: 1; stroke-width: 0px; fill: rgb(253, 138, 138); fill-opacity: 1;"/><path class="point" transform="translate(353.4,398.75)" d="M3,0A3,3 0 1,1 0,-3A3,3 0 0,1 3,0Z" style="opacity: 1; stroke-width: 0px; fill: rgb(253, 138, 138); fill-opacity: 1;"/><path class="point" transform="translate(354.44,398.75)" d="M3,0A3,3 0 1,1 0,-3A3,3 0 0,1 3,0Z" style="opacity: 1; stroke-width: 0px; fill: rgb(253, 138, 138); fill-opacity: 1;"/><path class="point" transform="translate(352.98,398.75)" d="M3,0A3,3 0 1,1 0,-3A3,3 0 0,1 3,0Z" style="opacity: 1; stroke-width: 0px; fill: rgb(253, 138, 138); fill-opacity: 1;"/><path class="point" transform="translate(350.16,398.75)" d="M3,0A3,3 0 1,1 0,-3A3,3 0 0,1 3,0Z" style="opacity: 1; stroke-width: 0px; fill: rgb(253, 138, 138); fill-opacity: 1;"/><path class="point" transform="translate(351.14,398.75)" d="M3,0A3,3 0 1,1 0,-3A3,3 0 0,1 3,0Z" style="opacity: 1; stroke-width: 0px; fill: rgb(253, 138, 138); fill-opacity: 1;"/><path class="point" transform="translate(356.36,398.75)" d="M3,0A3,3 0 1,1 0,-3A3,3 0 0,1 3,0Z" style="opacity: 1; stroke-width: 0px; fill: rgb(253, 138, 138); fill-opacity: 1;"/><path class="point" transform="translate(350.41,398.75)" d="M3,0A3,3 0 1,1 0,-3A3,3 0 0,1 3,0Z" style="opacity: 1; stroke-width: 0px; fill: rgb(253, 138, 138); fill-opacity: 1;"/><path class="point" transform="translate(352.95,398.75)" d="M3,0A3,3 0 1,1 0,-3A3,3 0 0,1 3,0Z" style="opacity: 1; stroke-width: 0px; fill: rgb(253, 138, 138); fill-opacity: 1;"/><path class="point" transform="translate(354.99,398.75)" d="M3,0A3,3 0 1,1 0,-3A3,3 0 0,1 3,0Z" style="opacity: 1; stroke-width: 0px; fill: rgb(253, 138, 138); fill-opacity: 1;"/><path class="point" transform="translate(349.18,398.75)" d="M3,0A3,3 0 1,1 0,-3A3,3 0 0,1 3,0Z" style="opacity: 1; stroke-width: 0px; fill: rgb(253, 138, 138); fill-opacity: 1;"/><path class="point" transform="translate(351.96,398.75)" d="M3,0A3,3 0 1,1 0,-3A3,3 0 0,1 3,0Z" style="opacity: 1; stroke-width: 0px; fill: rgb(253, 138, 138); fill-opacity: 1;"/><path class="point" transform="translate(356.04,398.75)" d="M3,0A3,3 0 1,1 0,-3A3,3 0 0,1 3,0Z" style="opacity: 1; stroke-width: 0px; fill: rgb(253, 138, 138); fill-opacity: 1;"/><path class="point" transform="translate(348.94,398.75)" d="M3,0A3,3 0 1,1 0,-3A3,3 0 0,1 3,0Z" style="opacity: 1; stroke-width: 0px; fill: rgb(253, 138, 138); fill-opacity: 1;"/><path class="point" transform="translate(351.69,398.75)" d="M3,0A3,3 0 1,1 0,-3A3,3 0 0,1 3,0Z" style="opacity: 1; stroke-width: 0px; fill: rgb(253, 138, 138); fill-opacity: 1;"/><path class="point" transform="translate(354.46,398.75)" d="M3,0A3,3 0 1,1 0,-3A3,3 0 0,1 3,0Z" style="opacity: 1; stroke-width: 0px; fill: rgb(253, 138, 138); fill-opacity: 1;"/><path class="point" transform="translate(355.48,398.75)" d="M3,0A3,3 0 1,1 0,-3A3,3 0 0,1 3,0Z" style="opacity: 1; stroke-width: 0px; fill: rgb(253, 138, 138); fill-opacity: 1;"/><path class="point" transform="translate(356.3,398.75)" d="M3,0A3,3 0 1,1 0,-3A3,3 0 0,1 3,0Z" style="opacity: 1; stroke-width: 0px; fill: rgb(253, 138, 138); fill-opacity: 1;"/><path class="point" transform="translate(348.98,398.75)" d="M3,0A3,3 0 1,1 0,-3A3,3 0 0,1 3,0Z" style="opacity: 1; stroke-width: 0px; fill: rgb(253, 138, 138); fill-opacity: 1;"/><path class="point" transform="translate(353.43,398.75)" d="M3,0A3,3 0 1,1 0,-3A3,3 0 0,1 3,0Z" style="opacity: 1; stroke-width: 0px; fill: rgb(253, 138, 138); fill-opacity: 1;"/><path class="point" transform="translate(348.67,398.75)" d="M3,0A3,3 0 1,1 0,-3A3,3 0 0,1 3,0Z" style="opacity: 1; stroke-width: 0px; fill: rgb(253, 138, 138); fill-opacity: 1;"/><path class="point" transform="translate(356.13,398.75)" d="M3,0A3,3 0 1,1 0,-3A3,3 0 0,1 3,0Z" style="opacity: 1; stroke-width: 0px; fill: rgb(253, 138, 138); fill-opacity: 1;"/><path class="point" transform="translate(353.18,398.75)" d="M3,0A3,3 0 1,1 0,-3A3,3 0 0,1 3,0Z" style="opacity: 1; stroke-width: 0px; fill: rgb(253, 138, 138); fill-opacity: 1;"/><path class="point" transform="translate(351.38,398.75)" d="M3,0A3,3 0 1,1 0,-3A3,3 0 0,1 3,0Z" style="opacity: 1; stroke-width: 0px; fill: rgb(253, 138, 138); fill-opacity: 1;"/><path class="point" transform="translate(356.14,398.75)" d="M3,0A3,3 0 1,1 0,-3A3,3 0 0,1 3,0Z" style="opacity: 1; stroke-width: 0px; fill: rgb(253, 138, 138); fill-opacity: 1;"/><path class="point" transform="translate(349.92,398.75)" d="M3,0A3,3 0 1,1 0,-3A3,3 0 0,1 3,0Z" style="opacity: 1; stroke-width: 0px; fill: rgb(253, 138, 138); fill-opacity: 1;"/><path class="point" transform="translate(350.9,398.75)" d="M3,0A3,3 0 1,1 0,-3A3,3 0 0,1 3,0Z" style="opacity: 1; stroke-width: 0px; fill: rgb(253, 138, 138); fill-opacity: 1;"/><path class="point" transform="translate(351.97,398.75)" d="M3,0A3,3 0 1,1 0,-3A3,3 0 0,1 3,0Z" style="opacity: 1; stroke-width: 0px; fill: rgb(253, 138, 138); fill-opacity: 1;"/><path class="point" transform="translate(354.31,398.75)" d="M3,0A3,3 0 1,1 0,-3A3,3 0 0,1 3,0Z" style="opacity: 1; stroke-width: 0px; fill: rgb(253, 138, 138); fill-opacity: 1;"/><path class="point" transform="translate(350.74,398.75)" d="M3,0A3,3 0 1,1 0,-3A3,3 0 0,1 3,0Z" style="opacity: 1; stroke-width: 0px; fill: rgb(253, 138, 138); fill-opacity: 1;"/><path class="point" transform="translate(352.17,398.75)" d="M3,0A3,3 0 1,1 0,-3A3,3 0 0,1 3,0Z" style="opacity: 1; stroke-width: 0px; fill: rgb(253, 138, 138); fill-opacity: 1;"/><path class="point" transform="translate(350.88,398.75)" d="M3,0A3,3 0 1,1 0,-3A3,3 0 0,1 3,0Z" style="opacity: 1; stroke-width: 0px; fill: rgb(253, 138, 138); fill-opacity: 1;"/><path class="point" transform="translate(355.5,398.75)" d="M3,0A3,3 0 1,1 0,-3A3,3 0 0,1 3,0Z" style="opacity: 1; stroke-width: 0px; fill: rgb(253, 138, 138); fill-opacity: 1;"/><path class="point" transform="translate(351.74,398.75)" d="M3,0A3,3 0 1,1 0,-3A3,3 0 0,1 3,0Z" style="opacity: 1; stroke-width: 0px; fill: rgb(253, 138, 138); fill-opacity: 1;"/><path class="point" transform="translate(354.79,398.75)" d="M3,0A3,3 0 1,1 0,-3A3,3 0 0,1 3,0Z" style="opacity: 1; stroke-width: 0px; fill: rgb(253, 138, 138); fill-opacity: 1;"/><path class="point" transform="translate(352.64,398.75)" d="M3,0A3,3 0 1,1 0,-3A3,3 0 0,1 3,0Z" style="opacity: 1; stroke-width: 0px; fill: rgb(253, 138, 138); fill-opacity: 1;"/><path class="point" transform="translate(354.9,398.75)" d="M3,0A3,3 0 1,1 0,-3A3,3 0 0,1 3,0Z" style="opacity: 1; stroke-width: 0px; fill: rgb(253, 138, 138); fill-opacity: 1;"/><path class="point" transform="translate(349.93,398.75)" d="M3,0A3,3 0 1,1 0,-3A3,3 0 0,1 3,0Z" style="opacity: 1; stroke-width: 0px; fill: rgb(253, 138, 138); fill-opacity: 1;"/><path class="point" transform="translate(353.01,398.75)" d="M3,0A3,3 0 1,1 0,-3A3,3 0 0,1 3,0Z" style="opacity: 1; stroke-width: 0px; fill: rgb(253, 138, 138); fill-opacity: 1;"/><path class="point" transform="translate(354.53,397.23)" d="M3,0A3,3 0 1,1 0,-3A3,3 0 0,1 3,0Z" style="opacity: 1; stroke-width: 0px; fill: rgb(253, 138, 138); fill-opacity: 1;"/><path class="point" transform="translate(352.7,391.44)" d="M3,0A3,3 0 1,1 0,-3A3,3 0 0,1 3,0Z" style="opacity: 1; stroke-width: 0px; fill: rgb(253, 138, 138); fill-opacity: 1;"/><path class="point" transform="translate(353.49,389.91)" d="M3,0A3,3 0 1,1 0,-3A3,3 0 0,1 3,0Z" style="opacity: 1; stroke-width: 0px; fill: rgb(253, 138, 138); fill-opacity: 1;"/><path class="point" transform="translate(354.57,385.09)" d="M3,0A3,3 0 1,1 0,-3A3,3 0 0,1 3,0Z" style="opacity: 1; stroke-width: 0px; fill: rgb(253, 138, 138); fill-opacity: 1;"/><path class="point" transform="translate(351.45,384.89)" d="M3,0A3,3 0 1,1 0,-3A3,3 0 0,1 3,0Z" style="opacity: 1; stroke-width: 0px; fill: rgb(253, 138, 138); fill-opacity: 1;"/><path class="point" transform="translate(353.97,382.73)" d="M3,0A3,3 0 1,1 0,-3A3,3 0 0,1 3,0Z" style="opacity: 1; stroke-width: 0px; fill: rgb(253, 138, 138); fill-opacity: 1;"/><path class="point" transform="translate(353.2,371.65)" d="M3,0A3,3 0 1,1 0,-3A3,3 0 0,1 3,0Z" style="opacity: 1; stroke-width: 0px; fill: rgb(253, 138, 138); fill-opacity: 1;"/><path class="point" transform="translate(354.17,365.42)" d="M3,0A3,3 0 1,1 0,-3A3,3 0 0,1 3,0Z" style="opacity: 1; stroke-width: 0px; fill: rgb(253, 138, 138); fill-opacity: 1;"/><path class="point" transform="translate(351.01,364.33)" d="M3,0A3,3 0 1,1 0,-3A3,3 0 0,1 3,0Z" style="opacity: 1; stroke-width: 0px; fill: rgb(253, 138, 138); fill-opacity: 1;"/><path class="point" transform="translate(355,358.96)" d="M3,0A3,3 0 1,1 0,-3A3,3 0 0,1 3,0Z" style="opacity: 1; stroke-width: 0px; fill: rgb(253, 138, 138); fill-opacity: 1;"/><path class="point" transform="translate(351.61,357.83)" d="M3,0A3,3 0 1,1 0,-3A3,3 0 0,1 3,0Z" style="opacity: 1; stroke-width: 0px; fill: rgb(253, 138, 138); fill-opacity: 1;"/><path class="point" transform="translate(352.52,354.54)" d="M3,0A3,3 0 1,1 0,-3A3,3 0 0,1 3,0Z" style="opacity: 1; stroke-width: 0px; fill: rgb(253, 138, 138); fill-opacity: 1;"/><path class="point" transform="translate(350.58,354.29)" d="M3,0A3,3 0 1,1 0,-3A3,3 0 0,1 3,0Z" style="opacity: 1; stroke-width: 0px; fill: rgb(253, 138, 138); fill-opacity: 1;"/><path class="point" transform="translate(351.97,352.68)" d="M3,0A3,3 0 1,1 0,-3A3,3 0 0,1 3,0Z" style="opacity: 1; stroke-width: 0px; fill: rgb(253, 138, 138); fill-opacity: 1;"/><path class="point" transform="translate(353.81,351.92)" d="M3,0A3,3 0 1,1 0,-3A3,3 0 0,1 3,0Z" style="opacity: 1; stroke-width: 0px; fill: rgb(253, 138, 138); fill-opacity: 1;"/><path class="point" transform="translate(354.48,348.88)" d="M3,0A3,3 0 1,1 0,-3A3,3 0 0,1 3,0Z" style="opacity: 1; stroke-width: 0px; fill: rgb(253, 138, 138); fill-opacity: 1;"/><path class="point" transform="translate(349.67,345.93)" d="M3,0A3,3 0 1,1 0,-3A3,3 0 0,1 3,0Z" style="opacity: 1; stroke-width: 0px; fill: rgb(253, 138, 138); fill-opacity: 1;"/><path class="point" transform="translate(353.67,342.18)" d="M3,0A3,3 0 1,1 0,-3A3,3 0 0,1 3,0Z" style="opacity: 1; stroke-width: 0px; fill: rgb(253, 138, 138); fill-opacity: 1;"/><path class="point" transform="translate(355.15,341.71)" d="M3,0A3,3 0 1,1 0,-3A3,3 0 0,1 3,0Z" style="opacity: 1; stroke-width: 0px; fill: rgb(253, 138, 138); fill-opacity: 1;"/><path class="point" transform="translate(350.69,330.65)" d="M3,0A3,3 0 1,1 0,-3A3,3 0 0,1 3,0Z" style="opacity: 1; stroke-width: 0px; fill: rgb(253, 138, 138); fill-opacity: 1;"/><path class="point" transform="translate(353.61,329.66)" d="M3,0A3,3 0 1,1 0,-3A3,3 0 0,1 3,0Z" style="opacity: 1; stroke-width: 0px; fill: rgb(253, 138, 138); fill-opacity: 1;"/><path class="point" transform="translate(352.48,327.82)" d="M3,0A3,3 0 1,1 0,-3A3,3 0 0,1 3,0Z" style="opacity: 1; stroke-width: 0px; fill: rgb(253, 138, 138); fill-opacity: 1;"/><path class="point" transform="translate(349.96,325.91)" d="M3,0A3,3 0 1,1 0,-3A3,3 0 0,1 3,0Z" style="opacity: 1; stroke-width: 0px; fill: rgb(253, 138, 138); fill-opacity: 1;"/><path class="point" transform="translate(354.49,325.48)" d="M3,0A3,3 0 1,1 0,-3A3,3 0 0,1 3,0Z" style="opacity: 1; stroke-width: 0px; fill: rgb(253, 138, 138); fill-opacity: 1;"/><path class="point" transform="translate(353.81,323.02)" d="M3,0A3,3 0 1,1 0,-3A3,3 0 0,1 3,0Z" style="opacity: 1; stroke-width: 0px; fill: rgb(253, 138, 138); fill-opacity: 1;"/><path class="point" transform="translate(351.79,320.91)" d="M3,0A3,3 0 1,1 0,-3A3,3 0 0,1 3,0Z" style="opacity: 1; stroke-width: 0px; fill: rgb(253, 138, 138); fill-opacity: 1;"/><path class="point" transform="translate(351.02,320.43)" d="M3,0A3,3 0 1,1 0,-3A3,3 0 0,1 3,0Z" style="opacity: 1; stroke-width: 0px; fill: rgb(253, 138, 138); fill-opacity: 1;"/><path class="point" transform="translate(355.87,319.21)" d="M3,0A3,3 0 1,1 0,-3A3,3 0 0,1 3,0Z" style="opacity: 1; stroke-width: 0px; fill: rgb(253, 138, 138); fill-opacity: 1;"/><path class="point" transform="translate(352.94,318.46)" d="M3,0A3,3 0 1,1 0,-3A3,3 0 0,1 3,0Z" style="opacity: 1; stroke-width: 0px; fill: rgb(253, 138, 138); fill-opacity: 1;"/><path class="point" transform="translate(354.76,318.21)" d="M3,0A3,3 0 1,1 0,-3A3,3 0 0,1 3,0Z" style="opacity: 1; stroke-width: 0px; fill: rgb(253, 138, 138); fill-opacity: 1;"/><path class="point" transform="translate(349.72,317.7)" d="M3,0A3,3 0 1,1 0,-3A3,3 0 0,1 3,0Z" style="opacity: 1; stroke-width: 0px; fill: rgb(253, 138, 138); fill-opacity: 1;"/><path class="point" transform="translate(353.5,317.19)" d="M3,0A3,3 0 1,1 0,-3A3,3 0 0,1 3,0Z" style="opacity: 1; stroke-width: 0px; fill: rgb(253, 138, 138); fill-opacity: 1;"/><path class="point" transform="translate(355.04,307.24)" d="M3,0A3,3 0 1,1 0,-3A3,3 0 0,1 3,0Z" style="opacity: 1; stroke-width: 0px; fill: rgb(253, 138, 138); fill-opacity: 1;"/><path class="point" transform="translate(352.64,306.6)" d="M3,0A3,3 0 1,1 0,-3A3,3 0 0,1 3,0Z" style="opacity: 1; stroke-width: 0px; fill: rgb(253, 138, 138); fill-opacity: 1;"/><path class="point" transform="translate(354.63,303.65)" d="M3,0A3,3 0 1,1 0,-3A3,3 0 0,1 3,0Z" style="opacity: 1; stroke-width: 0px; fill: rgb(253, 138, 138); fill-opacity: 1;"/><path class="point" transform="translate(352.05,303.65)" d="M3,0A3,3 0 1,1 0,-3A3,3 0 0,1 3,0Z" style="opacity: 1; stroke-width: 0px; fill: rgb(253, 138, 138); fill-opacity: 1;"/><path class="point" transform="translate(354.51,298.67)" d="M3,0A3,3 0 1,1 0,-3A3,3 0 0,1 3,0Z" style="opacity: 1; stroke-width: 0px; fill: rgb(253, 138, 138); fill-opacity: 1;"/><path class="point" transform="translate(352.99,298.3)" d="M3,0A3,3 0 1,1 0,-3A3,3 0 0,1 3,0Z" style="opacity: 1; stroke-width: 0px; fill: rgb(253, 138, 138); fill-opacity: 1;"/><path class="point" transform="translate(351.25,293.56)" d="M3,0A3,3 0 1,1 0,-3A3,3 0 0,1 3,0Z" style="opacity: 1; stroke-width: 0px; fill: rgb(253, 138, 138); fill-opacity: 1;"/><path class="point" transform="translate(353.74,291.87)" d="M3,0A3,3 0 1,1 0,-3A3,3 0 0,1 3,0Z" style="opacity: 1; stroke-width: 0px; fill: rgb(253, 138, 138); fill-opacity: 1;"/><path class="point" transform="translate(351.53,290.13)" d="M3,0A3,3 0 1,1 0,-3A3,3 0 0,1 3,0Z" style="opacity: 1; stroke-width: 0px; fill: rgb(253, 138, 138); fill-opacity: 1;"/><path class="point" transform="translate(350.12,278.97)" d="M3,0A3,3 0 1,1 0,-3A3,3 0 0,1 3,0Z" style="opacity: 1; stroke-width: 0px; fill: rgb(253, 138, 138); fill-opacity: 1;"/><path class="point" transform="translate(354.53,276.06)" d="M3,0A3,3 0 1,1 0,-3A3,3 0 0,1 3,0Z" style="opacity: 1; stroke-width: 0px; fill: rgb(253, 138, 138); fill-opacity: 1;"/><path class="point" transform="translate(351.63,273.95)" d="M3,0A3,3 0 1,1 0,-3A3,3 0 0,1 3,0Z" style="opacity: 1; stroke-width: 0px; fill: rgb(253, 138, 138); fill-opacity: 1;"/><path class="point" transform="translate(353.52,273.02)" d="M3,0A3,3 0 1,1 0,-3A3,3 0 0,1 3,0Z" style="opacity: 1; stroke-width: 0px; fill: rgb(253, 138, 138); fill-opacity: 1;"/><path class="point" transform="translate(350.84,267.95)" d="M3,0A3,3 0 1,1 0,-3A3,3 0 0,1 3,0Z" style="opacity: 1; stroke-width: 0px; fill: rgb(253, 138, 138); fill-opacity: 1;"/><path class="point" transform="translate(352.15,266.89)" d="M3,0A3,3 0 1,1 0,-3A3,3 0 0,1 3,0Z" style="opacity: 1; stroke-width: 0px; fill: rgb(253, 138, 138); fill-opacity: 1;"/><path class="point" transform="translate(353.5,263.52)" d="M3,0A3,3 0 1,1 0,-3A3,3 0 0,1 3,0Z" style="opacity: 1; stroke-width: 0px; fill: rgb(253, 138, 138); fill-opacity: 1;"/><path class="point" transform="translate(351.9,257.66)" d="M3,0A3,3 0 1,1 0,-3A3,3 0 0,1 3,0Z" style="opacity: 1; stroke-width: 0px; fill: rgb(253, 138, 138); fill-opacity: 1;"/><path class="point" transform="translate(349.65,257.4)" d="M3,0A3,3 0 1,1 0,-3A3,3 0 0,1 3,0Z" style="opacity: 1; stroke-width: 0px; fill: rgb(253, 138, 138); fill-opacity: 1;"/><path class="point" transform="translate(354.67,254.31)" d="M3,0A3,3 0 1,1 0,-3A3,3 0 0,1 3,0Z" style="opacity: 1; stroke-width: 0px; fill: rgb(253, 138, 138); fill-opacity: 1;"/><path class="point" transform="translate(350.19,253.29)" d="M3,0A3,3 0 1,1 0,-3A3,3 0 0,1 3,0Z" style="opacity: 1; stroke-width: 0px; fill: rgb(253, 138, 138); fill-opacity: 1;"/><path class="point" transform="translate(354.18,251.59)" d="M3,0A3,3 0 1,1 0,-3A3,3 0 0,1 3,0Z" style="opacity: 1; stroke-width: 0px; fill: rgb(253, 138, 138); fill-opacity: 1;"/><path class="point" transform="translate(350.74,250.51)" d="M3,0A3,3 0 1,1 0,-3A3,3 0 0,1 3,0Z" style="opacity: 1; stroke-width: 0px; fill: rgb(253, 138, 138); fill-opacity: 1;"/><path class="point" transform="translate(351.54,249.52)" d="M3,0A3,3 0 1,1 0,-3A3,3 0 0,1 3,0Z" style="opacity: 1; stroke-width: 0px; fill: rgb(253, 138, 138); fill-opacity: 1;"/><path class="point" transform="translate(349.7,247.57)" d="M3,0A3,3 0 1,1 0,-3A3,3 0 0,1 3,0Z" style="opacity: 1; stroke-width: 0px; fill: rgb(253, 138, 138); fill-opacity: 1;"/><path class="point" transform="translate(355.48,245.55)" d="M3,0A3,3 0 1,1 0,-3A3,3 0 0,1 3,0Z" style="opacity: 1; stroke-width: 0px; fill: rgb(253, 138, 138); fill-opacity: 1;"/><path class="point" transform="translate(352.48,242.17)" d="M3,0A3,3 0 1,1 0,-3A3,3 0 0,1 3,0Z" style="opacity: 1; stroke-width: 0px; fill: rgb(253, 138, 138); fill-opacity: 1;"/><path class="point" transform="translate(354.56,235.05)" d="M3,0A3,3 0 1,1 0,-3A3,3 0 0,1 3,0Z" style="opacity: 1; stroke-width: 0px; fill: rgb(253, 138, 138); fill-opacity: 1;"/><path class="point" transform="translate(350.94,234.37)" d="M3,0A3,3 0 1,1 0,-3A3,3 0 0,1 3,0Z" style="opacity: 1; stroke-width: 0px; fill: rgb(253, 138, 138); fill-opacity: 1;"/><path class="point" transform="translate(353.29,233.54)" d="M3,0A3,3 0 1,1 0,-3A3,3 0 0,1 3,0Z" style="opacity: 1; stroke-width: 0px; fill: rgb(253, 138, 138); fill-opacity: 1;"/><path class="point" transform="translate(352.2,228.44)" d="M3,0A3,3 0 1,1 0,-3A3,3 0 0,1 3,0Z" style="opacity: 1; stroke-width: 0px; fill: rgb(253, 138, 138); fill-opacity: 1;"/><path class="point" transform="translate(353.62,212.05)" d="M3,0A3,3 0 1,1 0,-3A3,3 0 0,1 3,0Z" style="opacity: 1; stroke-width: 0px; fill: rgb(253, 138, 138); fill-opacity: 1;"/><path class="point" transform="translate(351.07,203.95)" d="M3,0A3,3 0 1,1 0,-3A3,3 0 0,1 3,0Z" style="opacity: 1; stroke-width: 0px; fill: rgb(253, 138, 138); fill-opacity: 1;"/><path class="point" transform="translate(351.69,193.35)" d="M3,0A3,3 0 1,1 0,-3A3,3 0 0,1 3,0Z" style="opacity: 1; stroke-width: 0px; fill: rgb(253, 138, 138); fill-opacity: 1;"/><path class="point" transform="translate(352.87,190.14)" d="M3,0A3,3 0 1,1 0,-3A3,3 0 0,1 3,0Z" style="opacity: 1; stroke-width: 0px; fill: rgb(253, 138, 138); fill-opacity: 1;"/><path class="point" transform="translate(352.06,187.42)" d="M3,0A3,3 0 1,1 0,-3A3,3 0 0,1 3,0Z" style="opacity: 1; stroke-width: 0px; fill: rgb(253, 138, 138); fill-opacity: 1;"/><path class="point" transform="translate(350.43,182.64)" d="M3,0A3,3 0 1,1 0,-3A3,3 0 0,1 3,0Z" style="opacity: 1; stroke-width: 0px; fill: rgb(253, 138, 138); fill-opacity: 1;"/><path class="point" transform="translate(351.26,179.05)" d="M3,0A3,3 0 1,1 0,-3A3,3 0 0,1 3,0Z" style="opacity: 1; stroke-width: 0px; fill: rgb(253, 138, 138); fill-opacity: 1;"/><path class="point" transform="translate(352.08,176.5)" d="M3,0A3,3 0 1,1 0,-3A3,3 0 0,1 3,0Z" style="opacity: 1; stroke-width: 0px; fill: rgb(253, 138, 138); fill-opacity: 1;"/><path class="point" transform="translate(353,175.62)" d="M3,0A3,3 0 1,1 0,-3A3,3 0 0,1 3,0Z" style="opacity: 1; stroke-width: 0px; fill: rgb(253, 138, 138); fill-opacity: 1;"/><path class="point" transform="translate(354.05,164.63)" d="M3,0A3,3 0 1,1 0,-3A3,3 0 0,1 3,0Z" style="opacity: 1; stroke-width: 0px; fill: rgb(253, 138, 138); fill-opacity: 1;"/><path class="point" transform="translate(352.66,161.96)" d="M3,0A3,3 0 1,1 0,-3A3,3 0 0,1 3,0Z" style="opacity: 1; stroke-width: 0px; fill: rgb(253, 138, 138); fill-opacity: 1;"/><path class="point" transform="translate(353.7,156.59)" d="M3,0A3,3 0 1,1 0,-3A3,3 0 0,1 3,0Z" style="opacity: 1; stroke-width: 0px; fill: rgb(253, 138, 138); fill-opacity: 1;"/><path class="point" transform="translate(351.05,135.21)" d="M3,0A3,3 0 1,1 0,-3A3,3 0 0,1 3,0Z" style="opacity: 1; stroke-width: 0px; fill: rgb(253, 138, 138); fill-opacity: 1;"/><path class="point" transform="translate(352.75,113.93)" d="M3,0A3,3 0 1,1 0,-3A3,3 0 0,1 3,0Z" style="opacity: 1; stroke-width: 0px; fill: rgb(253, 138, 138); fill-opacity: 1;"/><path class="point" transform="translate(350.99,112.53)" d="M3,0A3,3 0 1,1 0,-3A3,3 0 0,1 3,0Z" style="opacity: 1; stroke-width: 0px; fill: rgb(253, 138, 138); fill-opacity: 1;"/><path class="point" transform="translate(351.99,108.76)" d="M3,0A3,3 0 1,1 0,-3A3,3 0 0,1 3,0Z" style="opacity: 1; stroke-width: 0px; fill: rgb(253, 138, 138); fill-opacity: 1;"/><path class="point" transform="translate(351.57,107.38)" d="M3,0A3,3 0 1,1 0,-3A3,3 0 0,1 3,0Z" style="opacity: 1; stroke-width: 0px; fill: rgb(253, 138, 138); fill-opacity: 1;"/><path class="point" transform="translate(353.03,103.18)" d="M3,0A3,3 0 1,1 0,-3A3,3 0 0,1 3,0Z" style="opacity: 1; stroke-width: 0px; fill: rgb(253, 138, 138); fill-opacity: 1;"/><path class="point" transform="translate(351.04,102.8)" d="M3,0A3,3 0 1,1 0,-3A3,3 0 0,1 3,0Z" style="opacity: 1; stroke-width: 0px; fill: rgb(253, 138, 138); fill-opacity: 1;"/><path class="point" transform="translate(352.67,97.11)" d="M3,0A3,3 0 1,1 0,-3A3,3 0 0,1 3,0Z" style="opacity: 1; stroke-width: 0px; fill: rgb(253, 138, 138); fill-opacity: 1;"/><path class="point" transform="translate(353.85,92.84)" d="M3,0A3,3 0 1,1 0,-3A3,3 0 0,1 3,0Z" style="opacity: 1; stroke-width: 0px; fill: rgb(253, 138, 138); fill-opacity: 1;"/><path class="point" transform="translate(352.43,92.13)" d="M3,0A3,3 0 1,1 0,-3A3,3 0 0,1 3,0Z" style="opacity: 1; stroke-width: 0px; fill: rgb(253, 138, 138); fill-opacity: 1;"/><path class="point" transform="translate(353.94,55.47)" d="M3,0A3,3 0 1,1 0,-3A3,3 0 0,1 3,0Z" style="opacity: 1; stroke-width: 0px; fill: rgb(253, 138, 138); fill-opacity: 1;"/></g></g><g class="trace violins" style="opacity: 1;"><path class="violin" d="M92.08,398.5Q93.01,393.26 93.42,390.63C93.83,388.01 94.21,385.38 94.55,382.75C94.89,380.13 95.2,377.51 95.48,374.88C95.76,372.26 96.01,369.63 96.21,367C96.41,364.38 96.6,361.76 96.7,359.13C96.8,356.51 96.87,353.88 96.84,351.25C96.81,348.63 96.71,346 96.51,343.38C96.31,340.75 96.01,338.12 95.64,335.5C95.27,332.87 94.78,330.25 94.28,327.63C93.78,325 93.19,322.38 92.62,319.76C92.05,317.13 91.43,314.51 90.88,311.88C90.33,309.26 89.79,306.64 89.32,304.01C88.85,301.39 88.42,298.76 88.05,296.13C87.68,293.51 87.38,290.89 87.12,288.26C86.86,285.64 86.65,283.01 86.48,280.38C86.31,277.76 86.17,275.13 86.08,272.51C85.99,269.88 85.93,267.26 85.92,264.63C85.91,262.01 85.93,259.38 85.99,256.76C86.05,254.14 86.17,251.51 86.31,248.89C86.45,246.26 86.65,243.63 86.85,241.01C87.05,238.38 87.3,235.76 87.53,233.14C87.76,230.51 88.01,227.89 88.21,225.26C88.41,222.64 88.59,220.02 88.71,217.39C88.83,214.77 88.91,212.14 88.91,209.51Q88.91,206.89 88.72,201.64L80.28,201.64Q80.09,206.89 80.09,209.51C80.09,212.14 80.17,214.77 80.29,217.39C80.41,220.02 80.59,222.64 80.79,225.26C80.99,227.89 81.24,230.51 81.47,233.14C81.7,235.76 81.95,238.38 82.15,241.01C82.35,243.63 82.55,246.26 82.69,248.89C82.83,251.51 82.95,254.14 83.01,256.76C83.07,259.38 83.09,262.01 83.08,264.63C83.07,267.26 83.01,269.88 82.92,272.51C82.83,275.13 82.69,277.76 82.52,280.38C82.35,283.01 82.14,285.64 81.88,288.26C81.62,290.89 81.32,293.51 80.95,296.13C80.58,298.76 80.15,301.39 79.68,304.01C79.21,306.64 78.67,309.26 78.12,311.88C77.57,314.51 76.95,317.13 76.38,319.76C75.81,322.38 75.22,325 74.72,327.63C74.22,330.25 73.73,332.87 73.36,335.5C72.99,338.12 72.69,340.75 72.49,343.38C72.29,346 72.19,348.63 72.16,351.25C72.13,353.88 72.2,356.51 72.3,359.13C72.4,361.76 72.59,364.38 72.79,367C72.99,369.63 73.24,372.26 73.52,374.88C73.8,377.51 74.11,380.13 74.45,382.75C74.79,385.38 75.17,388.01 75.58,390.63Q75.99,393.26 76.92,398.5Z" style="vector-effect: non-scaling-stroke; stroke-width: 2px; stroke: rgb(168, 209, 209); stroke-opacity: 1; fill: rgb(168, 209, 209); fill-opacity: 0.5;"/><path class="violin" d="M254.81,398.75Q255.15,391.02 255.2,387.15C255.25,383.29 255.21,379.42 255.14,375.56C255.07,371.69 254.93,367.83 254.8,363.96C254.67,360.09 254.51,356.23 254.38,352.36C254.26,348.49 254.14,344.63 254.05,340.76C253.96,336.9 253.9,333.03 253.85,329.17C253.8,325.3 253.78,321.44 253.75,317.57C253.72,313.7 253.7,309.84 253.66,305.97C253.62,302.1 253.57,298.24 253.49,294.37C253.41,290.51 253.32,286.64 253.2,282.78C253.08,278.91 252.94,275.05 252.78,271.18C252.62,267.31 252.43,263.45 252.24,259.58C252.05,255.71 251.83,251.85 251.62,247.98C251.41,244.12 251.17,240.25 250.96,236.39C250.74,232.52 250.53,228.66 250.33,224.79C250.13,220.92 249.93,217.06 249.77,213.19C249.61,209.32 249.46,205.46 249.35,201.59C249.24,197.73 249.16,193.86 249.09,190C249.02,186.13 248.98,182.27 248.95,178.4C248.92,174.53 248.92,170.67 248.9,166.8C248.88,162.93 248.87,159.07 248.85,155.2C248.83,151.34 248.81,147.47 248.77,143.61Q248.73,139.74 248.62,132.01L246.38,132.01Q246.27,139.74 246.23,143.61C246.19,147.47 246.17,151.34 246.15,155.2C246.13,159.07 246.12,162.93 246.1,166.8C246.08,170.67 246.08,174.53 246.05,178.4C246.02,182.27 245.98,186.13 245.91,190C245.84,193.86 245.76,197.73 245.65,201.59C245.54,205.46 245.39,209.32 245.23,213.19C245.07,217.06 244.87,220.92 244.67,224.79C244.47,228.66 244.26,232.52 244.04,236.39C243.83,240.25 243.59,244.12 243.38,247.98C243.17,251.85 242.95,255.71 242.76,259.58C242.57,263.45 242.38,267.31 242.22,271.18C242.06,275.05 241.92,278.91 241.8,282.78C241.68,286.64 241.59,290.51 241.51,294.37C241.43,298.24 241.38,302.1 241.34,305.97C241.3,309.84 241.28,313.7 241.25,317.57C241.22,321.44 241.2,325.3 241.15,329.17C241.1,333.03 241.04,336.9 240.95,340.76C240.86,344.63 240.74,348.49 240.62,352.36C240.49,356.23 240.33,360.09 240.2,363.96C240.07,367.83 239.93,371.69 239.86,375.56C239.79,379.42 239.75,383.29 239.8,387.15Q239.85,391.02 240.19,398.75Z" style="vector-effect: non-scaling-stroke; stroke-width: 2px; stroke: rgb(168, 209, 209); stroke-opacity: 1; fill: rgb(168, 209, 209); fill-opacity: 0.5;"/><path class="violin" d="M418.72,399Q418.98,390.55 418.96,386.33C418.94,382.11 418.77,377.88 418.58,373.66C418.39,369.44 418.09,365.21 417.81,360.99C417.53,356.76 417.19,352.54 416.9,348.31C416.61,344.09 416.31,339.86 416.06,335.64C415.81,331.42 415.59,327.19 415.41,322.97C415.23,318.75 415.09,314.52 414.97,310.3C414.85,306.08 414.77,301.85 414.69,297.63C414.62,293.41 414.57,289.18 414.52,284.96C414.47,280.73 414.45,276.51 414.41,272.28C414.37,268.06 414.34,263.83 414.29,259.61C414.24,255.39 414.18,251.16 414.11,246.94C414.04,242.72 413.96,238.49 413.87,234.27C413.78,230.05 413.66,225.82 413.55,221.6C413.44,217.38 413.32,213.15 413.21,208.93C413.09,204.71 412.97,200.48 412.86,196.26C412.75,192.03 412.64,187.81 412.54,183.58C412.44,179.36 412.35,175.13 412.26,170.91C412.17,166.69 412.09,162.46 412.01,158.24C411.93,154.02 411.87,149.79 411.8,145.57C411.73,141.35 411.67,137.12 411.61,132.9C411.55,128.68 411.49,124.45 411.43,120.23Q411.37,116.01 411.26,107.56L409.74,107.56Q409.63,116.01 409.57,120.23C409.51,124.45 409.45,128.68 409.39,132.9C409.33,137.12 409.27,141.35 409.2,145.57C409.13,149.79 409.07,154.02 408.99,158.24C408.91,162.46 408.83,166.69 408.74,170.91C408.65,175.13 408.56,179.36 408.46,183.58C408.36,187.81 408.25,192.03 408.14,196.26C408.03,200.48 407.91,204.71 407.79,208.93C407.68,213.15 407.56,217.38 407.45,221.6C407.34,225.82 407.22,230.05 407.13,234.27C407.04,238.49 406.96,242.72 406.89,246.94C406.82,251.16 406.76,255.39 406.71,259.61C406.66,263.83 406.63,268.06 406.59,272.28C406.55,276.51 406.53,280.73 406.48,284.96C406.43,289.18 406.38,293.41 406.31,297.63C406.23,301.85 406.15,306.08 406.03,310.3C405.91,314.52 405.77,318.75 405.59,322.97C405.41,327.19 405.19,331.42 404.94,335.64C404.69,339.86 404.39,344.09 404.1,348.31C403.81,352.54 403.47,356.76 403.19,360.99C402.91,365.21 402.61,369.44 402.42,373.66C402.23,377.88 402.06,382.11 402.04,386.33Q402.02,390.55 402.28,399Z" style="vector-effect: non-scaling-stroke; stroke-width: 2px; stroke: rgb(168, 209, 209); stroke-opacity: 1; fill: rgb(168, 209, 209); fill-opacity: 0.5;"/><path class="box" d="M81.17,347.78H87.83M81.17,375.36H87.83V318.18H81.17ZM84.5,375.36V398.5M84.5,318.18V287.39" style="vector-effect: non-scaling-stroke; stroke-width: 2px; stroke: rgb(168, 209, 209); stroke-opacity: 1; fill: rgb(168, 209, 209); fill-opacity: 0.5;"/><path class="box" d="M244.17,323.25H250.83M244.17,398.75H250.83V275.74H244.17ZM247.5,398.75V398.75M247.5,275.74V132.01" style="vector-effect: non-scaling-stroke; stroke-width: 2px; stroke: rgb(168, 209, 209); stroke-opacity: 1; fill: rgb(168, 209, 209); fill-opacity: 0.5;"/><path class="box" d="M407.17,355.02H413.83M407.17,398.75H413.83V259.5H407.17ZM410.5,398.75V399M410.5,259.5V107.56" style="vector-effect: non-scaling-stroke; stroke-width: 2px; stroke: rgb(168, 209, 209); stroke-opacity: 1; fill: rgb(168, 209, 209); fill-opacity: 0.5;"/><g class="points"><path class="point" transform="translate(66.58,398.5)" d="M3,0A3,3 0 1,1 0,-3A3,3 0 0,1 3,0Z" style="opacity: 1; stroke-width: 0px; fill: rgb(168, 209, 209); fill-opacity: 1;"/><path class="point" transform="translate(62.05,398.5)" d="M3,0A3,3 0 1,1 0,-3A3,3 0 0,1 3,0Z" style="opacity: 1; stroke-width: 0px; fill: rgb(168, 209, 209); fill-opacity: 1;"/><path class="point" transform="translate(67.17,398.5)" d="M3,0A3,3 0 1,1 0,-3A3,3 0 0,1 3,0Z" style="opacity: 1; stroke-width: 0px; fill: rgb(168, 209, 209); fill-opacity: 1;"/><path class="point" transform="translate(61.51,386.96)" d="M3,0A3,3 0 1,1 0,-3A3,3 0 0,1 3,0Z" style="opacity: 1; stroke-width: 0px; fill: rgb(168, 209, 209); fill-opacity: 1;"/><path class="point" transform="translate(63.62,377.19)" d="M3,0A3,3 0 1,1 0,-3A3,3 0 0,1 3,0Z" style="opacity: 1; stroke-width: 0px; fill: rgb(168, 209, 209); fill-opacity: 1;"/><path class="point" transform="translate(66.54,374.74)" d="M3,0A3,3 0 1,1 0,-3A3,3 0 0,1 3,0Z" style="opacity: 1; stroke-width: 0px; fill: rgb(168, 209, 209); fill-opacity: 1;"/><path class="point" transform="translate(64.41,369.18)" d="M3,0A3,3 0 1,1 0,-3A3,3 0 0,1 3,0Z" style="opacity: 1; stroke-width: 0px; fill: rgb(168, 209, 209); fill-opacity: 1;"/><path class="point" transform="translate(65.52,353.68)" d="M3,0A3,3 0 1,1 0,-3A3,3 0 0,1 3,0Z" style="opacity: 1; stroke-width: 0px; fill: rgb(168, 209, 209); fill-opacity: 1;"/><path class="point" transform="translate(63.36,352.3)" d="M3,0A3,3 0 1,1 0,-3A3,3 0 0,1 3,0Z" style="opacity: 1; stroke-width: 0px; fill: rgb(168, 209, 209); fill-opacity: 1;"/><path class="point" transform="translate(61.66,350.09)" d="M3,0A3,3 0 1,1 0,-3A3,3 0 0,1 3,0Z" style="opacity: 1; stroke-width: 0px; fill: rgb(168, 209, 209); fill-opacity: 1;"/><path class="point" transform="translate(65.6,347.78)" d="M3,0A3,3 0 1,1 0,-3A3,3 0 0,1 3,0Z" style="opacity: 1; stroke-width: 0px; fill: rgb(168, 209, 209); fill-opacity: 1;"/><path class="point" transform="translate(63.54,335.52)" d="M3,0A3,3 0 1,1 0,-3A3,3 0 0,1 3,0Z" style="opacity: 1; stroke-width: 0px; fill: rgb(168, 209, 209); fill-opacity: 1;"/><path class="point" transform="translate(66.05,334.98)" d="M3,0A3,3 0 1,1 0,-3A3,3 0 0,1 3,0Z" style="opacity: 1; stroke-width: 0px; fill: rgb(168, 209, 209); fill-opacity: 1;"/><path class="point" transform="translate(62.33,332.39)" d="M3,0A3,3 0 1,1 0,-3A3,3 0 0,1 3,0Z" style="opacity: 1; stroke-width: 0px; fill: rgb(168, 209, 209); fill-opacity: 1;"/><path class="point" transform="translate(63.23,329.26)" d="M3,0A3,3 0 1,1 0,-3A3,3 0 0,1 3,0Z" style="opacity: 1; stroke-width: 0px; fill: rgb(168, 209, 209); fill-opacity: 1;"/><path class="point" transform="translate(66.52,328.44)" d="M3,0A3,3 0 1,1 0,-3A3,3 0 0,1 3,0Z" style="opacity: 1; stroke-width: 0px; fill: rgb(168, 209, 209); fill-opacity: 1;"/><path class="point" transform="translate(63.97,287.39)" d="M3,0A3,3 0 1,1 0,-3A3,3 0 0,1 3,0Z" style="opacity: 1; stroke-width: 0px; fill: rgb(168, 209, 209); fill-opacity: 1;"/><path class="point" transform="translate(62.73,225.6)" d="M3,0A3,3 0 1,1 0,-3A3,3 0 0,1 3,0Z" style="opacity: 1; stroke-width: 0px; fill: rgb(168, 209, 209); fill-opacity: 1;"/><path class="point" transform="translate(63.88,208.51)" d="M3,0A3,3 0 1,1 0,-3A3,3 0 0,1 3,0Z" style="opacity: 1; stroke-width: 0px; fill: rgb(168, 209, 209); fill-opacity: 1;"/><path class="point" transform="translate(64.49,203.95)" d="M3,0A3,3 0 1,1 0,-3A3,3 0 0,1 3,0Z" style="opacity: 1; stroke-width: 0px; fill: rgb(168, 209, 209); fill-opacity: 1;"/><path class="point" transform="translate(65.3,201.64)" d="M3,0A3,3 0 1,1 0,-3A3,3 0 0,1 3,0Z" style="opacity: 1; stroke-width: 0px; fill: rgb(168, 209, 209); fill-opacity: 1;"/></g><g class="points"><path class="point" transform="translate(227.98,398.75)" d="M3,0A3,3 0 1,1 0,-3A3,3 0 0,1 3,0Z" style="opacity: 1; stroke-width: 0px; fill: rgb(168, 209, 209); fill-opacity: 1;"/><path class="point" transform="translate(226.41,398.75)" d="M3,0A3,3 0 1,1 0,-3A3,3 0 0,1 3,0Z" style="opacity: 1; stroke-width: 0px; fill: rgb(168, 209, 209); fill-opacity: 1;"/><path class="point" transform="translate(224.19,398.75)" d="M3,0A3,3 0 1,1 0,-3A3,3 0 0,1 3,0Z" style="opacity: 1; stroke-width: 0px; fill: rgb(168, 209, 209); fill-opacity: 1;"/><path class="point" transform="translate(227.52,398.75)" d="M3,0A3,3 0 1,1 0,-3A3,3 0 0,1 3,0Z" style="opacity: 1; stroke-width: 0px; fill: rgb(168, 209, 209); fill-opacity: 1;"/><path class="point" transform="translate(226.37,398.75)" d="M3,0A3,3 0 1,1 0,-3A3,3 0 0,1 3,0Z" style="opacity: 1; stroke-width: 0px; fill: rgb(168, 209, 209); fill-opacity: 1;"/><path class="point" transform="translate(229.39,398.75)" d="M3,0A3,3 0 1,1 0,-3A3,3 0 0,1 3,0Z" style="opacity: 1; stroke-width: 0px; fill: rgb(168, 209, 209); fill-opacity: 1;"/><path class="point" transform="translate(227.18,398.75)" d="M3,0A3,3 0 1,1 0,-3A3,3 0 0,1 3,0Z" style="opacity: 1; stroke-width: 0px; fill: rgb(168, 209, 209); fill-opacity: 1;"/><path class="point" transform="translate(224.92,398.75)" d="M3,0A3,3 0 1,1 0,-3A3,3 0 0,1 3,0Z" style="opacity: 1; stroke-width: 0px; fill: rgb(168, 209, 209); fill-opacity: 1;"/><path class="point" transform="translate(223.81,398.75)" d="M3,0A3,3 0 1,1 0,-3A3,3 0 0,1 3,0Z" style="opacity: 1; stroke-width: 0px; fill: rgb(168, 209, 209); fill-opacity: 1;"/><path class="point" transform="translate(229.78,398.75)" d="M3,0A3,3 0 1,1 0,-3A3,3 0 0,1 3,0Z" style="opacity: 1; stroke-width: 0px; fill: rgb(168, 209, 209); fill-opacity: 1;"/><path class="point" transform="translate(224.12,398.75)" d="M3,0A3,3 0 1,1 0,-3A3,3 0 0,1 3,0Z" style="opacity: 1; stroke-width: 0px; fill: rgb(168, 209, 209); fill-opacity: 1;"/><path class="point" transform="translate(229.91,398.75)" d="M3,0A3,3 0 1,1 0,-3A3,3 0 0,1 3,0Z" style="opacity: 1; stroke-width: 0px; fill: rgb(168, 209, 209); fill-opacity: 1;"/><path class="point" transform="translate(228.25,398.75)" d="M3,0A3,3 0 1,1 0,-3A3,3 0 0,1 3,0Z" style="opacity: 1; stroke-width: 0px; fill: rgb(168, 209, 209); fill-opacity: 1;"/><path class="point" transform="translate(226.7,398.75)" d="M3,0A3,3 0 1,1 0,-3A3,3 0 0,1 3,0Z" style="opacity: 1; stroke-width: 0px; fill: rgb(168, 209, 209); fill-opacity: 1;"/><path class="point" transform="translate(225.92,397.43)" d="M3,0A3,3 0 1,1 0,-3A3,3 0 0,1 3,0Z" style="opacity: 1; stroke-width: 0px; fill: rgb(168, 209, 209); fill-opacity: 1;"/><path class="point" transform="translate(228.67,395.87)" d="M3,0A3,3 0 1,1 0,-3A3,3 0 0,1 3,0Z" style="opacity: 1; stroke-width: 0px; fill: rgb(168, 209, 209); fill-opacity: 1;"/><path class="point" transform="translate(227.29,388.95)" d="M3,0A3,3 0 1,1 0,-3A3,3 0 0,1 3,0Z" style="opacity: 1; stroke-width: 0px; fill: rgb(168, 209, 209); fill-opacity: 1;"/><path class="point" transform="translate(229.07,380.47)" d="M3,0A3,3 0 1,1 0,-3A3,3 0 0,1 3,0Z" style="opacity: 1; stroke-width: 0px; fill: rgb(168, 209, 209); fill-opacity: 1;"/><path class="point" transform="translate(225.95,373.51)" d="M3,0A3,3 0 1,1 0,-3A3,3 0 0,1 3,0Z" style="opacity: 1; stroke-width: 0px; fill: rgb(168, 209, 209); fill-opacity: 1;"/><path class="point" transform="translate(228.61,372.34)" d="M3,0A3,3 0 1,1 0,-3A3,3 0 0,1 3,0Z" style="opacity: 1; stroke-width: 0px; fill: rgb(168, 209, 209); fill-opacity: 1;"/><path class="point" transform="translate(227.4,367.89)" d="M3,0A3,3 0 1,1 0,-3A3,3 0 0,1 3,0Z" style="opacity: 1; stroke-width: 0px; fill: rgb(168, 209, 209); fill-opacity: 1;"/><path class="point" transform="translate(226.87,360.81)" d="M3,0A3,3 0 1,1 0,-3A3,3 0 0,1 3,0Z" style="opacity: 1; stroke-width: 0px; fill: rgb(168, 209, 209); fill-opacity: 1;"/><path class="point" transform="translate(225.79,359.62)" d="M3,0A3,3 0 1,1 0,-3A3,3 0 0,1 3,0Z" style="opacity: 1; stroke-width: 0px; fill: rgb(168, 209, 209); fill-opacity: 1;"/><path class="point" transform="translate(226.81,343.56)" d="M3,0A3,3 0 1,1 0,-3A3,3 0 0,1 3,0Z" style="opacity: 1; stroke-width: 0px; fill: rgb(168, 209, 209); fill-opacity: 1;"/><path class="point" transform="translate(228.74,328.03)" d="M3,0A3,3 0 1,1 0,-3A3,3 0 0,1 3,0Z" style="opacity: 1; stroke-width: 0px; fill: rgb(168, 209, 209); fill-opacity: 1;"/><path class="point" transform="translate(227.09,323.25)" d="M3,0A3,3 0 1,1 0,-3A3,3 0 0,1 3,0Z" style="opacity: 1; stroke-width: 0px; fill: rgb(168, 209, 209); fill-opacity: 1;"/><path class="point" transform="translate(226.01,320.43)" d="M3,0A3,3 0 1,1 0,-3A3,3 0 0,1 3,0Z" style="opacity: 1; stroke-width: 0px; fill: rgb(168, 209, 209); fill-opacity: 1;"/><path class="point" transform="translate(228.48,317.7)" d="M3,0A3,3 0 1,1 0,-3A3,3 0 0,1 3,0Z" style="opacity: 1; stroke-width: 0px; fill: rgb(168, 209, 209); fill-opacity: 1;"/><path class="point" transform="translate(226.34,316.15)" d="M3,0A3,3 0 1,1 0,-3A3,3 0 0,1 3,0Z" style="opacity: 1; stroke-width: 0px; fill: rgb(168, 209, 209); fill-opacity: 1;"/><path class="point" transform="translate(227.53,312.04)" d="M3,0A3,3 0 1,1 0,-3A3,3 0 0,1 3,0Z" style="opacity: 1; stroke-width: 0px; fill: rgb(168, 209, 209); fill-opacity: 1;"/><path class="point" transform="translate(228.46,311.75)" d="M3,0A3,3 0 1,1 0,-3A3,3 0 0,1 3,0Z" style="opacity: 1; stroke-width: 0px; fill: rgb(168, 209, 209); fill-opacity: 1;"/><path class="point" transform="translate(225.45,309.39)" d="M3,0A3,3 0 1,1 0,-3A3,3 0 0,1 3,0Z" style="opacity: 1; stroke-width: 0px; fill: rgb(168, 209, 209); fill-opacity: 1;"/><path class="point" transform="translate(229.6,308.17)" d="M3,0A3,3 0 1,1 0,-3A3,3 0 0,1 3,0Z" style="opacity: 1; stroke-width: 0px; fill: rgb(168, 209, 209); fill-opacity: 1;"/><path class="point" transform="translate(228.44,303.65)" d="M3,0A3,3 0 1,1 0,-3A3,3 0 0,1 3,0Z" style="opacity: 1; stroke-width: 0px; fill: rgb(168, 209, 209); fill-opacity: 1;"/><path class="point" transform="translate(225.53,301.93)" d="M3,0A3,3 0 1,1 0,-3A3,3 0 0,1 3,0Z" style="opacity: 1; stroke-width: 0px; fill: rgb(168, 209, 209); fill-opacity: 1;"/><path class="point" transform="translate(229.26,281.31)" d="M3,0A3,3 0 1,1 0,-3A3,3 0 0,1 3,0Z" style="opacity: 1; stroke-width: 0px; fill: rgb(168, 209, 209); fill-opacity: 1;"/><path class="point" transform="translate(226,277.91)" d="M3,0A3,3 0 1,1 0,-3A3,3 0 0,1 3,0Z" style="opacity: 1; stroke-width: 0px; fill: rgb(168, 209, 209); fill-opacity: 1;"/><path class="point" transform="translate(227.32,277.28)" d="M3,0A3,3 0 1,1 0,-3A3,3 0 0,1 3,0Z" style="opacity: 1; stroke-width: 0px; fill: rgb(168, 209, 209); fill-opacity: 1;"/><path class="point" transform="translate(227.75,275.22)" d="M3,0A3,3 0 1,1 0,-3A3,3 0 0,1 3,0Z" style="opacity: 1; stroke-width: 0px; fill: rgb(168, 209, 209); fill-opacity: 1;"/><path class="point" transform="translate(226.81,273.58)" d="M3,0A3,3 0 1,1 0,-3A3,3 0 0,1 3,0Z" style="opacity: 1; stroke-width: 0px; fill: rgb(168, 209, 209); fill-opacity: 1;"/><path class="point" transform="translate(228.85,270.51)" d="M3,0A3,3 0 1,1 0,-3A3,3 0 0,1 3,0Z" style="opacity: 1; stroke-width: 0px; fill: rgb(168, 209, 209); fill-opacity: 1;"/><path class="point" transform="translate(226.21,264.43)" d="M3,0A3,3 0 1,1 0,-3A3,3 0 0,1 3,0Z" style="opacity: 1; stroke-width: 0px; fill: rgb(168, 209, 209); fill-opacity: 1;"/><path class="point" transform="translate(228.04,243.09)" d="M3,0A3,3 0 1,1 0,-3A3,3 0 0,1 3,0Z" style="opacity: 1; stroke-width: 0px; fill: rgb(168, 209, 209); fill-opacity: 1;"/><path class="point" transform="translate(228.46,241.58)" d="M3,0A3,3 0 1,1 0,-3A3,3 0 0,1 3,0Z" style="opacity: 1; stroke-width: 0px; fill: rgb(168, 209, 209); fill-opacity: 1;"/><path class="point" transform="translate(226.36,236.37)" d="M3,0A3,3 0 1,1 0,-3A3,3 0 0,1 3,0Z" style="opacity: 1; stroke-width: 0px; fill: rgb(168, 209, 209); fill-opacity: 1;"/><path class="point" transform="translate(226.88,235.58)" d="M3,0A3,3 0 1,1 0,-3A3,3 0 0,1 3,0Z" style="opacity: 1; stroke-width: 0px; fill: rgb(168, 209, 209); fill-opacity: 1;"/><path class="point" transform="translate(228.15,234.1)" d="M3,0A3,3 0 1,1 0,-3A3,3 0 0,1 3,0Z" style="opacity: 1; stroke-width: 0px; fill: rgb(168, 209, 209); fill-opacity: 1;"/><path class="point" transform="translate(227.23,168.72)" d="M3,0A3,3 0 1,1 0,-3A3,3 0 0,1 3,0Z" style="opacity: 1; stroke-width: 0px; fill: rgb(168, 209, 209); fill-opacity: 1;"/><path class="point" transform="translate(227.62,154.19)" d="M3,0A3,3 0 1,1 0,-3A3,3 0 0,1 3,0Z" style="opacity: 1; stroke-width: 0px; fill: rgb(168, 209, 209); fill-opacity: 1;"/><path class="point" transform="translate(228.44,147.63)" d="M3,0A3,3 0 1,1 0,-3A3,3 0 0,1 3,0Z" style="opacity: 1; stroke-width: 0px; fill: rgb(168, 209, 209); fill-opacity: 1;"/><path class="point" transform="translate(226.78,132.01)" d="M3,0A3,3 0 1,1 0,-3A3,3 0 0,1 3,0Z" style="opacity: 1; stroke-width: 0px; fill: rgb(168, 209, 209); fill-opacity: 1;"/></g><g class="points"><path class="point" transform="translate(394.51,399)" d="M3,0A3,3 0 1,1 0,-3A3,3 0 0,1 3,0Z" style="opacity: 1; stroke-width: 0px; fill: rgb(168, 209, 209); fill-opacity: 1;"/><path class="point" transform="translate(387.56,399)" d="M3,0A3,3 0 1,1 0,-3A3,3 0 0,1 3,0Z" style="opacity: 1; stroke-width: 0px; fill: rgb(168, 209, 209); fill-opacity: 1;"/><path class="point" transform="translate(394.47,399)" d="M3,0A3,3 0 1,1 0,-3A3,3 0 0,1 3,0Z" style="opacity: 1; stroke-width: 0px; fill: rgb(168, 209, 209); fill-opacity: 1;"/><path class="point" transform="translate(388.6,399)" d="M3,0A3,3 0 1,1 0,-3A3,3 0 0,1 3,0Z" style="opacity: 1; stroke-width: 0px; fill: rgb(168, 209, 209); fill-opacity: 1;"/><path class="point" transform="translate(393.54,398.75)" d="M3,0A3,3 0 1,1 0,-3A3,3 0 0,1 3,0Z" style="opacity: 1; stroke-width: 0px; fill: rgb(168, 209, 209); fill-opacity: 1;"/><path class="point" transform="translate(391.66,398.75)" d="M3,0A3,3 0 1,1 0,-3A3,3 0 0,1 3,0Z" style="opacity: 1; stroke-width: 0px; fill: rgb(168, 209, 209); fill-opacity: 1;"/><path class="point" transform="translate(390,398.75)" d="M3,0A3,3 0 1,1 0,-3A3,3 0 0,1 3,0Z" style="opacity: 1; stroke-width: 0px; fill: rgb(168, 209, 209); fill-opacity: 1;"/><path class="point" transform="translate(386.77,398.75)" d="M3,0A3,3 0 1,1 0,-3A3,3 0 0,1 3,0Z" style="opacity: 1; stroke-width: 0px; fill: rgb(168, 209, 209); fill-opacity: 1;"/><path class="point" transform="translate(389.87,398.75)" d="M3,0A3,3 0 1,1 0,-3A3,3 0 0,1 3,0Z" style="opacity: 1; stroke-width: 0px; fill: rgb(168, 209, 209); fill-opacity: 1;"/><path class="point" transform="translate(387.2,398.75)" d="M3,0A3,3 0 1,1 0,-3A3,3 0 0,1 3,0Z" style="opacity: 1; stroke-width: 0px; fill: rgb(168, 209, 209); fill-opacity: 1;"/><path class="point" transform="translate(388.34,398.75)" d="M3,0A3,3 0 1,1 0,-3A3,3 0 0,1 3,0Z" style="opacity: 1; stroke-width: 0px; fill: rgb(168, 209, 209); fill-opacity: 1;"/><path class="point" transform="translate(387.41,398.75)" d="M3,0A3,3 0 1,1 0,-3A3,3 0 0,1 3,0Z" style="opacity: 1; stroke-width: 0px; fill: rgb(168, 209, 209); fill-opacity: 1;"/><path class="point" transform="translate(386.57,398.75)" d="M3,0A3,3 0 1,1 0,-3A3,3 0 0,1 3,0Z" style="opacity: 1; stroke-width: 0px; fill: rgb(168, 209, 209); fill-opacity: 1;"/><path class="point" transform="translate(388.41,398.75)" d="M3,0A3,3 0 1,1 0,-3A3,3 0 0,1 3,0Z" style="opacity: 1; stroke-width: 0px; fill: rgb(168, 209, 209); fill-opacity: 1;"/><path class="point" transform="translate(391.87,398.75)" d="M3,0A3,3 0 1,1 0,-3A3,3 0 0,1 3,0Z" style="opacity: 1; stroke-width: 0px; fill: rgb(168, 209, 209); fill-opacity: 1;"/><path class="point" transform="translate(387.09,398.75)" d="M3,0A3,3 0 1,1 0,-3A3,3 0 0,1 3,0Z" style="opacity: 1; stroke-width: 0px; fill: rgb(168, 209, 209); fill-opacity: 1;"/><path class="point" transform="translate(391.43,398.75)" d="M3,0A3,3 0 1,1 0,-3A3,3 0 0,1 3,0Z" style="opacity: 1; stroke-width: 0px; fill: rgb(168, 209, 209); fill-opacity: 1;"/><path class="point" transform="translate(392.47,398.75)" d="M3,0A3,3 0 1,1 0,-3A3,3 0 0,1 3,0Z" style="opacity: 1; stroke-width: 0px; fill: rgb(168, 209, 209); fill-opacity: 1;"/><path class="point" transform="translate(391.01,398.75)" d="M3,0A3,3 0 1,1 0,-3A3,3 0 0,1 3,0Z" style="opacity: 1; stroke-width: 0px; fill: rgb(168, 209, 209); fill-opacity: 1;"/><path class="point" transform="translate(388.19,398.75)" d="M3,0A3,3 0 1,1 0,-3A3,3 0 0,1 3,0Z" style="opacity: 1; stroke-width: 0px; fill: rgb(168, 209, 209); fill-opacity: 1;"/><path class="point" transform="translate(389.18,398.75)" d="M3,0A3,3 0 1,1 0,-3A3,3 0 0,1 3,0Z" style="opacity: 1; stroke-width: 0px; fill: rgb(168, 209, 209); fill-opacity: 1;"/><path class="point" transform="translate(394.39,398.75)" d="M3,0A3,3 0 1,1 0,-3A3,3 0 0,1 3,0Z" style="opacity: 1; stroke-width: 0px; fill: rgb(168, 209, 209); fill-opacity: 1;"/><path class="point" transform="translate(388.77,398.75)" d="M3,0A3,3 0 1,1 0,-3A3,3 0 0,1 3,0Z" style="opacity: 1; stroke-width: 0px; fill: rgb(168, 209, 209); fill-opacity: 1;"/><path class="point" transform="translate(390.88,398.75)" d="M3,0A3,3 0 1,1 0,-3A3,3 0 0,1 3,0Z" style="opacity: 1; stroke-width: 0px; fill: rgb(168, 209, 209); fill-opacity: 1;"/><path class="point" transform="translate(392.23,398.75)" d="M3,0A3,3 0 1,1 0,-3A3,3 0 0,1 3,0Z" style="opacity: 1; stroke-width: 0px; fill: rgb(168, 209, 209); fill-opacity: 1;"/><path class="point" transform="translate(388.36,398.75)" d="M3,0A3,3 0 1,1 0,-3A3,3 0 0,1 3,0Z" style="opacity: 1; stroke-width: 0px; fill: rgb(168, 209, 209); fill-opacity: 1;"/><path class="point" transform="translate(390.23,386.07)" d="M3,0A3,3 0 1,1 0,-3A3,3 0 0,1 3,0Z" style="opacity: 1; stroke-width: 0px; fill: rgb(168, 209, 209); fill-opacity: 1;"/><path class="point" transform="translate(392.45,379.16)" d="M3,0A3,3 0 1,1 0,-3A3,3 0 0,1 3,0Z" style="opacity: 1; stroke-width: 0px; fill: rgb(168, 209, 209); fill-opacity: 1;"/><path class="point" transform="translate(388.64,374.82)" d="M3,0A3,3 0 1,1 0,-3A3,3 0 0,1 3,0Z" style="opacity: 1; stroke-width: 0px; fill: rgb(168, 209, 209); fill-opacity: 1;"/><path class="point" transform="translate(390.12,368.91)" d="M3,0A3,3 0 1,1 0,-3A3,3 0 0,1 3,0Z" style="opacity: 1; stroke-width: 0px; fill: rgb(168, 209, 209); fill-opacity: 1;"/><path class="point" transform="translate(391.44,366.29)" d="M3,0A3,3 0 1,1 0,-3A3,3 0 0,1 3,0Z" style="opacity: 1; stroke-width: 0px; fill: rgb(168, 209, 209); fill-opacity: 1;"/><path class="point" transform="translate(392.05,355.02)" d="M3,0A3,3 0 1,1 0,-3A3,3 0 0,1 3,0Z" style="opacity: 1; stroke-width: 0px; fill: rgb(168, 209, 209); fill-opacity: 1;"/><path class="point" transform="translate(392.43,351.4)" d="M3,0A3,3 0 1,1 0,-3A3,3 0 0,1 3,0Z" style="opacity: 1; stroke-width: 0px; fill: rgb(168, 209, 209); fill-opacity: 1;"/><path class="point" transform="translate(388.81,349.55)" d="M3,0A3,3 0 1,1 0,-3A3,3 0 0,1 3,0Z" style="opacity: 1; stroke-width: 0px; fill: rgb(168, 209, 209); fill-opacity: 1;"/><path class="point" transform="translate(390.99,345.64)" d="M3,0A3,3 0 1,1 0,-3A3,3 0 0,1 3,0Z" style="opacity: 1; stroke-width: 0px; fill: rgb(168, 209, 209); fill-opacity: 1;"/><path class="point" transform="translate(388.66,334.44)" d="M3,0A3,3 0 1,1 0,-3A3,3 0 0,1 3,0Z" style="opacity: 1; stroke-width: 0px; fill: rgb(168, 209, 209); fill-opacity: 1;"/><path class="point" transform="translate(392.5,332.01)" d="M3,0A3,3 0 1,1 0,-3A3,3 0 0,1 3,0Z" style="opacity: 1; stroke-width: 0px; fill: rgb(168, 209, 209); fill-opacity: 1;"/><path class="point" transform="translate(390.9,323.25)" d="M3,0A3,3 0 1,1 0,-3A3,3 0 0,1 3,0Z" style="opacity: 1; stroke-width: 0px; fill: rgb(168, 209, 209); fill-opacity: 1;"/><path class="point" transform="translate(389.98,316.67)" d="M3,0A3,3 0 1,1 0,-3A3,3 0 0,1 3,0Z" style="opacity: 1; stroke-width: 0px; fill: rgb(168, 209, 209); fill-opacity: 1;"/><path class="point" transform="translate(392.37,309.69)" d="M3,0A3,3 0 1,1 0,-3A3,3 0 0,1 3,0Z" style="opacity: 1; stroke-width: 0px; fill: rgb(168, 209, 209); fill-opacity: 1;"/><path class="point" transform="translate(389.4,307.86)" d="M3,0A3,3 0 1,1 0,-3A3,3 0 0,1 3,0Z" style="opacity: 1; stroke-width: 0px; fill: rgb(168, 209, 209); fill-opacity: 1;"/><path class="point" transform="translate(389.83,307.55)" d="M3,0A3,3 0 1,1 0,-3A3,3 0 0,1 3,0Z" style="opacity: 1; stroke-width: 0px; fill: rgb(168, 209, 209); fill-opacity: 1;"/><path class="point" transform="translate(390.28,303.31)" d="M3,0A3,3 0 1,1 0,-3A3,3 0 0,1 3,0Z" style="opacity: 1; stroke-width: 0px; fill: rgb(168, 209, 209); fill-opacity: 1;"/><path class="point" transform="translate(391.41,291.87)" d="M3,0A3,3 0 1,1 0,-3A3,3 0 0,1 3,0Z" style="opacity: 1; stroke-width: 0px; fill: rgb(168, 209, 209); fill-opacity: 1;"/><path class="point" transform="translate(389.62,290.57)" d="M3,0A3,3 0 1,1 0,-3A3,3 0 0,1 3,0Z" style="opacity: 1; stroke-width: 0px; fill: rgb(168, 209, 209); fill-opacity: 1;"/><path class="point" transform="translate(390.37,262.84)" d="M3,0A3,3 0 1,1 0,-3A3,3 0 0,1 3,0Z" style="opacity: 1; stroke-width: 0px; fill: rgb(168, 209, 209); fill-opacity: 1;"/><path class="point" transform="translate(389.77,259.5)" d="M3,0A3,3 0 1,1 0,-3A3,3 0 0,1 3,0Z" style="opacity: 1; stroke-width: 0px; fill: rgb(168, 209, 209); fill-opacity: 1;"/><path class="point" transform="translate(391.9,259.5)" d="M3,0A3,3 0 1,1 0,-3A3,3 0 0,1 3,0Z" style="opacity: 1; stroke-width: 0px; fill: rgb(168, 209, 209); fill-opacity: 1;"/><path class="point" transform="translate(390.17,258.25)" d="M3,0A3,3 0 1,1 0,-3A3,3 0 0,1 3,0Z" style="opacity: 1; stroke-width: 0px; fill: rgb(168, 209, 209); fill-opacity: 1;"/><path class="point" transform="translate(391.62,257.66)" d="M3,0A3,3 0 1,1 0,-3A3,3 0 0,1 3,0Z" style="opacity: 1; stroke-width: 0px; fill: rgb(168, 209, 209); fill-opacity: 1;"/><path class="point" transform="translate(390.61,250.42)" d="M3,0A3,3 0 1,1 0,-3A3,3 0 0,1 3,0Z" style="opacity: 1; stroke-width: 0px; fill: rgb(168, 209, 209); fill-opacity: 1;"/><path class="point" transform="translate(391.79,245.55)" d="M3,0A3,3 0 1,1 0,-3A3,3 0 0,1 3,0Z" style="opacity: 1; stroke-width: 0px; fill: rgb(168, 209, 209); fill-opacity: 1;"/><path class="point" transform="translate(389.45,236.37)" d="M3,0A3,3 0 1,1 0,-3A3,3 0 0,1 3,0Z" style="opacity: 1; stroke-width: 0px; fill: rgb(168, 209, 209); fill-opacity: 1;"/><path class="point" transform="translate(390.75,230.84)" d="M3,0A3,3 0 1,1 0,-3A3,3 0 0,1 3,0Z" style="opacity: 1; stroke-width: 0px; fill: rgb(168, 209, 209); fill-opacity: 1;"/><path class="point" transform="translate(391.4,228.29)" d="M3,0A3,3 0 1,1 0,-3A3,3 0 0,1 3,0Z" style="opacity: 1; stroke-width: 0px; fill: rgb(168, 209, 209); fill-opacity: 1;"/><path class="point" transform="translate(390.63,221.54)" d="M3,0A3,3 0 1,1 0,-3A3,3 0 0,1 3,0Z" style="opacity: 1; stroke-width: 0px; fill: rgb(168, 209, 209); fill-opacity: 1;"/><path class="point" transform="translate(391.02,208.28)" d="M3,0A3,3 0 1,1 0,-3A3,3 0 0,1 3,0Z" style="opacity: 1; stroke-width: 0px; fill: rgb(168, 209, 209); fill-opacity: 1;"/><path class="point" transform="translate(391.57,181.87)" d="M3,0A3,3 0 1,1 0,-3A3,3 0 0,1 3,0Z" style="opacity: 1; stroke-width: 0px; fill: rgb(168, 209, 209); fill-opacity: 1;"/><path class="point" transform="translate(389.98,181.08)" d="M3,0A3,3 0 1,1 0,-3A3,3 0 0,1 3,0Z" style="opacity: 1; stroke-width: 0px; fill: rgb(168, 209, 209); fill-opacity: 1;"/><path class="point" transform="translate(391.26,174.72)" d="M3,0A3,3 0 1,1 0,-3A3,3 0 0,1 3,0Z" style="opacity: 1; stroke-width: 0px; fill: rgb(168, 209, 209); fill-opacity: 1;"/><path class="point" transform="translate(390.86,153.57)" d="M3,0A3,3 0 1,1 0,-3A3,3 0 0,1 3,0Z" style="opacity: 1; stroke-width: 0px; fill: rgb(168, 209, 209); fill-opacity: 1;"/><path class="point" transform="translate(391.28,119.03)" d="M3,0A3,3 0 1,1 0,-3A3,3 0 0,1 3,0Z" style="opacity: 1; stroke-width: 0px; fill: rgb(168, 209, 209); fill-opacity: 1;"/><path class="point" transform="translate(389.86,107.56)" d="M3,0A3,3 0 1,1 0,-3A3,3 0 0,1 3,0Z" style="opacity: 1; stroke-width: 0px; fill: rgb(168, 209, 209); fill-opacity: 1;"/></g></g><g class="trace violins" style="opacity: 1;"><path class="violin" d="M288.92,350.62Q288.85,344.99 288.74,342.17C288.63,339.35 288.45,336.54 288.28,333.72C288.11,330.9 287.88,328.08 287.7,325.26C287.52,322.44 287.31,319.63 287.19,316.81C287.07,313.99 286.96,311.18 286.96,308.36C286.96,305.54 287.01,302.72 287.18,299.91C287.35,297.09 287.6,294.27 287.97,291.46C288.34,288.63 288.84,285.81 289.41,283C289.99,280.17 290.69,277.36 291.42,274.55C292.15,271.73 293,268.92 293.78,266.1C294.56,263.28 295.41,260.48 296.1,257.65C296.79,254.84 297.45,252.03 297.91,249.2C298.37,246.39 298.71,243.57 298.85,240.75C298.99,237.94 298.94,235.1 298.76,232.29C298.58,229.47 298.21,226.65 297.79,223.84C297.37,221.02 296.81,218.2 296.26,215.39C295.71,212.57 295.08,209.76 294.5,206.94C293.92,204.12 293.32,201.31 292.77,198.49C292.22,195.68 291.68,192.86 291.18,190.04C290.68,187.22 290.2,184.4 289.76,181.58C289.32,178.77 288.91,175.95 288.54,173.13C288.17,170.32 287.83,167.5 287.53,164.68C287.23,161.87 286.98,159.05 286.76,156.23C286.54,153.41 286.37,150.6 286.22,147.78C286.07,144.96 285.97,142.14 285.88,139.32C285.79,136.5 285.74,133.69 285.69,130.87C285.64,128.05 285.62,125.24 285.6,122.42C285.58,119.6 285.57,116.79 285.56,113.97C285.55,111.15 285.56,108.34 285.56,105.52C285.56,102.7 285.57,99.89 285.58,97.07C285.59,94.25 285.61,91.43 285.64,88.61C285.67,85.79 285.71,82.98 285.77,80.16C285.83,77.34 285.91,74.53 286.01,71.71C286.12,68.89 286.24,66.08 286.4,63.26C286.56,60.44 286.75,57.63 286.95,54.81C287.15,51.99 287.38,49.18 287.6,46.36C287.82,43.54 288.06,40.72 288.25,37.9C288.44,35.08 288.62,32.27 288.73,29.45Q288.84,26.63 288.91,21L282.15,21Q282.22,26.63 282.33,29.45C282.44,32.27 282.63,35.08 282.82,37.9C283.01,40.72 283.24,43.54 283.46,46.36C283.68,49.18 283.92,51.99 284.12,54.81C284.32,57.63 284.51,60.44 284.67,63.26C284.83,66.08 284.95,68.89 285.06,71.71C285.16,74.53 285.24,77.34 285.3,80.16C285.36,82.98 285.4,85.79 285.43,88.61C285.46,91.43 285.48,94.25 285.49,97.07C285.5,99.89 285.51,102.7 285.51,105.52C285.51,108.34 285.51,111.15 285.5,113.97C285.49,116.79 285.49,119.6 285.47,122.42C285.45,125.24 285.42,128.05 285.37,130.87C285.32,133.69 285.27,136.5 285.18,139.32C285.09,142.14 284.99,144.96 284.85,147.78C284.7,150.6 284.53,153.41 284.31,156.23C284.09,159.05 283.83,161.87 283.53,164.68C283.23,167.5 282.9,170.32 282.53,173.13C282.16,175.95 281.74,178.76 281.3,181.58C280.86,184.4 280.39,187.22 279.89,190.04C279.39,192.86 278.85,195.68 278.3,198.49C277.75,201.31 277.15,204.12 276.57,206.94C275.99,209.76 275.36,212.57 274.81,215.39C274.26,218.2 273.69,221.02 273.27,223.84C272.85,226.65 272.48,229.47 272.31,232.29C272.14,235.1 272.08,237.94 272.22,240.75C272.36,243.57 272.7,246.39 273.16,249.2C273.62,252.03 274.28,254.84 274.97,257.65C275.66,260.48 276.51,263.28 277.29,266.1C278.07,268.92 278.92,271.73 279.65,274.55C280.38,277.36 281.09,280.17 281.66,283C282.23,285.81 282.72,288.63 283.09,291.46C283.46,294.27 283.72,297.09 283.89,299.91C284.06,302.72 284.11,305.54 284.11,308.36C284.11,311.18 284,313.99 283.88,316.81C283.76,319.63 283.55,322.44 283.37,325.26C283.19,328.08 282.96,330.9 282.78,333.72C282.61,336.54 282.43,339.35 282.32,342.17Q282.22,344.99 282.15,350.62Z" style="vector-effect: non-scaling-stroke; stroke-width: 2px; stroke: rgb(241, 247, 181); stroke-opacity: 1; fill: rgb(241, 247, 181); fill-opacity: 0.5;"/><path class="box" d="M282.21,238.8H288.86M282.21,250.54H288.86V202.43H282.21ZM285.53,250.54V253.1M285.53,202.43V194.28" style="vector-effect: non-scaling-stroke; stroke-width: 2px; stroke: rgb(241, 247, 181); stroke-opacity: 1; fill: rgb(241, 247, 181); fill-opacity: 0.5;"/><g class="points"><path class="point" transform="translate(267.64,350.62)" d="M3,0A3,3 0 1,1 0,-3A3,3 0 0,1 3,0Z" style="opacity: 1; stroke-width: 0px; fill: rgb(241, 247, 181); fill-opacity: 1;"/><path class="point" transform="translate(263.65,253.1)" d="M3,0A3,3 0 1,1 0,-3A3,3 0 0,1 3,0Z" style="opacity: 1; stroke-width: 0px; fill: rgb(241, 247, 181); fill-opacity: 1;"/><path class="point" transform="translate(267.9,242.86)" d="M3,0A3,3 0 1,1 0,-3A3,3 0 0,1 3,0Z" style="opacity: 1; stroke-width: 0px; fill: rgb(241, 247, 181); fill-opacity: 1;"/><path class="point" transform="translate(263.02,238.8)" d="M3,0A3,3 0 1,1 0,-3A3,3 0 0,1 3,0Z" style="opacity: 1; stroke-width: 0px; fill: rgb(241, 247, 181); fill-opacity: 1;"/><path class="point" transform="translate(264.82,226.88)" d="M3,0A3,3 0 1,1 0,-3A3,3 0 0,1 3,0Z" style="opacity: 1; stroke-width: 0px; fill: rgb(241, 247, 181); fill-opacity: 1;"/><path class="point" transform="translate(267.15,194.28)" d="M3,0A3,3 0 1,1 0,-3A3,3 0 0,1 3,0Z" style="opacity: 1; stroke-width: 0px; fill: rgb(241, 247, 181); fill-opacity: 1;"/><path class="point" transform="translate(265.44,21)" d="M3,0A3,3 0 1,1 0,-3A3,3 0 0,1 3,0Z" style="opacity: 1; stroke-width: 0px; fill: rgb(241, 247, 181); fill-opacity: 1;"/></g></g></g></g><g class="overplot"/><path class="xlines-above crisp" d="M0,0" style="fill: none;"/><path class="ylines-above crisp" d="M0,0" style="fill: none;"/><g class="overlines-above"/><g class="xaxislayer-above"><g class="xtick"><text text-anchor="middle" x="0" y="539" transform="translate(164.5,0)" style="font-family: Helvetica; font-size: 18px; fill: rgb(42, 63, 95); fill-opacity: 1; white-space: pre; opacity: 1;">2</text></g><g class="xtick"><text text-anchor="middle" x="0" y="539" style="font-family: Helvetica; font-size: 18px; fill: rgb(42, 63, 95); fill-opacity: 1; white-space: pre; opacity: 1;" transform="translate(327.5,0)">3</text></g><g class="xtick"><text text-anchor="middle" x="0" y="539" style="font-family: Helvetica; font-size: 18px; fill: rgb(42, 63, 95); fill-opacity: 1; white-space: pre; opacity: 1;" transform="translate(490.5,0)">4</text></g></g><g class="yaxislayer-above"><g class="ytick"><text text-anchor="end" x="79" y="6.3" transform="translate(0,499)" style="font-family: Helvetica; font-size: 18px; fill: rgb(42, 63, 95); fill-opacity: 1; white-space: pre; opacity: 1;">4</text></g><g class="ytick"><text text-anchor="end" x="79" y="6.3" style="font-family: Helvetica; font-size: 18px; fill: rgb(42, 63, 95); fill-opacity: 1; white-space: pre; opacity: 1;" transform="translate(0,441.75)">4.5</text></g><g class="ytick"><text text-anchor="end" x="79" y="6.3" style="font-family: Helvetica; font-size: 18px; fill: rgb(42, 63, 95); fill-opacity: 1; white-space: pre; opacity: 1;" transform="translate(0,384.49)">5</text></g><g class="ytick"><text text-anchor="end" x="79" y="6.3" style="font-family: Helvetica; font-size: 18px; fill: rgb(42, 63, 95); fill-opacity: 1; white-space: pre; opacity: 1;" transform="translate(0,327.24)">5.5</text></g><g class="ytick"><text text-anchor="end" x="79" y="6.3" style="font-family: Helvetica; font-size: 18px; fill: rgb(42, 63, 95); fill-opacity: 1; white-space: pre; opacity: 1;" transform="translate(0,269.98)">6</text></g><g class="ytick"><text text-anchor="end" x="79" y="6.3" style="font-family: Helvetica; font-size: 18px; fill: rgb(42, 63, 95); fill-opacity: 1; white-space: pre; opacity: 1;" transform="translate(0,212.73000000000002)">6.5</text></g><g class="ytick"><text text-anchor="end" x="79" y="6.3" style="font-family: Helvetica; font-size: 18px; fill: rgb(42, 63, 95); fill-opacity: 1; white-space: pre; opacity: 1;" transform="translate(0,155.47)">7</text></g></g><g class="overaxes-above"/></g></g><g class="polarlayer"/><g class="smithlayer"/><g class="ternarylayer"/><g class="geolayer"/><g class="funnelarealayer"/><g class="pielayer"/><g class="iciclelayer"/><g class="treemaplayer"/><g class="sunburstlayer"/><g class="glimages"/><defs id="topdefs-97a2cf"><g class="clips"/><clipPath id="legend97a2cf"><rect width="206" height="118" x="0" y="0"/></clipPath></defs><g class="layer-above"><g class="imagelayer"/><g class="shapelayer"/></g><g class="infolayer"><g class="legend" pointer-events="all" transform="translate(581.84,100)"><rect class="bg" shape-rendering="crispEdges" width="206" height="118" x="0" y="0" style="stroke: rgb(68, 68, 68); stroke-opacity: 1; fill: rgb(255, 255, 255); fill-opacity: 1; stroke-width: 0px;"/><g class="scrollbox" transform="" clip-path="url(#legend97a2cf)"><text class="legendtitletext" text-anchor="start" x="2" y="28.6" style="font-family: Helvetica; font-size: 22px; fill: rgb(42, 63, 95); fill-opacity: 1; white-space: pre;">category</text><g class="groups" transform=""><g class="traces" transform="translate(0,46.800000000000004)" style="opacity: 1;"><text class="legendtext" text-anchor="start" x="40" y="7.0200000000000005" style="font-family: Helvetica; font-size: 18px; fill: rgb(42, 63, 95); fill-opacity: 1; white-space: pre;">Core</text><g class="layers" style="opacity: 1;"><g class="legendfill"/><g class="legendlines"/><g class="legendsymbols"><g class="legendpoints"><path class="legendbox" d="M6,6H-6V-6H6Z" transform="translate(20,0)" style="stroke-width: 2px; fill: rgb(253, 138, 138); fill-opacity: 0.5; stroke: rgb(253, 138, 138); stroke-opacity: 1;"/></g></g></g><rect class="legendtoggle" x="0" y="-13.200000000000001" width="200.0625" height="26.400000000000002" style="fill: rgb(0, 0, 0); fill-opacity: 0;"/></g></g><g class="groups" transform=""><g class="traces" transform="translate(0,73.2)" style="opacity: 1;"><text class="legendtext" text-anchor="start" x="40" y="7.0200000000000005" style="font-family: Helvetica; font-size: 18px; fill: rgb(42, 63, 95); fill-opacity: 1; white-space: pre;">Community</text><g class="layers" style="opacity: 1;"><g class="legendfill"/><g class="legendlines"/><g class="legendsymbols"><g class="legendpoints"><path class="legendbox" d="M6,6H-6V-6H6Z" transform="translate(20,0)" style="stroke-width: 2px; fill: rgb(168, 209, 209); fill-opacity: 0.5; stroke: rgb(168, 209, 209); stroke-opacity: 1;"/></g></g></g><rect class="legendtoggle" x="0" y="-13.200000000000001" width="200.0625" height="26.400000000000002" style="fill: rgb(0, 0, 0); fill-opacity: 0;"/></g></g><g class="groups" transform=""><g class="traces" transform="translate(0,99.60000000000001)" style="opacity: 1;"><text class="legendtext" text-anchor="start" x="40" y="7.0200000000000005" style="font-family: Helvetica; font-size: 18px; fill: rgb(42, 63, 95); fill-opacity: 1; white-space: pre;">Prior SARS inhibitor</text><g class="layers" style="opacity: 1;"><g class="legendfill"/><g class="legendlines"/><g class="legendsymbols"><g class="legendpoints"><path class="legendbox" d="M6,6H-6V-6H6Z" transform="translate(20,0)" style="stroke-width: 2px; fill: rgb(241, 247, 181); fill-opacity: 0.5; stroke: rgb(241, 247, 181); stroke-opacity: 1;"/></g></g></g><rect class="legendtoggle" x="0" y="-13.200000000000001" width="200.0625" height="26.400000000000002" style="fill: rgb(0, 0, 0); fill-opacity: 0;"/></g></g></g><rect class="scrollbar" rx="20" ry="3" width="0" height="0" x="0" y="0" style="fill: rgb(128, 139, 164); fill-opacity: 1;"/></g><g class="g-gtitle"><text class="gtitle" x="40" y="50" text-anchor="start" dy="0em" style="font-family: Helvetica; font-size: 25px; fill: rgb(42, 63, 95); opacity: 1; font-weight: normal; white-space: pre;">Distribution of potency of compounds in 2020</text></g><g class="g-xtitle"><text class="xtitle" x="326" y="572.9" text-anchor="middle" style="font-family: Helvetica; font-size: 22px; fill: rgb(42, 63, 95); opacity: 1; font-weight: normal; white-space: pre;">quarter (shipment)</text></g><g class="g-ytitle"><text class="ytitle" transform="rotate(-90,24.06875,310)" x="24.06875" y="310" text-anchor="middle" style="font-family: Helvetica; font-size: 22px; fill: rgb(42, 63, 95); opacity: 1; font-weight: normal; white-space: pre;">pIC50</text></g></g></svg>