<svg class="main-svg" xmlns="http://www.w3.org/2000/svg" xmlns:xlink="http://www.w3.org/1999/xlink" width="700" height="500" style="" viewBox="0 0 700 500"><rect x="0" y="0" width="700" height="500" style="fill: rgb(255, 255, 255); fill-opacity: 1;"/><defs id="defs-76ee9f"><g class="clips"><clipPath id="clip76ee9fxyplot" class="plotclip"><rect width="426" height="320"/></clipPath><clipPath class="axesclip" id="clip76ee9fx"><rect x="80" y="0" width="426" height="500"/></clipPath><clipPath class="axesclip" id="clip76ee9fy"><rect x="0" y="100" width="700" height="320"/></clipPath><clipPath class="axesclip" id="clip76ee9fxy"><rect x="80" y="100" width="426" height="320"/></clipPath></g><g class="gradients"/><g class="patterns"/></defs><g class="bglayer"/><g class="layer-below"><g class="imagelayer"/><g class="shapelayer"/></g><g class="cartesianlayer"><g class="subplot xy"><g class="layer-subplot"><g class="shapelayer"/><g class="imagelayer"/></g><g class="minor-gridlayer"><g class="x"/><g class="y"/></g><g class="gridlayer"><g class="x"/><g class="y"><path class="ygrid crisp" transform="translate(0,404)" d="M80,0h426" style="stroke: rgb(235, 240, 248); stroke-opacity: 1; stroke-width: 1px;"/><path class="ygrid crisp" transform="translate(0,342.24)" d="M80,0h426" style="stroke: rgb(235, 240, 248); stroke-opacity: 1; stroke-width: 1px;"/><path class="ygrid crisp" transform="translate(0,280.48)" d="M80,0h426" style="stroke: rgb(235, 240, 248); stroke-opacity: 1; stroke-width: 1px;"/><path class="ygrid crisp" transform="translate(0,218.72)" d="M80,0h426" style="stroke: rgb(235, 240, 248); stroke-opacity: 1; stroke-width: 1px;"/><path class="ygrid crisp" transform="translate(0,156.96)" d="M80,0h426" style="stroke: rgb(235, 240, 248); stroke-opacity: 1; stroke-width: 1px;"/></g></g><g class="zerolinelayer"/><path class="xlines-below"/><path class="ylines-below"/><g class="overlines-below"/><g class="xaxislayer-below"/><g class="yaxislayer-below"/><g class="overaxes-below"/><g class="plot" transform="translate(80,100)" clip-path="url(#clip76ee9fxyplot)"><g class="violinlayer mlayer"><g class="trace violins" style="opacity: 1;"><path class="violin" d="M71.38,304Q71.26,300.76 71.04,299.15C70.82,297.53 70.44,295.91 70.05,294.3C69.65,292.68 69.13,291.07 68.67,289.45C68.2,287.83 67.7,286.22 67.26,284.6C66.83,282.99 66.4,281.37 66.06,279.75C65.73,278.14 65.45,276.53 65.24,274.91C65.03,273.3 64.89,271.68 64.79,270.06C64.69,268.44 64.67,266.83 64.66,265.21C64.65,263.59 64.69,261.98 64.73,260.36C64.77,258.74 64.84,257.13 64.89,255.51C64.94,253.89 65.01,252.28 65.05,250.66C65.09,249.04 65.12,247.43 65.13,245.81C65.14,244.19 65.13,242.58 65.12,240.96C65.11,239.34 65.07,237.73 65.05,236.11C65.02,234.49 64.99,232.88 64.97,231.26C64.95,229.64 64.93,228.03 64.93,226.41C64.93,224.8 64.94,223.18 64.96,221.57C64.98,219.95 65.01,218.34 65.04,216.72C65.07,215.1 65.11,213.49 65.12,211.87Q65.13,210.25 65.13,207.02L62.51,207.02Q62.51,210.25 62.52,211.87C62.53,213.49 62.57,215.1 62.59,216.72C62.62,218.34 62.65,219.95 62.67,221.57C62.69,223.18 62.7,224.8 62.7,226.41C62.7,228.03 62.69,229.64 62.67,231.26C62.65,232.88 62.62,234.49 62.59,236.11C62.56,237.73 62.52,239.34 62.51,240.96C62.5,242.58 62.5,244.19 62.51,245.81C62.52,247.43 62.55,249.04 62.59,250.66C62.63,252.28 62.7,253.89 62.75,255.51C62.8,257.13 62.87,258.74 62.91,260.36C62.95,261.98 62.99,263.59 62.98,265.21C62.97,266.83 62.94,268.44 62.84,270.06C62.74,271.68 62.61,273.3 62.4,274.91C62.19,276.53 61.9,278.14 61.57,279.75C61.23,281.37 60.81,282.99 60.38,284.6C59.94,286.22 59.43,287.83 58.96,289.45C58.5,291.07 57.98,292.68 57.59,294.3C57.2,295.91 56.82,297.53 56.6,299.15Q56.38,300.76 56.26,304Z" style="vector-effect: non-scaling-stroke; stroke-width: 2px; stroke: rgb(253, 138, 138); stroke-opacity: 1; fill: rgb(253, 138, 138); fill-opacity: 0.5;"/><path class="violin" d="M190.3,239.24L184.12,239.24Z" style="vector-effect: non-scaling-stroke; stroke-width: 2px; stroke: rgb(253, 138, 138); stroke-opacity: 1; fill: rgb(253, 138, 138); fill-opacity: 0.5;"/><path class="violin" d="M313.11,303.46Q313.41,297.56 313.52,294.61C313.63,291.66 313.72,288.71 313.78,285.76C313.84,282.81 313.87,279.86 313.87,276.91C313.87,273.96 313.84,271 313.8,268.05C313.76,265.1 313.69,262.15 313.61,259.2C313.53,256.25 313.43,253.3 313.33,250.35C313.22,247.4 313.1,244.45 312.98,241.5C312.86,238.55 312.73,235.6 312.6,232.65C312.47,229.7 312.34,226.75 312.21,223.8C312.08,220.85 311.95,217.89 311.82,214.94C311.7,211.99 311.57,209.04 311.46,206.09C311.35,203.14 311.26,200.19 311.17,197.24C311.09,194.29 311.01,191.34 310.95,188.39C310.89,185.44 310.84,182.49 310.8,179.54C310.76,176.59 310.72,173.63 310.7,170.68C310.68,167.73 310.67,164.78 310.66,161.83C310.65,158.88 310.64,155.93 310.64,152.98C310.64,150.03 310.64,147.08 310.65,144.13C310.66,141.18 310.67,138.23 310.68,135.28C310.7,132.33 310.72,129.38 310.74,126.43C310.76,123.48 310.78,120.52 310.81,117.57C310.84,114.62 310.87,111.67 310.9,108.72C310.93,105.77 310.96,102.82 310.99,99.87C311.02,96.92 311.05,93.97 311.07,91.02C311.09,88.07 311.1,85.12 311.11,82.17C311.12,79.22 311.12,76.27 311.12,73.32C311.12,70.37 311.11,67.41 311.11,64.46C311.11,61.51 311.1,58.56 311.1,55.61C311.1,52.66 311.1,49.71 311.1,46.76C311.1,43.81 311.11,40.86 311.11,37.91C311.11,34.96 311.12,32.01 311.12,29.06Q311.12,26.11 311.11,20.21L310.11,20.21Q310.1,26.11 310.1,29.06C310.1,32.01 310.11,34.96 310.11,37.91C310.11,40.86 310.12,43.81 310.12,46.76C310.12,49.71 310.12,52.66 310.12,55.61C310.12,58.56 310.11,61.51 310.11,64.46C310.11,67.41 310.1,70.37 310.1,73.32C310.1,76.27 310.1,79.22 310.11,82.17C310.12,85.12 310.13,88.07 310.15,91.02C310.17,93.97 310.2,96.92 310.23,99.87C310.26,102.82 310.29,105.77 310.32,108.72C310.35,111.67 310.38,114.62 310.41,117.57C310.44,120.52 310.46,123.48 310.48,126.43C310.5,129.38 310.52,132.33 310.54,135.28C310.55,138.23 310.56,141.18 310.57,144.13C310.58,147.08 310.58,150.03 310.58,152.98C310.58,155.93 310.57,158.88 310.56,161.83C310.55,164.78 310.54,167.73 310.52,170.68C310.5,173.63 310.47,176.59 310.43,179.54C310.39,182.49 310.33,185.44 310.27,188.39C310.21,191.34 310.13,194.29 310.05,197.24C309.96,200.19 309.87,203.14 309.76,206.09C309.65,209.04 309.52,211.99 309.4,214.94C309.27,217.89 309.14,220.85 309.01,223.8C308.88,226.75 308.75,229.7 308.62,232.65C308.49,235.6 308.36,238.55 308.24,241.5C308.12,244.45 308,247.4 307.89,250.35C307.79,253.3 307.69,256.25 307.61,259.2C307.53,262.15 307.46,265.1 307.42,268.05C307.38,271 307.35,273.96 307.35,276.91C307.35,279.86 307.38,282.81 307.44,285.76C307.5,288.71 307.6,291.66 307.71,294.61Q307.82,297.56 308.11,303.46Z" style="vector-effect: non-scaling-stroke; stroke-width: 2px; stroke: rgb(253, 138, 138); stroke-opacity: 1; fill: rgb(253, 138, 138); fill-opacity: 0.5;"/><path class="box" d="M61.93,302.73H65.71M61.93,303.73H65.71V274.56H61.93ZM63.82,303.73V304M63.82,274.56V245.65" style="vector-effect: non-scaling-stroke; stroke-width: 2px; stroke: rgb(253, 138, 138); stroke-opacity: 1; fill: rgb(253, 138, 138); fill-opacity: 0.5;"/><path class="box" d="M185.32,239.24H189.1M185.32,239.24H189.1V239.24H185.32ZM187.21,239.24V239.24M187.21,239.24V239.24" style="vector-effect: non-scaling-stroke; stroke-width: 2px; stroke: rgb(253, 138, 138); stroke-opacity: 1; fill: rgb(253, 138, 138); fill-opacity: 0.5;"/><path class="box" d="M308.72,270.94H312.5M308.72,288.58H312.5V231.29H308.72ZM310.61,288.58V303.46M310.61,231.29V229.42" style="vector-effect: non-scaling-stroke; stroke-width: 2px; stroke: rgb(253, 138, 138); stroke-opacity: 1; fill: rgb(253, 138, 138); fill-opacity: 0.5;"/><g class="points"><path class="point" transform="translate(53.66,304)" d="M3,0A3,3 0 1,1 0,-3A3,3 0 0,1 3,0Z" style="opacity: 1; stroke-width: 0px; fill: rgb(253, 138, 138); fill-opacity: 1;"/><path class="point" transform="translate(52.23,303.73)" d="M3,0A3,3 0 1,1 0,-3A3,3 0 0,1 3,0Z" style="opacity: 1; stroke-width: 0px; fill: rgb(253, 138, 138); fill-opacity: 1;"/><path class="point" transform="translate(52.74,303.73)" d="M3,0A3,3 0 1,1 0,-3A3,3 0 0,1 3,0Z" style="opacity: 1; stroke-width: 0px; fill: rgb(253, 138, 138); fill-opacity: 1;"/><path class="point" transform="translate(52.2,303.73)" d="M3,0A3,3 0 1,1 0,-3A3,3 0 0,1 3,0Z" style="opacity: 1; stroke-width: 0px; fill: rgb(253, 138, 138); fill-opacity: 1;"/><path class="point" transform="translate(52.4,303.73)" d="M3,0A3,3 0 1,1 0,-3A3,3 0 0,1 3,0Z" style="opacity: 1; stroke-width: 0px; fill: rgb(253, 138, 138); fill-opacity: 1;"/><path class="point" transform="translate(52.65,303.46)" d="M3,0A3,3 0 1,1 0,-3A3,3 0 0,1 3,0Z" style="opacity: 1; stroke-width: 0px; fill: rgb(253, 138, 138); fill-opacity: 1;"/><path class="point" transform="translate(52.47,245.65)" d="M3,0A3,3 0 1,1 0,-3A3,3 0 0,1 3,0Z" style="opacity: 1; stroke-width: 0px; fill: rgb(253, 138, 138); fill-opacity: 1;"/><path class="point" transform="translate(52.56,207.02)" d="M3,0A3,3 0 1,1 0,-3A3,3 0 0,1 3,0Z" style="opacity: 1; stroke-width: 0px; fill: rgb(253, 138, 138); fill-opacity: 1;"/></g><g class="points"><path class="point" transform="translate(175.15,239.24)" d="M3,0A3,3 0 1,1 0,-3A3,3 0 0,1 3,0Z" style="opacity: 1; stroke-width: 0px; fill: rgb(253, 138, 138); fill-opacity: 1;"/></g><g class="points"><path class="point" transform="translate(297.74,303.46)" d="M3,0A3,3 0 1,1 0,-3A3,3 0 0,1 3,0Z" style="opacity: 1; stroke-width: 0px; fill: rgb(253, 138, 138); fill-opacity: 1;"/><path class="point" transform="translate(299.88,301.7)" d="M3,0A3,3 0 1,1 0,-3A3,3 0 0,1 3,0Z" style="opacity: 1; stroke-width: 0px; fill: rgb(253, 138, 138); fill-opacity: 1;"/><path class="point" transform="translate(298.66,297.45)" d="M3,0A3,3 0 1,1 0,-3A3,3 0 0,1 3,0Z" style="opacity: 1; stroke-width: 0px; fill: rgb(253, 138, 138); fill-opacity: 1;"/><path class="point" transform="translate(300.41,279.72)" d="M3,0A3,3 0 1,1 0,-3A3,3 0 0,1 3,0Z" style="opacity: 1; stroke-width: 0px; fill: rgb(253, 138, 138); fill-opacity: 1;"/><path class="point" transform="translate(297.47,274.41)" d="M3,0A3,3 0 1,1 0,-3A3,3 0 0,1 3,0Z" style="opacity: 1; stroke-width: 0px; fill: rgb(253, 138, 138); fill-opacity: 1;"/><path class="point" transform="translate(298.62,271.24)" d="M3,0A3,3 0 1,1 0,-3A3,3 0 0,1 3,0Z" style="opacity: 1; stroke-width: 0px; fill: rgb(253, 138, 138); fill-opacity: 1;"/><path class="point" transform="translate(300.16,270.65)" d="M3,0A3,3 0 1,1 0,-3A3,3 0 0,1 3,0Z" style="opacity: 1; stroke-width: 0px; fill: rgb(253, 138, 138); fill-opacity: 1;"/><path class="point" transform="translate(299.03,246.6)" d="M3,0A3,3 0 1,1 0,-3A3,3 0 0,1 3,0Z" style="opacity: 1; stroke-width: 0px; fill: rgb(253, 138, 138); fill-opacity: 1;"/><path class="point" transform="translate(298.47,233.16)" d="M3,0A3,3 0 1,1 0,-3A3,3 0 0,1 3,0Z" style="opacity: 1; stroke-width: 0px; fill: rgb(253, 138, 138); fill-opacity: 1;"/><path class="point" transform="translate(298.98,229.42)" d="M3,0A3,3 0 1,1 0,-3A3,3 0 0,1 3,0Z" style="opacity: 1; stroke-width: 0px; fill: rgb(253, 138, 138); fill-opacity: 1;"/><path class="point" transform="translate(299.26,82.17)" d="M3,0A3,3 0 1,1 0,-3A3,3 0 0,1 3,0Z" style="opacity: 1; stroke-width: 0px; fill: rgb(253, 138, 138); fill-opacity: 1;"/><path class="point" transform="translate(299.61,20.21)" d="M3,0A3,3 0 1,1 0,-3A3,3 0 0,1 3,0Z" style="opacity: 1; stroke-width: 0px; fill: rgb(253, 138, 138); fill-opacity: 1;"/></g></g><g class="trace violins" style="opacity: 1;"><path class="violin" d="M87.51,303.73Q87.65,297.29 87.7,294.07C87.75,290.85 87.77,287.63 87.79,284.41C87.81,281.19 87.8,277.97 87.81,274.75C87.81,271.53 87.82,268.31 87.82,265.09C87.83,261.87 87.83,258.65 87.84,255.43C87.85,252.21 87.86,248.99 87.87,245.77C87.88,242.55 87.89,239.33 87.89,236.11C87.89,232.89 87.88,229.67 87.85,226.45C87.82,223.23 87.78,220.01 87.72,216.79C87.66,213.57 87.59,210.35 87.5,207.13C87.42,203.91 87.31,200.7 87.21,197.48C87.11,194.26 87,191.04 86.9,187.82C86.8,184.6 86.7,181.38 86.61,178.16C86.52,174.94 86.44,171.72 86.36,168.5Q86.28,165.28 86.15,158.84L84.67,158.84Q84.54,165.28 84.47,168.5C84.39,171.72 84.31,174.94 84.22,178.16C84.13,181.38 84.03,184.6 83.93,187.82C83.83,191.04 83.72,194.26 83.62,197.48C83.52,200.7 83.42,203.91 83.33,207.13C83.24,210.35 83.16,213.57 83.1,216.79C83.04,220.01 83,223.23 82.97,226.45C82.94,229.67 82.93,232.89 82.93,236.11C82.93,239.33 82.94,242.55 82.95,245.77C82.96,248.99 82.97,252.21 82.98,255.43C82.99,258.65 82.99,261.87 83,265.09C83,268.31 83,271.53 83.01,274.75C83.02,277.97 83.02,281.19 83.04,284.41C83.06,287.63 83.08,290.85 83.13,294.07Q83.18,297.29 83.32,303.73Z" style="vector-effect: non-scaling-stroke; stroke-width: 2px; stroke: rgb(168, 209, 209); stroke-opacity: 1; fill: rgb(168, 209, 209); fill-opacity: 0.5;"/><path class="violin" d="M210.74,303.46Q211.02,298.88 211.15,296.59C211.28,294.3 211.42,292.01 211.54,289.72C211.66,287.43 211.78,285.14 211.88,282.85C211.98,280.56 212.08,278.27 212.16,275.98C212.24,273.69 212.31,271.4 212.38,269.11C212.45,266.82 212.51,264.53 212.57,262.24C212.63,259.95 212.68,257.66 212.73,255.37C212.78,253.08 212.83,250.79 212.87,248.5C212.9,246.21 212.94,243.92 212.94,241.63C212.94,239.34 212.93,237.05 212.87,234.76Q212.81,232.47 212.57,227.89L205.04,227.89Q204.81,232.47 204.75,234.76C204.69,237.05 204.67,239.34 204.67,241.63C204.67,243.92 204.71,246.21 204.75,248.5C204.79,250.79 204.84,253.08 204.89,255.37C204.94,257.66 204.99,259.95 205.05,262.24C205.11,264.53 205.16,266.82 205.23,269.11C205.3,271.4 205.37,273.69 205.45,275.98C205.53,278.27 205.63,280.56 205.73,282.85C205.84,285.14 205.96,287.43 206.08,289.72C206.2,292.01 206.34,294.3 206.47,296.59Q206.6,298.88 206.88,303.46Z" style="vector-effect: non-scaling-stroke; stroke-width: 2px; stroke: rgb(168, 209, 209); stroke-opacity: 1; fill: rgb(168, 209, 209); fill-opacity: 0.5;"/><path class="violin" d="M333.39,303.73Q333.51,294.84 333.55,290.39C333.59,285.94 333.61,281.5 333.63,277.05C333.65,272.6 333.65,268.16 333.66,263.71C333.67,259.26 333.66,254.82 333.67,250.37C333.68,245.92 333.68,241.48 333.7,237.03C333.72,232.58 333.74,228.14 333.77,223.69C333.8,219.24 333.85,214.79 333.89,210.34C333.93,205.89 333.99,201.45 334.03,197C334.07,192.55 334.11,188.11 334.12,183.66C334.13,179.21 334.13,174.77 334.12,170.32C334.11,165.87 334.07,161.43 334.03,156.98C333.98,152.53 333.92,148.09 333.85,143.64C333.78,139.19 333.69,134.75 333.6,130.3Q333.51,125.85 333.33,116.96L331.08,116.96Q330.89,125.85 330.8,130.3C330.71,134.75 330.63,139.19 330.56,143.64C330.49,148.09 330.43,152.53 330.38,156.98C330.33,161.43 330.29,165.87 330.28,170.32C330.27,174.77 330.27,179.21 330.29,183.66C330.31,188.11 330.34,192.55 330.38,197C330.42,201.45 330.47,205.89 330.51,210.34C330.55,214.79 330.61,219.24 330.64,223.69C330.67,228.14 330.69,232.58 330.71,237.03C330.73,241.48 330.73,245.92 330.74,250.37C330.75,254.82 330.74,259.26 330.75,263.71C330.76,268.16 330.76,272.6 330.78,277.05C330.8,281.5 330.82,285.94 330.86,290.39Q330.9,294.84 331.02,303.73Z" style="vector-effect: non-scaling-stroke; stroke-width: 2px; stroke: rgb(168, 209, 209); stroke-opacity: 1; fill: rgb(168, 209, 209); fill-opacity: 0.5;"/><path class="box" d="M83.52,246.47H87.3M83.52,297.24H87.3V214.57H83.52ZM85.41,297.24V303.73M85.41,214.57V158.84" style="vector-effect: non-scaling-stroke; stroke-width: 2px; stroke: rgb(168, 209, 209); stroke-opacity: 1; fill: rgb(168, 209, 209); fill-opacity: 0.5;"/><path class="box" d="M206.92,253.63H210.7M206.92,276.33H210.7V229.61H206.92ZM208.81,276.33V303.46M208.81,229.61V227.89" style="vector-effect: non-scaling-stroke; stroke-width: 2px; stroke: rgb(168, 209, 209); stroke-opacity: 1; fill: rgb(168, 209, 209); fill-opacity: 0.5;"/><path class="box" d="M330.32,199.29H334.09M330.32,267.23H334.09V169.21H330.32ZM332.2,267.23V303.73M332.2,169.21V116.96" style="vector-effect: non-scaling-stroke; stroke-width: 2px; stroke: rgb(168, 209, 209); stroke-opacity: 1; fill: rgb(168, 209, 209); fill-opacity: 0.5;"/><g class="points"><path class="point" transform="translate(75.18,303.73)" d="M3,0A3,3 0 1,1 0,-3A3,3 0 0,1 3,0Z" style="opacity: 1; stroke-width: 0px; fill: rgb(168, 209, 209); fill-opacity: 1;"/><path class="point" transform="translate(72.65,303.73)" d="M3,0A3,3 0 1,1 0,-3A3,3 0 0,1 3,0Z" style="opacity: 1; stroke-width: 0px; fill: rgb(168, 209, 209); fill-opacity: 1;"/><path class="point" transform="translate(75.73,303.46)" d="M3,0A3,3 0 1,1 0,-3A3,3 0 0,1 3,0Z" style="opacity: 1; stroke-width: 0px; fill: rgb(168, 209, 209); fill-opacity: 1;"/><path class="point" transform="translate(72.24,291.01)" d="M3,0A3,3 0 1,1 0,-3A3,3 0 0,1 3,0Z" style="opacity: 1; stroke-width: 0px; fill: rgb(168, 209, 209); fill-opacity: 1;"/><path class="point" transform="translate(73.54,276.51)" d="M3,0A3,3 0 1,1 0,-3A3,3 0 0,1 3,0Z" style="opacity: 1; stroke-width: 0px; fill: rgb(168, 209, 209); fill-opacity: 1;"/><path class="point" transform="translate(75.27,248.75)" d="M3,0A3,3 0 1,1 0,-3A3,3 0 0,1 3,0Z" style="opacity: 1; stroke-width: 0px; fill: rgb(168, 209, 209); fill-opacity: 1;"/><path class="point" transform="translate(74.01,244.2)" d="M3,0A3,3 0 1,1 0,-3A3,3 0 0,1 3,0Z" style="opacity: 1; stroke-width: 0px; fill: rgb(168, 209, 209); fill-opacity: 1;"/><path class="point" transform="translate(74.58,227.44)" d="M3,0A3,3 0 1,1 0,-3A3,3 0 0,1 3,0Z" style="opacity: 1; stroke-width: 0px; fill: rgb(168, 209, 209); fill-opacity: 1;"/><path class="point" transform="translate(73.52,219.25)" d="M3,0A3,3 0 1,1 0,-3A3,3 0 0,1 3,0Z" style="opacity: 1; stroke-width: 0px; fill: rgb(168, 209, 209); fill-opacity: 1;"/><path class="point" transform="translate(72.82,209.88)" d="M3,0A3,3 0 1,1 0,-3A3,3 0 0,1 3,0Z" style="opacity: 1; stroke-width: 0px; fill: rgb(168, 209, 209); fill-opacity: 1;"/><path class="point" transform="translate(74.56,207.34)" d="M3,0A3,3 0 1,1 0,-3A3,3 0 0,1 3,0Z" style="opacity: 1; stroke-width: 0px; fill: rgb(168, 209, 209); fill-opacity: 1;"/><path class="point" transform="translate(73.51,158.84)" d="M3,0A3,3 0 1,1 0,-3A3,3 0 0,1 3,0Z" style="opacity: 1; stroke-width: 0px; fill: rgb(168, 209, 209); fill-opacity: 1;"/></g><g class="points"><path class="point" transform="translate(198.65,303.46)" d="M3,0A3,3 0 1,1 0,-3A3,3 0 0,1 3,0Z" style="opacity: 1; stroke-width: 0px; fill: rgb(168, 209, 209); fill-opacity: 1;"/><path class="point" transform="translate(195.51,277.83)" d="M3,0A3,3 0 1,1 0,-3A3,3 0 0,1 3,0Z" style="opacity: 1; stroke-width: 0px; fill: rgb(168, 209, 209); fill-opacity: 1;"/><path class="point" transform="translate(196.3,271.83)" d="M3,0A3,3 0 1,1 0,-3A3,3 0 0,1 3,0Z" style="opacity: 1; stroke-width: 0px; fill: rgb(168, 209, 209); fill-opacity: 1;"/><path class="point" transform="translate(199.26,253.63)" d="M3,0A3,3 0 1,1 0,-3A3,3 0 0,1 3,0Z" style="opacity: 1; stroke-width: 0px; fill: rgb(168, 209, 209); fill-opacity: 1;"/><path class="point" transform="translate(196.96,232.15)" d="M3,0A3,3 0 1,1 0,-3A3,3 0 0,1 3,0Z" style="opacity: 1; stroke-width: 0px; fill: rgb(168, 209, 209); fill-opacity: 1;"/><path class="point" transform="translate(195.74,228.77)" d="M3,0A3,3 0 1,1 0,-3A3,3 0 0,1 3,0Z" style="opacity: 1; stroke-width: 0px; fill: rgb(168, 209, 209); fill-opacity: 1;"/><path class="point" transform="translate(196.72,227.89)" d="M3,0A3,3 0 1,1 0,-3A3,3 0 0,1 3,0Z" style="opacity: 1; stroke-width: 0px; fill: rgb(168, 209, 209); fill-opacity: 1;"/></g><g class="points"><path class="point" transform="translate(320.83,303.73)" d="M3,0A3,3 0 1,1 0,-3A3,3 0 0,1 3,0Z" style="opacity: 1; stroke-width: 0px; fill: rgb(168, 209, 209); fill-opacity: 1;"/><path class="point" transform="translate(321.69,302.31)" d="M3,0A3,3 0 1,1 0,-3A3,3 0 0,1 3,0Z" style="opacity: 1; stroke-width: 0px; fill: rgb(168, 209, 209); fill-opacity: 1;"/><path class="point" transform="translate(321.06,280.48)" d="M3,0A3,3 0 1,1 0,-3A3,3 0 0,1 3,0Z" style="opacity: 1; stroke-width: 0px; fill: rgb(168, 209, 209); fill-opacity: 1;"/><path class="point" transform="translate(320.34,262.81)" d="M3,0A3,3 0 1,1 0,-3A3,3 0 0,1 3,0Z" style="opacity: 1; stroke-width: 0px; fill: rgb(168, 209, 209); fill-opacity: 1;"/><path class="point" transform="translate(319.21,261.52)" d="M3,0A3,3 0 1,1 0,-3A3,3 0 0,1 3,0Z" style="opacity: 1; stroke-width: 0px; fill: rgb(168, 209, 209); fill-opacity: 1;"/><path class="point" transform="translate(320.86,201.15)" d="M3,0A3,3 0 1,1 0,-3A3,3 0 0,1 3,0Z" style="opacity: 1; stroke-width: 0px; fill: rgb(168, 209, 209); fill-opacity: 1;"/><path class="point" transform="translate(320.34,199.29)" d="M3,0A3,3 0 1,1 0,-3A3,3 0 0,1 3,0Z" style="opacity: 1; stroke-width: 0px; fill: rgb(168, 209, 209); fill-opacity: 1;"/><path class="point" transform="translate(321.74,173.38)" d="M3,0A3,3 0 1,1 0,-3A3,3 0 0,1 3,0Z" style="opacity: 1; stroke-width: 0px; fill: rgb(168, 209, 209); fill-opacity: 1;"/><path class="point" transform="translate(320.7,172.7)" d="M3,0A3,3 0 1,1 0,-3A3,3 0 0,1 3,0Z" style="opacity: 1; stroke-width: 0px; fill: rgb(168, 209, 209); fill-opacity: 1;"/><path class="point" transform="translate(319.7,170.48)" d="M3,0A3,3 0 1,1 0,-3A3,3 0 0,1 3,0Z" style="opacity: 1; stroke-width: 0px; fill: rgb(168, 209, 209); fill-opacity: 1;"/><path class="point" transform="translate(318.82,165.4)" d="M3,0A3,3 0 1,1 0,-3A3,3 0 0,1 3,0Z" style="opacity: 1; stroke-width: 0px; fill: rgb(168, 209, 209); fill-opacity: 1;"/><path class="point" transform="translate(322.03,126.12)" d="M3,0A3,3 0 1,1 0,-3A3,3 0 0,1 3,0Z" style="opacity: 1; stroke-width: 0px; fill: rgb(168, 209, 209); fill-opacity: 1;"/><path class="point" transform="translate(318.93,116.96)" d="M3,0A3,3 0 1,1 0,-3A3,3 0 0,1 3,0Z" style="opacity: 1; stroke-width: 0px; fill: rgb(168, 209, 209); fill-opacity: 1;"/></g></g><g class="trace violins" style="opacity: 1;"><path class="violin" d="M111.68,245.33Q111.99,240.97 112.09,238.79C112.19,236.61 112.27,234.42 112.3,232.24C112.33,230.06 112.33,227.88 112.3,225.7C112.27,223.52 112.19,221.33 112.09,219.15Q111.99,216.97 111.68,212.6L102.34,212.6Q102.03,216.97 101.92,219.15C101.82,221.33 101.74,223.52 101.71,225.7C101.68,227.88 101.68,230.06 101.71,232.24C101.74,234.42 101.82,236.61 101.92,238.79Q102.03,240.97 102.34,245.33Z" style="vector-effect: non-scaling-stroke; stroke-width: 2px; stroke: rgb(254, 197, 197); stroke-opacity: 1; fill: rgb(254, 197, 197); fill-opacity: 0.5;"/><path class="violin" d="M231.92,176.18Q232.1,170.91 232.19,168.27C232.29,165.63 232.39,162.99 232.49,160.35C232.59,157.71 232.7,155.08 232.81,152.44C232.92,149.8 233.05,147.17 233.16,144.53C233.27,141.89 233.39,139.25 233.49,136.61C233.59,133.97 233.69,131.34 233.76,128.7C233.83,126.06 233.88,123.42 233.9,120.78C233.92,118.14 233.92,115.51 233.9,112.87C233.88,110.23 233.83,107.59 233.77,104.95C233.71,102.31 233.63,99.68 233.54,97.04C233.45,94.4 233.35,91.77 233.24,89.13C233.13,86.49 233.01,83.85 232.9,81.21C232.79,78.57 232.68,75.94 232.56,73.3Q232.44,70.66 232.2,65.38L228.6,65.38Q228.37,70.66 228.25,73.3C228.13,75.94 228.01,78.57 227.9,81.21C227.79,83.85 227.68,86.49 227.57,89.13C227.47,91.77 227.36,94.4 227.27,97.04C227.18,99.68 227.1,102.31 227.04,104.95C226.98,107.59 226.92,110.23 226.9,112.87C226.88,115.51 226.89,118.14 226.91,120.78C226.93,123.42 226.98,126.06 227.05,128.7C227.12,131.34 227.21,133.97 227.31,136.61C227.41,139.25 227.53,141.89 227.64,144.53C227.75,147.17 227.88,149.8 227.99,152.44C228.1,155.08 228.22,157.71 228.32,160.35C228.42,162.99 228.51,165.63 228.61,168.27Q228.7,170.91 228.89,176.18Z" style="vector-effect: non-scaling-stroke; stroke-width: 2px; stroke: rgb(254, 197, 197); stroke-opacity: 1; fill: rgb(254, 197, 197); fill-opacity: 0.5;"/><path class="violin" d="M355.03,270.45Q355.26,261.81 355.37,257.49C355.48,253.17 355.58,248.85 355.67,244.53C355.76,240.21 355.84,235.89 355.9,231.57C355.96,227.25 356,222.93 356.02,218.61C356.04,214.29 356.04,209.97 356.03,205.65C356.02,201.33 355.98,197.01 355.94,192.69C355.9,188.37 355.83,184.05 355.77,179.73C355.71,175.41 355.63,171.09 355.56,166.77C355.49,162.45 355.41,158.12 355.33,153.8C355.26,149.48 355.18,145.16 355.11,140.84C355.04,136.52 354.97,132.2 354.91,127.88C354.85,123.56 354.79,119.24 354.73,114.92C354.68,110.6 354.63,106.28 354.58,101.96C354.54,97.64 354.5,93.32 354.46,89C354.43,84.68 354.4,80.36 354.37,76.04C354.35,71.72 354.33,67.4 354.31,63.08C354.29,58.76 354.28,54.44 354.27,50.12C354.26,45.8 354.26,41.48 354.25,37.16Q354.24,32.84 354.21,24.2L353.38,24.2Q353.36,32.84 353.35,37.16C353.34,41.48 353.33,45.8 353.32,50.12C353.31,54.44 353.3,58.76 353.29,63.08C353.27,67.4 353.25,71.72 353.23,76.04C353.2,80.36 353.17,84.68 353.14,89C353.1,93.32 353.06,97.64 353.02,101.96C352.97,106.28 352.92,110.6 352.87,114.92C352.81,119.24 352.75,123.56 352.69,127.88C352.63,132.2 352.56,136.52 352.49,140.84C352.42,145.16 352.33,149.48 352.26,153.8C352.18,158.12 352.11,162.45 352.04,166.77C351.97,171.09 351.89,175.41 351.83,179.73C351.77,184.05 351.7,188.37 351.66,192.69C351.62,197.01 351.58,201.33 351.57,205.65C351.56,209.97 351.56,214.29 351.58,218.61C351.6,222.93 351.64,227.25 351.7,231.57C351.76,235.89 351.84,240.21 351.93,244.53C352.02,248.85 352.12,253.17 352.23,257.49Q352.34,261.81 352.57,270.45Z" style="vector-effect: non-scaling-stroke; stroke-width: 2px; stroke: rgb(254, 197, 197); stroke-opacity: 1; fill: rgb(254, 197, 197); fill-opacity: 0.5;"/><path class="box" d="M105.12,228.97H108.9M105.12,245.33H108.9V212.6H105.12ZM107.01,245.33V245.33M107.01,212.6V212.6" style="vector-effect: non-scaling-stroke; stroke-width: 2px; stroke: rgb(254, 197, 197); stroke-opacity: 1; fill: rgb(254, 197, 197); fill-opacity: 0.5;"/><path class="box" d="M228.51,118.23H232.29M228.51,138.94H232.29V94.14H228.51ZM230.4,138.94V176.18M230.4,94.14V65.38" style="vector-effect: non-scaling-stroke; stroke-width: 2px; stroke: rgb(254, 197, 197); stroke-opacity: 1; fill: rgb(254, 197, 197); fill-opacity: 0.5;"/><path class="box" d="M351.91,188.44H355.69M351.91,227.89H355.69V147.25H351.91ZM353.8,227.89V270.45M353.8,147.25V99.26" style="vector-effect: non-scaling-stroke; stroke-width: 2px; stroke: rgb(254, 197, 197); stroke-opacity: 1; fill: rgb(254, 197, 197); fill-opacity: 0.5;"/><g class="points"><path class="point" transform="translate(96.85,245.33)" d="M3,0A3,3 0 1,1 0,-3A3,3 0 0,1 3,0Z" style="opacity: 1; stroke-width: 0px; fill: rgb(254, 197, 197); fill-opacity: 1;"/><path class="point" transform="translate(94.22,212.6)" d="M3,0A3,3 0 1,1 0,-3A3,3 0 0,1 3,0Z" style="opacity: 1; stroke-width: 0px; fill: rgb(254, 197, 197); fill-opacity: 1;"/></g><g class="points"><path class="point" transform="translate(220.82,176.18)" d="M3,0A3,3 0 1,1 0,-3A3,3 0 0,1 3,0Z" style="opacity: 1; stroke-width: 0px; fill: rgb(254, 197, 197); fill-opacity: 1;"/><path class="point" transform="translate(217.15,138.94)" d="M3,0A3,3 0 1,1 0,-3A3,3 0 0,1 3,0Z" style="opacity: 1; stroke-width: 0px; fill: rgb(254, 197, 197); fill-opacity: 1;"/><path class="point" transform="translate(218.51,125.23)" d="M3,0A3,3 0 1,1 0,-3A3,3 0 0,1 3,0Z" style="opacity: 1; stroke-width: 0px; fill: rgb(254, 197, 197); fill-opacity: 1;"/><path class="point" transform="translate(220.26,111.23)" d="M3,0A3,3 0 1,1 0,-3A3,3 0 0,1 3,0Z" style="opacity: 1; stroke-width: 0px; fill: rgb(254, 197, 197); fill-opacity: 1;"/><path class="point" transform="translate(218.98,94.14)" d="M3,0A3,3 0 1,1 0,-3A3,3 0 0,1 3,0Z" style="opacity: 1; stroke-width: 0px; fill: rgb(254, 197, 197); fill-opacity: 1;"/><path class="point" transform="translate(219.72,65.38)" d="M3,0A3,3 0 1,1 0,-3A3,3 0 0,1 3,0Z" style="opacity: 1; stroke-width: 0px; fill: rgb(254, 197, 197); fill-opacity: 1;"/></g><g class="points"><path class="point" transform="translate(341.8,270.45)" d="M3,0A3,3 0 1,1 0,-3A3,3 0 0,1 3,0Z" style="opacity: 1; stroke-width: 0px; fill: rgb(254, 197, 197); fill-opacity: 1;"/><path class="point" transform="translate(340.8,239.06)" d="M3,0A3,3 0 1,1 0,-3A3,3 0 0,1 3,0Z" style="opacity: 1; stroke-width: 0px; fill: rgb(254, 197, 197); fill-opacity: 1;"/><path class="point" transform="translate(343.05,228.11)" d="M3,0A3,3 0 1,1 0,-3A3,3 0 0,1 3,0Z" style="opacity: 1; stroke-width: 0px; fill: rgb(254, 197, 197); fill-opacity: 1;"/><path class="point" transform="translate(341.77,227.22)" d="M3,0A3,3 0 1,1 0,-3A3,3 0 0,1 3,0Z" style="opacity: 1; stroke-width: 0px; fill: rgb(254, 197, 197); fill-opacity: 1;"/><path class="point" transform="translate(343.68,217.93)" d="M3,0A3,3 0 1,1 0,-3A3,3 0 0,1 3,0Z" style="opacity: 1; stroke-width: 0px; fill: rgb(254, 197, 197); fill-opacity: 1;"/><path class="point" transform="translate(340.81,188.44)" d="M3,0A3,3 0 1,1 0,-3A3,3 0 0,1 3,0Z" style="opacity: 1; stroke-width: 0px; fill: rgb(254, 197, 197); fill-opacity: 1;"/><path class="point" transform="translate(341.47,187.98)" d="M3,0A3,3 0 1,1 0,-3A3,3 0 0,1 3,0Z" style="opacity: 1; stroke-width: 0px; fill: rgb(254, 197, 197); fill-opacity: 1;"/><path class="point" transform="translate(343.93,166.67)" d="M3,0A3,3 0 1,1 0,-3A3,3 0 0,1 3,0Z" style="opacity: 1; stroke-width: 0px; fill: rgb(254, 197, 197); fill-opacity: 1;"/><path class="point" transform="translate(342.07,140.77)" d="M3,0A3,3 0 1,1 0,-3A3,3 0 0,1 3,0Z" style="opacity: 1; stroke-width: 0px; fill: rgb(254, 197, 197); fill-opacity: 1;"/><path class="point" transform="translate(341.19,99.26)" d="M3,0A3,3 0 1,1 0,-3A3,3 0 0,1 3,0Z" style="opacity: 1; stroke-width: 0px; fill: rgb(254, 197, 197); fill-opacity: 1;"/><path class="point" transform="translate(341.98,24.2)" d="M3,0A3,3 0 1,1 0,-3A3,3 0 0,1 3,0Z" style="opacity: 1; stroke-width: 0px; fill: rgb(254, 197, 197); fill-opacity: 1;"/></g></g><g class="trace violins" style="opacity: 1;"><path class="violin" d="M130.18,255.11Q130.26,243.51 130.27,237.71C130.28,231.91 130.27,226.12 130.26,220.32C130.25,214.52 130.21,208.72 130.18,202.92C130.15,197.12 130.11,191.32 130.08,185.52C130.05,179.72 130.02,173.92 129.99,168.12C129.97,162.32 129.95,156.52 129.93,150.72C129.91,144.92 129.91,139.12 129.89,133.32C129.87,127.52 129.85,121.72 129.82,115.92Q129.79,110.12 129.71,98.52L127.5,98.52Q127.41,110.12 127.38,115.92C127.35,121.72 127.34,127.52 127.32,133.32C127.3,139.12 127.29,144.92 127.27,150.72C127.25,156.52 127.23,162.32 127.21,168.12C127.18,173.92 127.15,179.72 127.12,185.52C127.09,191.32 127.05,197.12 127.02,202.92C126.99,208.72 126.95,214.52 126.94,220.32C126.93,226.12 126.92,231.91 126.93,237.71Q126.94,243.51 127.02,255.11Z" style="vector-effect: non-scaling-stroke; stroke-width: 2px; stroke: rgb(212, 232, 232); stroke-opacity: 1; fill: rgb(212, 232, 232); fill-opacity: 0.5;"/><path class="violin" d="M253.14,270.45Q253.32,260.47 253.4,255.48C253.48,250.49 253.55,245.5 253.62,240.51C253.68,235.52 253.75,230.53 253.79,225.54C253.83,220.55 253.86,215.57 253.87,210.58C253.88,205.59 253.88,200.6 253.86,195.61C253.84,190.62 253.8,185.63 253.76,180.64C253.71,175.65 253.65,170.66 253.59,165.67C253.53,160.68 253.45,155.7 253.38,150.71C253.31,145.72 253.24,140.73 253.17,135.74C253.1,130.75 253.03,125.76 252.97,120.77C252.91,115.78 252.85,110.79 252.8,105.8C252.75,100.81 252.7,95.83 252.67,90.84C252.63,85.85 252.61,80.86 252.59,75.87C252.57,70.88 252.56,65.89 252.56,60.9C252.56,55.91 252.57,50.92 252.57,45.93C252.57,40.94 252.58,35.96 252.58,30.97Q252.58,25.98 252.56,16L251.43,16Q251.42,25.98 251.42,30.97C251.42,35.96 251.43,40.94 251.43,45.93C251.43,50.92 251.43,55.91 251.43,60.9C251.43,65.89 251.42,70.88 251.4,75.87C251.38,80.86 251.35,85.85 251.32,90.84C251.29,95.83 251.25,100.81 251.2,105.8C251.15,110.79 251.09,115.78 251.03,120.77C250.97,125.76 250.9,130.75 250.83,135.74C250.76,140.73 250.68,145.72 250.61,150.71C250.54,155.7 250.46,160.68 250.4,165.67C250.34,170.66 250.28,175.65 250.23,180.64C250.19,185.63 250.15,190.62 250.13,195.61C250.11,200.6 250.11,205.59 250.12,210.58C250.13,215.57 250.16,220.55 250.2,225.54C250.24,230.53 250.3,235.52 250.37,240.51C250.44,245.5 250.52,250.49 250.6,255.48Q250.68,260.47 250.85,270.45Z" style="vector-effect: non-scaling-stroke; stroke-width: 2px; stroke: rgb(212, 232, 232); stroke-opacity: 1; fill: rgb(212, 232, 232); fill-opacity: 0.5;"/><path class="violin" d="M376.29,303.46Q376.44,290.59 376.5,284.16C376.56,277.72 376.62,271.29 376.67,264.85C376.72,258.42 376.76,251.98 376.78,245.55C376.81,239.11 376.82,232.68 376.82,226.24C376.82,219.81 376.81,213.37 376.8,206.94C376.79,200.5 376.76,194.07 376.74,187.63C376.72,181.2 376.7,174.76 376.69,168.33C376.67,161.89 376.66,155.46 376.65,149.02C376.64,142.59 376.64,136.15 376.63,129.72C376.62,123.28 376.61,116.85 376.58,110.41Q376.56,103.98 376.48,91.11L374.31,91.11Q374.23,103.98 374.21,110.41C374.18,116.85 374.17,123.28 374.16,129.72C374.15,136.15 374.14,142.59 374.13,149.02C374.12,155.46 374.11,161.89 374.1,168.33C374.09,174.76 374.07,181.2 374.05,187.63C374.03,194.07 374,200.5 373.99,206.94C373.98,213.37 373.97,219.81 373.97,226.24C373.97,232.68 373.98,239.11 374,245.55C374.02,251.98 374.06,258.42 374.11,264.85C374.16,271.29 374.22,277.72 374.29,284.16Q374.35,290.59 374.5,303.46Z" style="vector-effect: non-scaling-stroke; stroke-width: 2px; stroke: rgb(212, 232, 232); stroke-opacity: 1; fill: rgb(212, 232, 232); fill-opacity: 0.5;"/><path class="box" d="M126.71,216.31H130.49M126.71,252.21H130.49V121.06H126.71ZM128.6,252.21V255.11M128.6,121.06V98.52" style="vector-effect: non-scaling-stroke; stroke-width: 2px; stroke: rgb(212, 232, 232); stroke-opacity: 1; fill: rgb(212, 232, 232); fill-opacity: 0.5;"/><path class="box" d="M250.11,196.9H253.89M250.11,214.63H253.89V127.72H250.11ZM252,214.63V270.45M252,127.72V16" style="vector-effect: non-scaling-stroke; stroke-width: 2px; stroke: rgb(212, 232, 232); stroke-opacity: 1; fill: rgb(212, 232, 232); fill-opacity: 0.5;"/><path class="box" d="M373.5,222.29H377.28M373.5,235.38H377.28V104.16H373.5ZM375.39,235.38V303.46M375.39,104.16V91.11" style="vector-effect: non-scaling-stroke; stroke-width: 2px; stroke: rgb(212, 232, 232); stroke-opacity: 1; fill: rgb(212, 232, 232); fill-opacity: 0.5;"/><g class="points"><path class="point" transform="translate(118.44,255.11)" d="M3,0A3,3 0 1,1 0,-3A3,3 0 0,1 3,0Z" style="opacity: 1; stroke-width: 0px; fill: rgb(212, 232, 232); fill-opacity: 1;"/><path class="point" transform="translate(115.82,251.24)" d="M3,0A3,3 0 1,1 0,-3A3,3 0 0,1 3,0Z" style="opacity: 1; stroke-width: 0px; fill: rgb(212, 232, 232); fill-opacity: 1;"/><path class="point" transform="translate(119.02,216.31)" d="M3,0A3,3 0 1,1 0,-3A3,3 0 0,1 3,0Z" style="opacity: 1; stroke-width: 0px; fill: rgb(212, 232, 232); fill-opacity: 1;"/><path class="point" transform="translate(115.35,128.58)" d="M3,0A3,3 0 1,1 0,-3A3,3 0 0,1 3,0Z" style="opacity: 1; stroke-width: 0px; fill: rgb(212, 232, 232); fill-opacity: 1;"/><path class="point" transform="translate(116.71,98.52)" d="M3,0A3,3 0 1,1 0,-3A3,3 0 0,1 3,0Z" style="opacity: 1; stroke-width: 0px; fill: rgb(212, 232, 232); fill-opacity: 1;"/></g><g class="points"><path class="point" transform="translate(241.85,270.45)" d="M3,0A3,3 0 1,1 0,-3A3,3 0 0,1 3,0Z" style="opacity: 1; stroke-width: 0px; fill: rgb(212, 232, 232); fill-opacity: 1;"/><path class="point" transform="translate(240.58,214.63)" d="M3,0A3,3 0 1,1 0,-3A3,3 0 0,1 3,0Z" style="opacity: 1; stroke-width: 0px; fill: rgb(212, 232, 232); fill-opacity: 1;"/><path class="point" transform="translate(241.32,210.19)" d="M3,0A3,3 0 1,1 0,-3A3,3 0 0,1 3,0Z" style="opacity: 1; stroke-width: 0px; fill: rgb(212, 232, 232); fill-opacity: 1;"/><path class="point" transform="translate(239.94,183.61)" d="M3,0A3,3 0 1,1 0,-3A3,3 0 0,1 3,0Z" style="opacity: 1; stroke-width: 0px; fill: rgb(212, 232, 232); fill-opacity: 1;"/><path class="point" transform="translate(239,127.72)" d="M3,0A3,3 0 1,1 0,-3A3,3 0 0,1 3,0Z" style="opacity: 1; stroke-width: 0px; fill: rgb(212, 232, 232); fill-opacity: 1;"/><path class="point" transform="translate(241.27,16)" d="M3,0A3,3 0 1,1 0,-3A3,3 0 0,1 3,0Z" style="opacity: 1; stroke-width: 0px; fill: rgb(212, 232, 232); fill-opacity: 1;"/></g><g class="points"><path class="point" transform="translate(363.44,303.46)" d="M3,0A3,3 0 1,1 0,-3A3,3 0 0,1 3,0Z" style="opacity: 1; stroke-width: 0px; fill: rgb(212, 232, 232); fill-opacity: 1;"/><path class="point" transform="translate(365.35,235.52)" d="M3,0A3,3 0 1,1 0,-3A3,3 0 0,1 3,0Z" style="opacity: 1; stroke-width: 0px; fill: rgb(212, 232, 232); fill-opacity: 1;"/><path class="point" transform="translate(362.06,234.94)" d="M3,0A3,3 0 1,1 0,-3A3,3 0 0,1 3,0Z" style="opacity: 1; stroke-width: 0px; fill: rgb(212, 232, 232); fill-opacity: 1;"/><path class="point" transform="translate(362.87,222.29)" d="M3,0A3,3 0 1,1 0,-3A3,3 0 0,1 3,0Z" style="opacity: 1; stroke-width: 0px; fill: rgb(212, 232, 232); fill-opacity: 1;"/><path class="point" transform="translate(365.87,135.83)" d="M3,0A3,3 0 1,1 0,-3A3,3 0 0,1 3,0Z" style="opacity: 1; stroke-width: 0px; fill: rgb(212, 232, 232); fill-opacity: 1;"/><path class="point" transform="translate(363.54,93.6)" d="M3,0A3,3 0 1,1 0,-3A3,3 0 0,1 3,0Z" style="opacity: 1; stroke-width: 0px; fill: rgb(212, 232, 232); fill-opacity: 1;"/><path class="point" transform="translate(362.11,91.11)" d="M3,0A3,3 0 1,1 0,-3A3,3 0 0,1 3,0Z" style="opacity: 1; stroke-width: 0px; fill: rgb(212, 232, 232); fill-opacity: 1;"/></g></g></g></g><g class="overplot"/><path class="xlines-above crisp" d="M0,0" style="fill: none;"/><path class="ylines-above crisp" d="M0,0" style="fill: none;"/><g class="overlines-above"/><g class="xaxislayer-above"><g class="xtick"><text text-anchor="middle" x="0" y="433" transform="translate(176.20999999999998,0)" style="font-family: 'Open Sans', verdana, arial, sans-serif; font-size: 12px; fill: rgb(42, 63, 95); fill-opacity: 1; white-space: pre; opacity: 1;">Docking</text></g><g class="xtick"><text text-anchor="middle" x="0" y="433" transform="translate(299.61,0)" style="font-family: 'Open Sans', verdana, arial, sans-serif; font-size: 12px; fill: rgb(42, 63, 95); fill-opacity: 1; white-space: pre; opacity: 1;">Hypothesis-driven</text></g><g class="xtick"><text text-anchor="middle" x="0" y="433" transform="translate(423,0)" style="font-family: 'Open Sans', verdana, arial, sans-serif; font-size: 12px; fill: rgb(42, 63, 95); fill-opacity: 1; white-space: pre; opacity: 1;">Unclear</text></g></g><g class="yaxislayer-above"><g class="ytick"><text text-anchor="end" x="79" y="4.199999999999999" transform="translate(0,404)" style="font-family: 'Open Sans', verdana, arial, sans-serif; font-size: 12px; fill: rgb(42, 63, 95); fill-opacity: 1; white-space: pre; opacity: 1;">4</text></g><g class="ytick"><text text-anchor="end" x="79" y="4.199999999999999" style="font-family: 'Open Sans', verdana, arial, sans-serif; font-size: 12px; fill: rgb(42, 63, 95); fill-opacity: 1; white-space: pre; opacity: 1;" transform="translate(0,342.24)">4.5</text></g><g class="ytick"><text text-anchor="end" x="79" y="4.199999999999999" style="font-family: 'Open Sans', verdana, arial, sans-serif; font-size: 12px; fill: rgb(42, 63, 95); fill-opacity: 1; white-space: pre; opacity: 1;" transform="translate(0,280.48)">5</text></g><g class="ytick"><text text-anchor="end" x="79" y="4.199999999999999" style="font-family: 'Open Sans', verdana, arial, sans-serif; font-size: 12px; fill: rgb(42, 63, 95); fill-opacity: 1; white-space: pre; opacity: 1;" transform="translate(0,218.72)">5.5</text></g><g class="ytick"><text text-anchor="end" x="79" y="4.199999999999999" style="font-family: 'Open Sans', verdana, arial, sans-serif; font-size: 12px; fill: rgb(42, 63, 95); fill-opacity: 1; white-space: pre; opacity: 1;" transform="translate(0,156.96)">6</text></g></g><g class="overaxes-above"/></g></g><g class="polarlayer"/><g class="smithlayer"/><g class="ternarylayer"/><g class="geolayer"/><g class="funnelarealayer"/><g class="pielayer"/><g class="iciclelayer"/><g class="treemaplayer"/><g class="sunburstlayer"/><g class="glimages"/><defs id="topdefs-76ee9f"><g class="clips"/><clipPath id="legend76ee9f"><rect width="173" height="105" x="0" y="0"/></clipPath></defs><g class="layer-above"><g class="imagelayer"/><g class="shapelayer"/></g><g class="infolayer"><g class="legend" pointer-events="all" transform="translate(514.52,100)"><rect class="bg" shape-rendering="crispEdges" style="stroke: rgb(68, 68, 68); stroke-opacity: 1; fill: rgb(255, 255, 255); fill-opacity: 1; stroke-width: 0px;" width="173" height="105" x="0" y="0"/><g class="scrollbox" transform="" clip-path="url(#legend76ee9f)"><text class="legendtitletext" text-anchor="start" x="2" y="18.2" style="font-family: 'Open Sans', verdana, arial, sans-serif; font-size: 14px; fill: rgb(42, 63, 95); fill-opacity: 1; white-space: pre;">Group</text><g class="groups" transform=""><g class="traces" transform="translate(0,32.7)" style="opacity: 1;"><text class="legendtext" text-anchor="start" x="40" y="4.680000000000001" style="font-family: 'Open Sans', verdana, arial, sans-serif; font-size: 12px; fill: rgb(42, 63, 95); fill-opacity: 1; white-space: pre;">Core</text><g class="layers" style="opacity: 1;"><g class="legendfill"/><g class="legendlines"/><g class="legendsymbols"><g class="legendpoints"><path class="legendbox" d="M6,6H-6V-6H6Z" transform="translate(20,0)" style="stroke-width: 2px; fill: rgb(253, 138, 138); fill-opacity: 0.5; stroke: rgb(253, 138, 138); stroke-opacity: 1;"/></g></g></g><rect class="legendtoggle" x="0" y="-9.5" width="167.5625" height="19" style="fill: rgb(0, 0, 0); fill-opacity: 0;"/></g></g><g class="groups" transform=""><g class="traces" transform="translate(0,51.7)" style="opacity: 1;"><text class="legendtext" text-anchor="start" x="40" y="4.680000000000001" style="font-family: 'Open Sans', verdana, arial, sans-serif; font-size: 12px; fill: rgb(42, 63, 95); fill-opacity: 1; white-space: pre;">Community</text><g class="layers" style="opacity: 1;"><g class="legendfill"/><g class="legendlines"/><g class="legendsymbols"><g class="legendpoints"><path class="legendbox" d="M6,6H-6V-6H6Z" transform="translate(20,0)" style="stroke-width: 2px; fill: rgb(168, 209, 209); fill-opacity: 0.5; stroke: rgb(168, 209, 209); stroke-opacity: 1;"/></g></g></g><rect class="legendtoggle" x="0" y="-9.5" width="167.5625" height="19" style="fill: rgb(0, 0, 0); fill-opacity: 0;"/></g></g><g class="groups" transform=""><g class="traces" transform="translate(0,70.7)" style="opacity: 1;"><text class="legendtext" text-anchor="start" x="40" y="4.680000000000001" style="font-family: 'Open Sans', verdana, arial, sans-serif; font-size: 12px; fill: rgb(42, 63, 95); fill-opacity: 1; white-space: pre;">Core_covalent</text><g class="layers" style="opacity: 1;"><g class="legendfill"/><g class="legendlines"/><g class="legendsymbols"><g class="legendpoints"><path class="legendbox" d="M6,6H-6V-6H6Z" transform="translate(20,0)" style="stroke-width: 2px; fill: rgb(254, 197, 197); fill-opacity: 0.5; stroke: rgb(254, 197, 197); stroke-opacity: 1;"/></g></g></g><rect class="legendtoggle" x="0" y="-9.5" width="167.5625" height="19" style="fill: rgb(0, 0, 0); fill-opacity: 0;"/></g></g><g class="groups" transform=""><g class="traces" transform="translate(0,89.7)" style="opacity: 1;"><text class="legendtext" text-anchor="start" x="40" y="4.680000000000001" style="font-family: 'Open Sans', verdana, arial, sans-serif; font-size: 12px; fill: rgb(42, 63, 95); fill-opacity: 1; white-space: pre;">Community_covalent</text><g class="layers" style="opacity: 1;"><g class="legendfill"/><g class="legendlines"/><g class="legendsymbols"><g class="legendpoints"><path class="legendbox" d="M6,6H-6V-6H6Z" transform="translate(20,0)" style="stroke-width: 2px; fill: rgb(212, 232, 232); fill-opacity: 0.5; stroke: rgb(212, 232, 232); stroke-opacity: 1;"/></g></g></g><rect class="legendtoggle" x="0" y="-9.5" width="167.5625" height="19" style="fill: rgb(0, 0, 0); fill-opacity: 0;"/></g></g></g><rect class="scrollbar" rx="20" ry="3" width="0" height="0" style="fill: rgb(128, 139, 164); fill-opacity: 1;" x="0" y="0"/></g><g class="g-gtitle"><text class="gtitle" x="35" y="50" text-anchor="start" dy="0em" style="font-family: 'Open Sans', verdana, arial, sans-serif; font-size: 17px; fill: rgb(42, 63, 95); opacity: 1; font-weight: normal; white-space: pre;">pIC50 by approach taken used (submitted prior to 01-07-2020)</text></g><g class="g-xtitle"><text class="xtitle" x="293" y="460.3" text-anchor="middle" style="font-family: 'Open Sans', verdana, arial, sans-serif; font-size: 14px; fill: rgb(42, 63, 95); opacity: 1; font-weight: normal; white-space: pre;">approach</text></g><g class="g-ytitle"><text class="ytitle" transform="rotate(-90,35.075,260)" x="35.075" y="260" text-anchor="middle" style="font-family: 'Open Sans', verdana, arial, sans-serif; font-size: 14px; fill: rgb(42, 63, 95); opacity: 1; font-weight: normal; white-space: pre;">pIC50</text></g></g></svg>